<?xml version="1.0" encoding="utf-8"?>
<!-- Generator: Adobe Illustrator 22.1.0, SVG Export Plug-In . SVG Version: 6.00 Build 0)  -->
<svg version="1.1" id="Layer_1" xmlns="http://www.w3.org/2000/svg" xmlns:xlink="http://www.w3.org/1999/xlink" x="0px" y="0px"
	 viewBox="0 0 219.3 85.5" style="enable-background:new 0 0 219.3 85.5;" xml:space="preserve">
<style type="text/css">
	.st0{clip-path:url(#SVGID_3_);}
	.st1{clip-path:url(#SVGID_4_);fill:#FFFFFF;}
	.st2{clip-path:url(#SVGID_7_);}
	.st3{clip-path:url(#SVGID_8_);fill:#FFFFFF;}
	.st4{clip-path:url(#SVGID_11_);}
	.st5{clip-path:url(#SVGID_12_);fill:#FFFFFF;}
	.st6{clip-path:url(#SVGID_15_);}
	.st7{clip-path:url(#SVGID_16_);fill:#FFFFFF;}
	.st8{clip-path:url(#SVGID_19_);}
	.st9{clip-path:url(#SVGID_20_);fill:#FFFFFF;}
	.st10{clip-path:url(#SVGID_23_);}
	.st11{clip-path:url(#SVGID_24_);fill:#FFFFFF;}
</style>
<g>
	<g>
		<defs>
			<rect id="SVGID_1_" x="27.3" y="22.3" width="161" height="40"/>
		</defs>
		<defs>
			<path id="SVGID_2_" d="M28.3,43.3l0.1-6.6c1.4-0.7,4.8-2.4,10.4-2.4c7.7,0,10.1,4,10.1,10.3c0,4.3-0.2,8.6-0.2,12.9h3.5v4.2H44
				c0-1.7,0.1-3.7,0.5-5.6h-0.1c-1.2,3-3.3,6.2-8.7,6.2c-6.4,0-8.4-4.2-8.4-7.6c0-7.1,7-8,11.2-8.2l5.4-0.4V44
				c0-3.3-1.2-5.6-5.8-5.6c-2,0-3.9,0.6-4.7,1v3.9H28.3L28.3,43.3z M33.2,54.1c0,2.1,1.4,3.6,4.1,3.6c4.4,0,6.7-3.4,6.7-6.8v-1.1
				C38.3,49.9,33.2,50.1,33.2,54.1L33.2,54.1z"/>
		</defs>
		<clipPath id="SVGID_3_">
			<use xlink:href="#SVGID_1_"  style="overflow:visible;"/>
		</clipPath>
		<clipPath id="SVGID_4_" class="st0">
			<use xlink:href="#SVGID_2_"  style="overflow:visible;"/>
		</clipPath>
		<rect x="22.2" y="29.2" class="st1" width="35" height="38"/>
	</g>
	<g>
		<defs>
			<rect id="SVGID_5_" x="27.3" y="22.3" width="161" height="40"/>
		</defs>
		<defs>
			<path id="SVGID_6_" d="M56,61.3h12.4v-4.2h-3.6l0.2-10c0.1-4.9,3.1-8,7-8c3.6,0,5.4,2.7,5.4,6.4c0,3.8-0.1,7.7-0.2,11.5H74v4.2
				h12.3v-4.2h-3.5c0-4.2,0.2-8.4,0.2-12.6c0-6.3-3-10.2-9.3-10.2c-5.3,0-8.3,3.1-9.4,6.4h-0.1c0.4-2.3,0.5-4,0.5-5.8h-9.5V39H59
				l-0.1,18H56L56,61.3L56,61.3L56,61.3z"/>
		</defs>
		<clipPath id="SVGID_7_">
			<use xlink:href="#SVGID_5_"  style="overflow:visible;"/>
		</clipPath>
		<clipPath id="SVGID_8_" class="st2">
			<use xlink:href="#SVGID_6_"  style="overflow:visible;"/>
		</clipPath>
		<rect x="50.3" y="29.2" class="st3" width="41" height="37"/>
	</g>
	<g>
		<defs>
			<rect id="SVGID_9_" x="27.3" y="22.3" width="161" height="40"/>
		</defs>
		<defs>
			<path id="SVGID_10_" d="M115.2,57.4L115.2,57.4l0,4.2h-8.8c0-1.9,0.2-3.9,0.5-5.4h-0.1c-1.4,3.6-4.2,6-8.7,6
				c-6.2,0-10.8-4.7-10.8-12.7c0-8.8,5.2-15.2,14-15.2c1.9,0,3.6,0.2,5.2,0.6l0.1-8.6h-4.7v-4.2H112l-0.2,35.2H115.2L115.2,57.4z
				 M107.2,47.5L107.2,47.5l0-7.2c-1.2-0.7-2.9-1.1-4.9-1.1c-5.2,0-8.1,4.6-8.1,9.6c0,4.8,2.1,8.4,6.3,8.4
				C105,57.2,107.2,53.5,107.2,47.5L107.2,47.5z"/>
		</defs>
		<clipPath id="SVGID_11_">
			<use xlink:href="#SVGID_9_"  style="overflow:visible;"/>
		</clipPath>
		<clipPath id="SVGID_12_" class="st4">
			<use xlink:href="#SVGID_10_"  style="overflow:visible;"/>
		</clipPath>
		<rect x="82.2" y="17.2" class="st5" width="38" height="50"/>
	</g>
	<g>
		<defs>
			<rect id="SVGID_13_" x="27.3" y="22.3" width="161" height="40"/>
		</defs>
		<defs>
			<path id="SVGID_14_" d="M140.9,55.6l-0.4,4.8c-1.8,0.7-5.4,1.8-9.3,1.8c-8.9-0.1-14-5.6-14-13.9c0-8,4.5-14.1,13-14.1
				c7.9,0,12,5.8,12,14.1v0.7h-18.9c0.1,5.2,3.8,8.6,9.1,8.6C135.8,57.7,138.7,56.8,140.9,55.6L140.9,55.6z M123.6,45.2h12.9v-0.5
				c0-2.2-1.4-6.3-6.2-6.3C125.4,38.4,123.8,41.9,123.6,45.2L123.6,45.2z"/>
		</defs>
		<clipPath id="SVGID_15_">
			<use xlink:href="#SVGID_13_"  style="overflow:visible;"/>
		</clipPath>
		<clipPath id="SVGID_16_" class="st6">
			<use xlink:href="#SVGID_14_"  style="overflow:visible;"/>
		</clipPath>
		<rect x="112.2" y="29.2" class="st7" width="35" height="38"/>
	</g>
	<g>
		<defs>
			<rect id="SVGID_17_" x="27.3" y="22.3" width="161" height="40"/>
		</defs>
		<defs>
			<path id="SVGID_18_" d="M145,61.3h12.7v-4.2h-3.8l0.1-8.2c0-4.7,2.1-9.4,7.1-9.4c1.2,0,1.9,0.1,2.6,0.4l0.6-5
				c-0.5-0.2-1.8-0.5-3.2-0.5c-3.8,0-6.6,3-7.7,7.9l-0.1-0.1c0.4-2.6,0.4-5.4,0.4-7.3h-9.3v4.2h4l-0.1,18H145V61.3L145,61.3z"/>
		</defs>
		<clipPath id="SVGID_19_">
			<use xlink:href="#SVGID_17_"  style="overflow:visible;"/>
		</clipPath>
		<clipPath id="SVGID_20_" class="st8">
			<use xlink:href="#SVGID_18_"  style="overflow:visible;"/>
		</clipPath>
		<rect x="139.2" y="29.2" class="st9" width="30" height="37"/>
	</g>
	<g>
		<defs>
			<rect id="SVGID_21_" x="27.3" y="22.3" width="161" height="40"/>
		</defs>
		<defs>
			<path id="SVGID_22_" d="M187,42.5l-0.1-6.5c-1.6-0.5-5-1.7-9.3-1.7c-5.9,0-11.4,2.2-11.4,8.5c0,5.1,4.5,6.7,8.6,7.4l4.2,0.7
				c2.2,0.4,3.9,1.1,3.9,3.4c0,2.8-2.7,3.8-5.4,3.8c-2.9,0-4.7-0.7-5.7-1.1l-0.1-3.5h-5.2l0.1,7.3c1.7,0.6,5.2,1.6,9.7,1.6
				c5.9,0,12-1.8,12-9c0-5.5-3.5-6.8-6.5-7.4l-6.5-1.3c-1.7-0.4-3.4-1-3.4-3c0-2.7,2.8-3.3,5.4-3.3c2.3,0,3.5,0.4,4.4,0.8l0.1,3.2
				h5.3V42.5L187,42.5z"/>
		</defs>
		<clipPath id="SVGID_23_">
			<use xlink:href="#SVGID_21_"  style="overflow:visible;"/>
		</clipPath>
		<clipPath id="SVGID_24_" class="st10">
			<use xlink:href="#SVGID_22_"  style="overflow:visible;"/>
		</clipPath>
		<rect x="161.2" y="29.2" class="st11" width="32" height="38"/>
	</g>
</g>
</svg>
