<?xml version="1.0" encoding="utf-8"?>
<!-- Generator: Adobe Illustrator 22.1.0, SVG Export Plug-In . SVG Version: 6.00 Build 0)  -->
<svg version="1.1" xmlns="http://www.w3.org/2000/svg" xmlns:xlink="http://www.w3.org/1999/xlink" x="0px" y="0px"
	 viewBox="0 0 387.4 157.5" style="enable-background:new 0 0 387.4 157.5;" xml:space="preserve">
<style type="text/css">
	.st0{fill:#85BC22;}
	.st1{fill:#FFFFFF;}
</style>
<g id="Artwork">
	<g>
		<path class="st0" d="M320.4,98.1c0-4.1,3.4-7.5,7.5-7.5c4.1,0,7.5,3.4,7.5,7.5c0,4.1-3.4,7.5-7.5,7.5
			C323.8,105.6,320.4,102.2,320.4,98.1"/>
		<path class="st1" d="M95,77.7c0,8.7-2.3,15.3-7,20c-4.7,4.7-11.2,7-19.7,7H52v-52h17.6c8.1,0,14.4,2.1,18.9,6.4
			C92.8,63.5,95,69.6,95,77.7 M80.8,78.2c0-4.8-0.9-8.3-2.8-10.6c-1.8-2.3-4.6-3.4-8.4-3.4h-4v29.1h3.1c4.2,0,7.2-1.2,9.2-3.7
			C79.8,87,80.8,83.3,80.8,78.2"/>
		<rect x="140.5" y="52.6" class="st1" width="13.1" height="52.2"/>
		<path class="st1" d="M196.4,85.3c0,6.3-1.7,11.3-5,14.8c-3.3,3.5-8,5.3-14,5.3c-5.7,0-10.3-1.8-13.7-5.4
			c-3.4-3.6-5.1-8.5-5.1-14.7c0-6.3,1.7-11.2,5-14.7c3.3-3.5,8-5.2,14-5.2c3.7,0,7,0.8,9.9,2.4c2.9,1.6,5,3.9,6.6,7
			C195.6,77.7,196.4,81.2,196.4,85.3 M171.9,85.3c0,3.3,0.4,5.9,1.3,7.6c0.9,1.7,2.3,2.6,4.4,2.6c2,0,3.5-0.9,4.3-2.6
			c0.8-1.7,1.3-4.3,1.3-7.6c0-3.3-0.4-5.8-1.3-7.5c-0.8-1.7-2.3-2.5-4.3-2.5c-2,0-3.4,0.8-4.3,2.5C172.3,79.5,171.9,82,171.9,85.3"
			/>
		<rect x="201.6" y="66" class="st1" width="13.1" height="38.8"/>
		<rect x="201.6" y="52.6" class="st1" width="13.1" height="8.7"/>
		<path class="st1" d="M241.1,94.9c1.8,0,3.9-0.4,6.3-1.3v9.8c-1.8,0.8-3.4,1.3-5,1.7c-1.6,0.3-3.5,0.5-5.6,0.5
			c-4.4,0-7.5-1.1-9.5-3.3c-1.9-2.2-2.9-5.6-2.9-10.1V76h-4.6V66h4.6v-9.9l13.2-2.3V66h8.3v10h-8.3v15.1
			C237.6,93.6,238.7,94.9,241.1,94.9"/>
		<path class="st1" d="M271.3,94.9c1.8,0,3.9-0.4,6.3-1.3v9.8c-1.8,0.8-3.4,1.3-5,1.7c-1.6,0.3-3.5,0.5-5.6,0.5
			c-4.4,0-7.5-1.1-9.5-3.3c-1.9-2.2-2.9-5.6-2.9-10.1V76H250V66h4.6V56l13.2-2.1V66h8.3v10h-8.3v15.1
			C267.8,93.6,269,94.9,271.3,94.9"/>
		<path class="st1" d="M312.5,69.9c-3.1-3-7.5-4.6-13.2-4.6c-6,0-10.6,1.7-13.8,5.3c-3.2,3.5-4.8,8.5-4.8,15.1
			c0,6.3,1.7,11.2,5.2,14.7c3.5,3.4,8.4,5.1,14.7,5.1c3,0,5.6-0.2,7.8-0.6c2.2-0.4,4.3-1.1,6.3-2.2l-2-8.7c-1.5,0.6-2.9,1.1-4.2,1.4
			c-1.9,0.4-4,0.7-6.3,0.7c-2.5,0-4.5-0.6-6-1.8c-1.5-1.2-2.2-2.9-2.3-5.1h23.3V83C317.2,77.3,315.6,72.9,312.5,69.9 M294.1,80.6
			c0.2-2.1,0.8-3.7,1.8-4.7c1-1,2.3-1.5,3.9-1.5c1.7,0,3,0.6,4,1.7c1,1.1,1.5,2.6,1.6,4.5H294.1z"/>
		<path class="st1" d="M130.8,69.9c-3.1-3-7.5-4.6-13.2-4.6c-6,0-10.6,1.7-13.8,5.3c-3.2,3.5-4.8,8.5-4.8,15.1
			c0,6.3,1.7,11.2,5.2,14.7c3.5,3.4,8.4,5.1,14.7,5.1c3,0,5.6-0.2,7.8-0.6c2.2-0.4,4.3-1.1,6.3-2.2l-2-8.7c-1.5,0.6-2.9,1.1-4.2,1.4
			c-1.9,0.4-4,0.7-6.3,0.7c-2.5,0-4.5-0.6-6-1.8c-1.5-1.2-2.2-2.9-2.3-5.1h23.3V83C135.4,77.3,133.9,72.9,130.8,69.9 M112.3,80.6
			c0.2-2.1,0.8-3.7,1.8-4.7c1-1,2.3-1.5,3.9-1.5c1.7,0,3,0.6,4,1.7c1,1.1,1.5,2.6,1.6,4.5H112.3z"/>
	</g>
</g>
<g id="clearspace">
</g>
</svg>
