<?xml version="1.0" encoding="utf-8"?>
<!-- Generator: Adobe Illustrator 22.1.0, SVG Export Plug-In . SVG Version: 6.00 Build 0)  -->
<svg version="1.1" id="Layer_1" xmlns="http://www.w3.org/2000/svg" xmlns:xlink="http://www.w3.org/1999/xlink" x="0px" y="0px"
	 viewBox="0 0 791 296" enable-background="new 0 0 791 296" xml:space="preserve">
<g>
	<g>
		<defs>
			<rect id="SVGID_1_" x="92" y="78" width="600" height="140"/>
		</defs>
		<defs>
			<path id="SVGID_2_" d="M152.4,117.6c0,7.8-5.8,13.2-16.8,13.2h-16.5v-26.1h16.5C146.6,104.7,152.4,109.8,152.4,117.6L152.4,117.6
				L152.4,117.6z M187.5,196.7l-29.1-48c11.8-5.8,20.3-16.2,20.3-32.3c0-23.6-19.3-37.4-42.3-37.4H93v117.8h26.1v-42.4h13.5
				l25.6,42.4H187.5L187.5,196.7L187.5,196.7z M252.7,145.8h-37.9c1.2-7.3,8.3-15,19-15C244.5,130.7,251.7,138.3,252.7,145.8
				L252.7,145.8L252.7,145.8z M275.8,162.9c0.3-2,0.5-5.9,0.5-8.9c0-24.1-17.5-44-43.3-44c-25.1,0-43.4,19.8-43.4,44.2
				c0,27.9,21.3,44.9,44.3,44.9c15.5,0,29.6-8.2,37.9-20.3L252,168.5c-4.2,4.9-9.8,8.7-17.8,8.7c-10.2,0-17.6-6.1-19-14.4H275.8
				L275.8,162.9L275.8,162.9z M343.6,164.6c0,2.5,0,3.5-1.2,5.6c-3.2,5.8-12.6,8.6-18.5,8.6c-6.3,0-12.2-2-12.2-7.9
				c0-7.6,9.2-9.2,16-10.7c7.7-1.6,10.7-2.1,15.8-3.1V164.6L343.6,164.6L343.6,164.6z M343.5,196.7h23.8v-52.5
				c0-17.3-11.3-34.5-37.8-34.5c-24,0-36.1,14-39.3,24.1l22.8,4.5c2-3.8,7.5-7.8,15.3-7.8c9.5,0,15.2,4.9,15.2,10.1
				c-5,0.7-24.8,4-30,4.9c-15.1,3-26.8,11.4-26.8,27.4c0,14.5,12.8,25.7,29.5,25.7c11.5,0,19.3-4,26.1-10.7h1.2V196.7L343.5,196.7
				L343.5,196.7z M436.9,146.1l31.4-33.9h-30.8l-27.1,28.5V79.9h-24.5v117h24.5v-22.1l9.2-9.9l0.2-0.2l31.6,52.1h29L436.9,146.1
				L436.9,146.1L436.9,146.1z M506.9,199.2c10.2,0,18.7-2.5,21.2-3.3v-20.6c-1.5,0.5-8,1.6-13.7,1.6c-8,0-11.5-5.3-11.5-13.2v-31.2
				h23.7v-20h-23.7V91.2h-24.5v79.6C478.5,187.8,490.5,199.2,506.9,199.2L506.9,199.2L506.9,199.2z M602.8,153.9
				c0,14.3-9.1,23.4-20.9,23.4c-11.8,0-20.9-9-20.9-23.4c0-14.1,10-22.7,20.9-22.7C592.8,131.2,602.8,139.7,602.8,153.9L602.8,153.9
				L602.8,153.9z M626.5,153.9c0-24.7-19.6-44.1-44.7-44.1c-24.9,0-44.6,19.4-44.6,44.1c0,28.1,21.7,44.9,44.6,44.9
				C604.9,198.8,626.5,182,626.5,153.9L626.5,153.9L626.5,153.9z M690.5,135v-25.2c-11.9,0-22.6,7.4-25.7,12.3v-9.9h-24.4v84.2h24.4
				v-40.8C664.8,141.9,675.2,135,690.5,135L690.5,135L690.5,135z M690.5,135"/>
		</defs>
		<defs>
			<path id="SVGID_3_" d="M92,78h600v140H92V78z M92,78"/>
		</defs>
		<defs>
			<rect id="SVGID_4_" x="92" y="-574" width="612" height="792"/>
		</defs>
		<clipPath id="SVGID_5_">
			<use xlink:href="#SVGID_1_"  overflow="visible"/>
		</clipPath>
		<clipPath id="SVGID_6_" clip-path="url(#SVGID_5_)">
			<use xlink:href="#SVGID_2_"  overflow="visible"/>
		</clipPath>
		<clipPath id="SVGID_7_" clip-path="url(#SVGID_6_)">
			<use xlink:href="#SVGID_3_"  overflow="visible"/>
		</clipPath>
		<clipPath id="SVGID_8_" clip-path="url(#SVGID_7_)">
			<use xlink:href="#SVGID_4_"  overflow="visible"/>
		</clipPath>
		<rect x="88" y="74" clip-path="url(#SVGID_8_)" fill="#FFFFFF" width="607.5" height="147.8"/>
	</g>
</g>
</svg>
