<svg class="landing__nav__container__link__icon" xmlns="http://www.w3.org/2000/svg" width="300" height="169.266" viewBox="0 0 79.375 44.785"><g stroke="#27251d" stroke-linecap="round" stroke-linejoin="round"><path d="M1.716 4.918h34.57-34.57zm1.078 7.01H31.14 2.794zM4.95 18.94h24.075H4.949zm-2.155 7.012H29.03 2.794zm3.232 7.01h24.908H6.026zm-4.31 7.011h34.727H1.716z" fill="none" stroke-width="3.378"/><g transform="translate(-.057 -252.27)"><path d="M55.983 252.348a22.338 22.338 0 0 0-18.29 11.144 22.338 22.338 0 0 0 8.176 30.514 22.338 22.338 0 0 0 30.513-8.176 22.338 22.338 0 0 0-8.176-30.515 22.338 22.338 0 0 0-12.223-2.967zm.16 3.381a18.952 18.952 0 0 1 10.37 2.519 18.952 18.952 0 0 1 6.937 25.889 18.952 18.952 0 0 1-25.89 6.937 18.952 18.952 0 0 1-6.936-25.89 18.952 18.952 0 0 1 15.519-9.455z" fill="#27251d" stroke-width=".106"/><path d="M57.205 274.829l-7.84-4.527m7.566 4.296l-6.262 10.847" fill="none" stroke-width="2.381"/><ellipse ry="1.25" rx="1.327" cy="-209.406" cx="-186.603" transform="rotate(-150)" fill="none" stroke-width="2.254"/><g fill="none" stroke-width="4.856"><path d="M41.94 274.652h-1.57m33.06 0h-1.57m-27.915-7.479l-1.361-.786m28.632 16.531l-1.36-.786m-5.476-20.435l.785-1.36m-16.531 28.632l.786-1.361M43.945 282.132l-1.361.786m28.632-16.531l-1.36.786M49.42 261.697l-.786-1.36m16.531 28.632l-.785-1.361M56.9 259.693v-1.571m0 33.061v-1.571" stroke-width="1.852"/></g></g></g></svg>