<svg class="landing__nav__container__link__icon" xmlns="http://www.w3.org/2000/svg" width="300" height="203.761" viewBox="0 0 79.375 53.912"><g opacity=".99" fill="#27251d"><path d="M69.566 36.59a9.809 8.639 0 0 0-7.902 3.537c5.108 3.329 6.76 8.642 5.807 13.535a9.809 8.639 0 0 0 2.095.205 9.809 8.639 0 0 0 9.809-8.639 9.809 8.639 0 0 0-9.81-8.638zm.357 3.234a6.136 5.404 0 0 1 6.136 5.404 6.136 5.404 0 0 1-6.136 5.405 6.136 5.404 0 0 1-1.311-.129c.596-3.06-.437-6.384-3.632-8.467a6.136 5.404 0 0 1 4.943-2.213z"/><path d="M11.966 53.203h57.996c1.388-6.6-3.185-14.246-17.038-13.539-29.068 1.485-61.02 9.544-40.958 13.539z" stroke="#27251d" stroke-width="1.418" stroke-linecap="round" stroke-linejoin="round"/><g stroke="#27251c" stroke-width=".053" stroke-opacity=".984" fill-opacity=".992"><path d="M7.817 32.948l-1.793-1.87-2.471.366-2.471.365-.434-.322c-.238-.177-.497-.572-.575-.879-.13-.512-.05-.724.992-2.625.624-1.138 1.134-2.145 1.134-2.237 0-.093-.464-1.11-1.032-2.261C.6 22.335.136 21.277.136 21.135c0-.457.613-1.278 1.03-1.383.224-.056 1.44.092 2.701.33l2.295.43 1.789-1.687c.984-.928 1.95-1.73 2.149-1.78.51-.131 1.285.232 1.531.72.115.227.333 1.414.484 2.636.15 1.223.287 2.236.302 2.252.015.016.936.504 2.046 1.083 2.28 1.19 2.732 1.618 2.6 2.46-.111.714-.404.928-2.81 2.05l-1.973.919-.402 2.404c-.447 2.68-.604 2.979-1.657 3.15-.61.099-.613.096-2.404-1.77zm1.598-4.29c.183-1.236.416-1.536 1.658-2.137.62-.3 1.127-.59 1.127-.644 0-.055-.428-.304-.952-.554-1.347-.644-1.533-.897-1.734-2.354a40.359 40.359 0 0 1-.171-1.334c0-.052-.468.356-1.04.905l-1.04 1-.905-.094a25.056 25.056 0 0 1-1.513-.203l-.61-.11.57 1.13c.313.622.569 1.309.569 1.526 0 .218-.258.866-.574 1.44-.316.575-.542 1.078-.502 1.118.04.04.45 0 .913-.087 1.636-.31 1.842-.255 2.917.784 1.08 1.044 1.076 1.046 1.287-.386zM65.37 33.51c-.256-.255-.464-.602-.464-.771 0-.404-.479-5.173-.522-5.202-.019-.013-1.082-.608-2.362-1.324-1.28-.716-2.422-1.415-2.536-1.553-.305-.367-.26-1.398.077-1.77.157-.174 1.334-.763 2.616-1.309 1.281-.545 2.41-1.07 2.506-1.165.097-.095.369-1.174.604-2.396.532-2.764.666-3.193 1.093-3.492.384-.269 1.105-.312 1.518-.092.15.081 1.053 1.046 2.005 2.143.953 1.098 1.81 1.997 1.907 1.997.097 0 1.335-.144 2.751-.32 2.859-.354 3.261-.293 3.647.553.35.771.437.563-1.829 4.391l-.811 1.37 1.095 2.36c.702 1.513 1.096 2.564 1.097 2.926.002.61-.391 1.163-.954 1.341-.186.06-1.512-.155-3.017-.487l-2.685-.593-1.355 1.254c-3.106 2.874-3.47 3.051-4.381 2.14zm3.447-5.25c1.076-1.023 1.223-1.112 1.844-1.107.37.003 1.228.137 1.904.298.677.16 1.23.272 1.23.248 0-.024-.285-.665-.634-1.424-.35-.76-.635-1.584-.635-1.832 0-.259.335-1.01.788-1.762.433-.721.758-1.341.722-1.378-.037-.036-.776.02-1.643.127-1.145.14-1.665.146-1.9.02-.177-.095-.769-.675-1.315-1.29-.546-.614-1.042-1.062-1.102-.994-.06.068-.226.726-.369 1.46-.143.736-.361 1.492-.485 1.68-.123.189-.873.623-1.665.965-.792.343-1.44.658-1.442.702 0 .044.597.418 1.327.832s1.422.866 1.536 1.004c.115.139.28.996.368 1.907.088.91.191 1.655.23 1.655.039 0 .597-.5 1.24-1.112zM51.24 14.99c-.367-.393-.385-.506-.385-2.532v-2.12l-1.587-1.124c-1.826-1.294-1.984-1.466-1.984-2.17 0-.879.509-1.258 2.533-1.886 1-.31 1.857-.602 1.904-.648.048-.046.373-.95.722-2.008.748-2.266 1.09-2.66 2.093-2.41.613.154.74.29 2.311 2.502l.753 1.06h2.152c2.072 0 2.165.014 2.54.389.428.428.513 1.146.205 1.724-.102.19-.637.947-1.19 1.68-.554.734-1.006 1.381-1.006 1.438 0 .057.25.846.556 1.753.658 1.955.703 2.665.198 3.136-.63.588-1.029.573-3.026-.116-1.03-.355-1.959-.595-2.063-.532-.104.062-.839.6-1.632 1.194-1.22.913-1.54 1.08-2.076 1.08-.476 0-.728-.101-1.018-.41zm3.371-4.51c.74-.537 1.334-.6 2.336-.246.762.269.794.202.417-.866-.323-.917-.316-.964.318-1.905.305-.454.555-.854.555-.889 0-.035-.397-.063-.883-.063-1.086 0-1.34-.13-2.038-1.044l-.55-.72-.278.884c-.335 1.06-.544 1.27-1.648 1.645l-.847.288.76.545c.867.622 1.04.964 1.04 2.063 0 .431.036.784.08.784.044 0 .377-.215.738-.476zM33.895 34.503c-5.132-.748-9.84-4.46-11.667-9.198-.821-2.13-1.016-3.192-1.016-5.548 0-1.463.084-2.482.264-3.212C22.64 11.82 25.805 7.97 30.014 6.15c2.121-.917 3.463-1.195 5.86-1.212 3.452-.025 4.762.444 4.762 1.707 0 .82-.513 1.282-1.95 1.754-3.189 1.048-5.724 3.755-6.542 6.986-.307 1.216-.307 3.563.001 4.776.685 2.69 2.76 5.284 5.179 6.472 2.503 1.229 5.166 1.376 7.892.437 1.311-.452 1.54-.489 1.96-.315.592.245 1.005 1.054.856 1.677-.176.74-2.969 3.336-4.546 4.226-2.908 1.64-6.392 2.311-9.59 1.845zm4.986-3.109c.563-.137 1.277-.36 1.588-.498.534-.236.543-.252.167-.301-3.048-.4-5.649-1.591-7.668-3.512a12.815 12.815 0 0 1-.65-17.942l.919-1.011-.547.11c-.3.061-1.226.442-2.055.846-1.27.62-1.737.963-2.953 2.171-2.122 2.108-3.199 4.28-3.559 7.174-.3 2.41.314 5.268 1.603 7.464.728 1.241 2.998 3.486 4.274 4.226 2.634 1.527 5.908 1.997 8.881 1.273z"/></g></g></svg>