<svg class="landing__nav__container__link__icon" xmlns="http://www.w3.org/2000/svg" width="300" height="159.877" viewBox="0 0 79.375 42.301"><path d="M39.639 41.49c-3.19-.914-8.156-2.812-13.683-5.231-5.079-2.223-5.673-2.617-6.507-4.313-.496-1.009-.516-1.123-.497-2.82.02-1.768.02-1.768-2.77-2.883-4.753-1.901-9.278-3.258-12.978-3.89-1.74-.298-2.14-.465-2.594-1.077-.324-.438-.331-.606-.38-9.247C.204 7.19.228 2.85.284 2.387c.073-.609.226-.981.55-1.344.44-.49.478-.501 1.766-.484.724.01 2.134.103 3.134.208s4.922.23 8.715.279c6.85.088 10.48-.013 18.394-.51 5.356-.337 7.208-.322 8.45.068.89.279 1.115.296 1.74.129.873-.233 8.55-.254 20-.053 5.87.103 8.79.088 11.34-.059 3.791-.217 3.884-.202 4.505.745.258.395.279 1.101.279 9.6 0 7.398-.042 9.275-.216 9.687-.25.591-1.174 1.21-2.75 1.84-1.507.602-3.135.974-5.965 1.362-1.348.184-2.754.412-3.126.505-.59.147-.663.211-.569.504.19.589.094 2.525-.158 3.222-.405 1.118-1.112 1.984-2.9 3.55-5.455 4.78-10.752 8.217-13.019 8.448-.47.048-1.27.01-1.775-.084-.92-.172-.92-.172-3.067.886-2.727 1.342-3.217 1.392-5.972.603zm1.73-3.534c-.082-.069-.968-.471-1.967-.894-1-.422-4.521-2.08-7.825-3.682-7.722-3.748-8.752-4.222-8.88-4.094-.205.205.192 1.262.582 1.549 1.095.806 10.695 4.8 15.174 6.313 2.743.926 3.211 1.056 2.917.808zm10.033-2.159c3.42-1.722 10.948-7.667 11.385-8.99.102-.31.123-.755.051-1.085-.106-.488-.333-.703-1.781-1.683-.913-.618-2.549-1.875-3.636-2.792-3.286-2.775-5.552-4.585-6.717-5.365-2.282-1.528-4.694-2.45-6.423-2.456-.731-.002-.731-.002-2.52 2.33-4.38 5.71-6.04 7.14-8.301 7.149-.763.002-1.164-.098-1.933-.482-3.069-1.533-3.59-5.252-1.36-9.687 1.38-2.742 3.076-5.038 5.417-7.334.732-.717 1.232-1.304 1.112-1.303-.12 0-1.89.105-3.933.232-11.274.702-22.61.767-27.861.159-.753-.087-.753-.087-.712 7.06.042 7.146.042 7.146 1.712 7.496 3.345.7 7.362 1.974 11.618 3.681 4.232 1.698 6.745 2.85 14.69 6.738 8.604 4.21 11.421 5.387 15.332 6.41.956.25 1.972.458 2.257.462.288.004.998-.235 1.603-.54zm14.284-14.896c.607-.212 2.475-.58 4.298-.845 1.773-.258 3.673-.63 4.222-.825.998-.356.998-.356 1.039-7.547l.04-7.19-10.156-.075a3216.04 3216.04 0 0 0-15.694-.079c-5.536-.005-5.536-.005-6.579.509-2.426 1.195-5.304 3.686-7.235 6.265-2.384 3.184-3.636 6.748-2.7 7.684.446.447.697.399 1.451-.276 1.135-1.016 1.648-1.612 3.955-4.597 3.14-4.061 3.454-4.292 5.846-4.294 2.75-.002 5.655 1.035 8.68 3.099 1.591 1.084 1.833 1.275 6.058 4.785 3.635 3.02 5.075 4.042 5.458 3.87.134-.06.727-.278 1.317-.484z" fill="#27251d" stroke-width=".43932621" stroke="#27251d" stroke-linecap="round" stroke-linejoin="round"/></svg>