<svg xmlns="http://www.w3.org/2000/svg" viewBox="0 0 202.3 141.6"><path d="M.3-79.2H202c27.1 0 49.1 22 49.1 49.1v201.7c0 27.1-22 49.1-49.1 49.1H.3c-27.1 0-49.1-22-49.1-49.1V-30.1C-48.9-57.2-26.9-79.2.3-79.2z" fill="none"/><path fill="#fff" d="M79.8 30.8v80l55-40"/><path d="M101.135.534s-63.158 0-79.095 4.131C13.776 7.026 6.693 14.11 4.332 22.373.2 38.31.2 71.365.2 71.365s0 33.054 4.132 48.401c2.361 8.854 9.444 15.347 17.708 17.708 15.937 4.132 79.095 4.132 79.095 4.132s63.158 0 79.095-4.132c8.854-2.361 15.346-8.854 17.708-17.708 4.131-15.937 4.131-48.401 4.131-48.401s0-33.055-4.131-48.992c-2.362-8.854-8.854-15.347-17.708-17.708C164.293.534 101.135.534 101.135.534zM81.066 41.26l52.533 30.104-52.533 30.103V41.261z" fill="red"/></svg>