<?xml version="1.0" encoding="utf-8"?>
<!-- Generator: Adobe Illustrator 23.0.3, SVG Export Plug-In . SVG Version: 6.00 Build 0)  -->
<svg version="1.1"
	 id="Layer_1" inkscape:version="0.91 r13725" sodipodi:docname="synergia_merkki.svg" xmlns:cc="http://creativecommons.org/ns#" xmlns:dc="http://purl.org/dc/elements/1.1/" xmlns:inkscape="http://www.inkscape.org/namespaces/inkscape" xmlns:rdf="http://www.w3.org/1999/02/22-rdf-syntax-ns#" xmlns:sodipodi="http://sodipodi.sourceforge.net/DTD/sodipodi-0.dtd" xmlns:svg="http://www.w3.org/2000/svg"
	 xmlns="http://www.w3.org/2000/svg" xmlns:xlink="http://www.w3.org/1999/xlink" x="0px" y="0px" viewBox="0 0 185 185"
	 style="enable-background:new 0 0 185 185;" xml:space="preserve">
<style type="text/css">
	.st0{fill-rule:evenodd;clip-rule:evenodd;fill:#FFFFFF;stroke:#004BB7;stroke-width:4.332;stroke-linecap:round;}
	.st1{fill:#FFFFFF;stroke:#FFFFFF;stroke-width:4.332;stroke-linecap:round;}
</style>
<sodipodi:namedview  bordercolor="#666666" borderopacity="1" gridtolerance="10" guidetolerance="10" id="namedview31" inkscape:current-layer="Layer_1" inkscape:cx="122.97728" inkscape:cy="97.759267" inkscape:pageopacity="0" inkscape:pageshadow="2" inkscape:window-height="715" inkscape:window-maximized="1" inkscape:window-width="1366" inkscape:window-x="-8" inkscape:window-y="-8" inkscape:zoom="3.5569693" objecttolerance="10" pagecolor="#adadad" showgrid="false">
	</sodipodi:namedview>
<path class="st0" d="M181.9,97.8c0.1-1.8,0.2-3.6,0.3-5.3c0-3.9-0.3-7.8-0.9-11.7c-7.8-0.5-14.2-1-20.5-1.5
	c-0.9-4.9-2.4-9.7-4.4-14.2c5-4,10.1-7.9,16.3-12.8c-2.6-5.1-5.6-9.9-9.1-14.4c-7.1,3.5-12.8,6.3-18.6,9c-3.3-3.8-6.9-7.1-10.9-10.1
	c2.4-5.9,4.8-11.9,7.7-19.2c-4.7-3.1-9.8-5.8-15-8c-4.4,6.5-8,11.8-11.6,17.1c-4.7-1.6-9.5-2.8-14.5-3.4c-0.9-6.3-1.8-12.6-2.9-20.4
	c-1.8-0.1-3.6-0.2-5.3-0.3c-3.9,0-7.8,0.3-11.7,0.9c-0.5,7.8-1,14.2-1.5,20.5c-4.9,0.9-9.7,2.4-14.2,4.4c-4-5-7.9-10.1-12.8-16.3
	c-5.1,2.6-9.9,5.6-14.4,9.1c3.5,7.1,6.3,12.8,9,18.6c-3.8,3.3-7.1,6.9-10.1,10.9C31,48.5,25,46.1,17.7,43.2c-3.1,4.7-5.8,9.8-8,15
	c6.5,4.4,11.9,8,17.2,11.6c-1.6,4.7-2.8,9.5-3.4,14.5c-6.3,0.9-12.6,1.8-20.4,2.9c-0.1,1.8-0.2,3.6-0.3,5.3c0,3.9,0.3,7.8,0.9,11.7
	c7.8,0.5,14.2,1,20.5,1.5c0.9,4.9,2.4,9.6,4.4,14.2c-5,4-10.1,7.9-16.3,12.8c2.6,5.1,5.6,9.9,9.1,14.4c7.1-3.5,12.8-6.3,18.6-9
	c3.3,3.8,6.9,7.1,10.9,10.1c-2.4,5.9-4.8,11.9-7.7,19.2c4.7,3.1,9.8,5.8,15,8c4.4-6.5,8-11.8,11.6-17.1c4.7,1.6,9.5,2.8,14.5,3.4
	c0.9,6.3,1.8,12.6,2.9,20.4c1.8,0.1,3.6,0.2,5.3,0.3c3.9,0,7.8-0.3,11.7-0.9c0.5-7.8,1-14.2,1.5-20.5c4.9-0.9,9.6-2.4,14.2-4.4
	c4,5,7.9,10.1,12.8,16.3c5.1-2.5,9.9-5.6,14.4-9c-3.5-7.1-6.3-12.8-9-18.6c3.8-3.3,7.1-6.9,10.1-10.9c5.9,2.4,11.9,4.8,19.2,7.7
	c3.1-4.7,5.8-9.8,8-15c-6.5-4.4-11.8-8-17.1-11.6c1.6-4.7,2.8-9.5,3.4-14.5C167.8,99.8,174.1,99,181.9,97.8z M92.1,148
	c-30.6,0-55.4-24.8-55.4-55.4c0-30.6,24.8-55.4,55.4-55.4s55.4,24.8,55.4,55.4C147.5,123.2,122.7,148,92.1,148z"/>
<path class="st1" d="M181.9,97.8c0.1-1.8,0.2-3.6,0.3-5.3c0-3.9-0.3-7.8-0.9-11.7c-7.8-0.5-14.2-1-20.5-1.5
	c-0.9-4.9-2.4-9.7-4.4-14.2c5-4,10.1-7.9,16.3-12.8c-2.6-5.1-5.6-9.9-9.1-14.4c-7.1,3.5-12.8,6.3-18.6,9c-3.3-3.8-6.9-7.1-10.9-10.1
	c2.4-5.9,4.8-11.9,7.7-19.2c-4.7-3.1-9.8-5.8-15-8c-4.4,6.5-8,11.8-11.6,17.1c-4.7-1.6-9.5-2.8-14.5-3.4c-0.9-6.3-1.8-12.6-2.9-20.4
	c-1.8-0.1-3.6-0.2-5.3-0.3c-3.9,0-7.8,0.3-11.7,0.9c-0.5,7.8-1,14.2-1.5,20.5c-4.9,0.9-9.7,2.4-14.2,4.4c-4-5-7.9-10.1-12.8-16.3
	c-5.1,2.6-9.9,5.6-14.4,9.1c3.5,7.1,6.3,12.8,9,18.6c-3.8,3.3-7.1,6.9-10.1,10.9C31,48.5,25,46.1,17.7,43.2c-3.1,4.7-5.8,9.8-8,15
	c6.5,4.4,11.9,8,17.2,11.6c-1.6,4.7-2.8,9.5-3.4,14.5c-6.3,0.9-12.6,1.8-20.4,2.9c-0.1,1.8-0.2,3.6-0.3,5.3c0,3.9,0.3,7.8,0.9,11.7
	c7.8,0.5,14.2,1,20.5,1.5c0.9,4.9,2.4,9.6,4.4,14.2c-5,4-10.1,7.9-16.3,12.8c2.6,5.1,5.6,9.9,9.1,14.4c7.1-3.5,12.8-6.3,18.6-9
	c3.3,3.8,6.9,7.1,10.9,10.1c-2.4,5.9-4.8,11.9-7.7,19.2c4.7,3.1,9.8,5.8,15,8c4.4-6.5,8-11.8,11.6-17.1c4.7,1.6,9.5,2.8,14.5,3.4
	c0.9,6.3,1.8,12.6,2.9,20.4c1.8,0.1,3.6,0.2,5.3,0.3c3.9,0,7.8-0.3,11.7-0.9c0.5-7.8,1-14.2,1.5-20.5c4.9-0.9,9.6-2.4,14.2-4.4
	c4,5,7.9,10.1,12.8,16.3c5.1-2.5,9.9-5.6,14.4-9c-3.5-7.1-6.3-12.8-9-18.6c3.8-3.3,7.1-6.9,10.1-10.9c5.9,2.4,11.9,4.8,19.2,7.7
	c3.1-4.7,5.8-9.8,8-15c-6.5-4.4-11.8-8-17.1-11.6c1.6-4.7,2.8-9.5,3.4-14.5C167.8,99.8,174.1,99,181.9,97.8z M92.1,148
	c-30.6,0-55.4-24.8-55.4-55.4c0-30.6,24.8-55.4,55.4-55.4s55.4,24.8,55.4,55.4C147.5,123.2,122.7,148,92.1,148z"/>
</svg>
