<svg xmlns="http://www.w3.org/2000/svg" xmlns:xlink="http://www.w3.org/1999/xlink" viewBox="0 0 219.3 85.5"><defs><path id="a" d="M27.3 22.3h161v40h-161z"/></defs><defs><path id="c" d="M28.3 43.3l.1-6.6c1.4-.7 4.8-2.4 10.4-2.4 7.7 0 10.1 4 10.1 10.3 0 4.3-.2 8.6-.2 12.9h3.5v4.2H44c0-1.7.1-3.7.5-5.6h-.1c-1.2 3-3.3 6.2-8.7 6.2-6.4 0-8.4-4.2-8.4-7.6 0-7.1 7-8 11.2-8.2l5.4-.4V44c0-3.3-1.2-5.6-5.8-5.6-2 0-3.9.6-4.7 1v3.9h-5.1zm4.9 10.8c0 2.1 1.4 3.6 4.1 3.6 4.4 0 6.7-3.4 6.7-6.8v-1.1c-5.7.1-10.8.3-10.8 4.3z"/></defs><clipPath id="b"><use xlink:href="#a" overflow="visible"/></clipPath><clipPath id="d" clip-path="url(#b)"><use xlink:href="#c" overflow="visible"/></clipPath><path clip-path="url(#d)" fill="#fff" d="M22.2 29.2h35v38h-35z"/><defs><path id="e" d="M27.3 22.3h161v40h-161z"/></defs><defs><path id="g" d="M56 61.3h12.4v-4.2h-3.6l.2-10c.1-4.9 3.1-8 7-8 3.6 0 5.4 2.7 5.4 6.4 0 3.8-.1 7.7-.2 11.5H74v4.2h12.3V57h-3.5c0-4.2.2-8.4.2-12.6 0-6.3-3-10.2-9.3-10.2-5.3 0-8.3 3.1-9.4 6.4h-.1c.4-2.3.5-4 .5-5.8h-9.5V39H59l-.1 18H56v4.3z"/></defs><clipPath id="f"><use xlink:href="#e" overflow="visible"/></clipPath><clipPath id="h" clip-path="url(#f)"><use xlink:href="#g" overflow="visible"/></clipPath><path clip-path="url(#h)" fill="#fff" d="M50.3 29.2h41v37h-41z"/><g><defs><path id="i" d="M27.3 22.3h161v40h-161z"/></defs><defs><path id="k" d="M115.2 57.4v4.2h-8.8c0-1.9.2-3.9.5-5.4h-.1c-1.4 3.6-4.2 6-8.7 6-6.2 0-10.8-4.7-10.8-12.7 0-8.8 5.2-15.2 14-15.2 1.9 0 3.6.2 5.2.6l.1-8.6h-4.7v-4.2H112l-.2 35.2h3.4v.1zm-8-9.9v-7.2c-1.2-.7-2.9-1.1-4.9-1.1-5.2 0-8.1 4.6-8.1 9.6 0 4.8 2.1 8.4 6.3 8.4 4.5 0 6.7-3.7 6.7-9.7z"/></defs><clipPath id="j"><use xlink:href="#i" overflow="visible"/></clipPath><clipPath id="l" clip-path="url(#j)"><use xlink:href="#k" overflow="visible"/></clipPath><path clip-path="url(#l)" fill="#fff" d="M82.2 17.2h38v50h-38z"/></g><g><defs><path id="m" d="M27.3 22.3h161v40h-161z"/></defs><defs><path id="o" d="M140.9 55.6l-.4 4.8c-1.8.7-5.4 1.8-9.3 1.8-8.9-.1-14-5.6-14-13.9 0-8 4.5-14.1 13-14.1 7.9 0 12 5.8 12 14.1v.7h-18.9c.1 5.2 3.8 8.6 9.1 8.6 3.4.1 6.3-.8 8.5-2zm-17.3-10.4h12.9v-.5c0-2.2-1.4-6.3-6.2-6.3-4.9 0-6.5 3.5-6.7 6.8z"/></defs><clipPath id="n"><use xlink:href="#m" overflow="visible"/></clipPath><clipPath id="p" clip-path="url(#n)"><use xlink:href="#o" overflow="visible"/></clipPath><path clip-path="url(#p)" fill="#fff" d="M112.2 29.2h35v38h-35z"/></g><g><defs><path id="q" d="M27.3 22.3h161v40h-161z"/></defs><defs><path id="s" d="M145 61.3h12.7v-4.2h-3.8l.1-8.2c0-4.7 2.1-9.4 7.1-9.4 1.2 0 1.9.1 2.6.4l.6-5c-.5-.2-1.8-.5-3.2-.5-3.8 0-6.6 3-7.7 7.9l-.1-.1c.4-2.6.4-5.4.4-7.3h-9.3v4.2h4l-.1 18H145v4.2z"/></defs><clipPath id="r"><use xlink:href="#q" overflow="visible"/></clipPath><clipPath id="t" clip-path="url(#r)"><use xlink:href="#s" overflow="visible"/></clipPath><path clip-path="url(#t)" fill="#fff" d="M139.2 29.2h30v37h-30z"/></g><g><defs><path id="u" d="M27.3 22.3h161v40h-161z"/></defs><defs><path id="w" d="M187 42.5l-.1-6.5c-1.6-.5-5-1.7-9.3-1.7-5.9 0-11.4 2.2-11.4 8.5 0 5.1 4.5 6.7 8.6 7.4l4.2.7c2.2.4 3.9 1.1 3.9 3.4 0 2.8-2.7 3.8-5.4 3.8-2.9 0-4.7-.7-5.7-1.1l-.1-3.5h-5.2l.1 7.3c1.7.6 5.2 1.6 9.7 1.6 5.9 0 12-1.8 12-9 0-5.5-3.5-6.8-6.5-7.4l-6.5-1.3c-1.7-.4-3.4-1-3.4-3 0-2.7 2.8-3.3 5.4-3.3 2.3 0 3.5.4 4.4.8l.1 3.2h5.3v.1h-.1z"/></defs><clipPath id="v"><use xlink:href="#u" overflow="visible"/></clipPath><clipPath id="x" clip-path="url(#v)"><use xlink:href="#w" overflow="visible"/></clipPath><path clip-path="url(#x)" fill="#fff" d="M161.2 29.2h32v38h-32z"/></g></svg>