<?xml version="1.0" encoding="utf-8"?>
<!-- Generator: Adobe Illustrator 22.1.0, SVG Export Plug-In . SVG Version: 6.00 Build 0)  -->
<!DOCTYPE svg PUBLIC "-//W3C//DTD SVG 1.1//EN" "http://www.w3.org/Graphics/SVG/1.1/DTD/svg11.dtd">
<svg version="1.1" id="Layer_1" xmlns="http://www.w3.org/2000/svg" xmlns:xlink="http://www.w3.org/1999/xlink" x="0px" y="0px"
	 viewBox="0 0 595.3 420.9" style="enable-background:new 0 0 595.3 420.9;" xml:space="preserve">
<style type="text/css">
	.st0{fill:#ED1A37;}
	.st1{fill:#FFFFFF;}
	.st2{fill:#808285;}
</style>
<g>
	<g>
		<path class="st0" d="M267.8,83.2c3,1,1.1,9.9-1.6,19.4c-0.1,5.6-4.7,17.5-5.5,23.5c-6.1,18.4-11.5,34.2-18.6,50
			c-7.2,14.1-14.9,27.2-24.9,38.7c-5,5.7-10.7,11-17.4,15.2c-6.7,4.2-14.8,7-23.2,7.1c-2.1,0-4.2-0.1-6.2-0.4c-1-0.1-2-0.3-3.1-0.6
			l-1.4-0.3l-1.4-0.4c-3.8-1.1-7.4-2.5-10.8-4c-6.9-3.1-13.3-6.8-19.8-10.6c-6.4-3.8-12.8-7.8-19.3-11.5c-3.3-1.9-6.6-3.6-10-5.2
			c-3.3-1.5-6.8-2.8-9.9-3.1c-1.5-0.1-2.8,0.1-3.8,0.4c-1,0.4-1.7,0.9-2.4,1.9c-1.6,2.2-2.8,5.8-3.1,9.6c-0.7,7.8,1.1,16.9,4.5,25.9
			c1.3,3.6,2.5,5.3,2.6,6.3c2.9,6.3,6.1,11.6,9.4,16.4c3.3,4.8,6.6,9,10.1,13c7,8,14.6,15.2,25.3,23.3c1.1,0.9,1.6,1.4,3.7,2.9
			c2.3,1.7,1.5,1,3.9,2.7c0.5,0.4-0.5-0.2-0.1,0.1c0.5,0.4,5.4,3.4,8,5.1c2.3,1.5,2.3,1.5-0.1,0.1c2.5,1.5,4.2,2.5,4.1,2.4
			c2.7,1.5,3.2,1.9,6.2,3.4c6.6,3.4,5.6,2.8,2.1,1.2c-5.7-2.7-11.9-5.7-18.7-9.4c-6.8-3.8-14.4-8.2-22.8-14.3
			c-7.7-5.7-11.6-9.3-15-12.5c-3.5-3.3-6.5-6.2-11.6-12.1c-3.4-4.1-4.6-5.8-5.6-7.3c-1-1.5-2-2.8-4.4-6.7
			c-6-9.5-10.4-19.4-12.2-30.2c-0.8-5.4-1-11,0.2-16.8c0.7-2.9,1.7-5.8,3.5-8.6c1.7-2.9,4.9-5.8,8.6-7c3.7-1.3,7.2-1.1,10.2-0.7
			c3.1,0.5,5.8,1.4,8.5,2.4c5.3,2,10.1,4.6,14.9,7.3c9.6,5.5,19,11.8,29.7,17.5c7.3,3.5,14.4,6.6,21,7.7c6.6,1.1,13.3,0,19.6-3.2
			c6.4-3.2,12.3-8.1,17.7-14.3c5.5-6.2,10.5-13.5,15.1-21.9c6.7-9.1,9.2-17.8,15.4-29.1c2.6-6.5,4.9-11.5,7.1-16.8
			c2.2-5.3,4.5-10.9,6.5-18.5c2.7-5.8,5.2-13.2,7.6-20.2C262.9,94,265.3,87.5,267.8,83.2z"/>
	</g>
	<path class="st1" d="M177.9,216.2c4.2-2.9,8.5-5.6,12.9-8.2c4.4-2.6,8.9-5,13.5-7.2c9.2-4.5,18.7-8.5,29-11.2
		c5.2-1.3,10.5-2.4,16.4-2.3c3,0.1,6.2,0.4,9.6,1.9c1.7,0.7,3.4,1.8,4.9,3.3c1.5,1.5,2.7,3.3,3.5,5.2c1.6,3.8,1.6,7.4,1.3,10.5
		c-0.3,3.2-1.1,6-1.9,8.7c-1.8,5.2-3.8,10-6.1,14.8c-9.3,18.9-22.1,35.4-36.4,50.2c-7.2,7.3-14.8,14.3-23,20.5
		c-4.1,3.1-8.3,6.1-12.7,8.8c-2.2,1.3-4.5,2.6-6.8,3.7c-1.2,0.5-2.4,1-3.6,1.4c-0.6,0.2-1.3,0.4-1.9,0.4c-0.6,0.1-1.4,0.1-1.9-0.4
		c0.6,0.3,1.2,0.1,1.8-0.2c0.6-0.2,1.1-0.5,1.6-0.8c1.1-0.6,2.1-1.4,3-2.2c2-1.5,3.8-3.2,5.6-4.9c3.6-3.4,7.1-7,10.6-10.7
		c6.8-7.3,13.3-14.8,19.6-22.6c12.4-15.5,23.8-31.8,32.3-49.1c2.1-4.3,4.1-8.8,5.6-13.1c0.7-2.1,1.3-4.1,1.6-6
		c0.3-1.9,0.1-3.5-0.2-4.4c-0.3-0.9-0.7-1.4-1.9-2.1c-1.2-0.6-3.1-1.1-5.1-1.3c-4.2-0.4-8.9,0.1-13.6,0.8
		c-9.5,1.5-19.1,4.2-28.7,7.1C197.1,209.7,187.6,212.9,177.9,216.2z"/>
	<g>
		<g>
			<path class="st1" d="M291.7,191.2c0-9.7-0.5-12.1-6.4-12.7l-4.2-0.4c-1-0.8-0.9-2.7,0.1-3.3c7.1-0.7,15.9-1,28.1-1
				c8.2,0,16.1,0.7,21.9,3.7c5.6,2.7,9.9,8,9.9,16.3c0,9.4-5.5,14.2-13.3,17.9c0,1.3,1,1.7,2.5,2c7.1,1.3,17.5,7.8,17.5,21.8
				c0,15.1-11.2,25.3-34.7,25.3c-3.8,0-10.2-0.4-15.7-0.4c-5.7,0-10.2,0.3-15,0.4c-0.8-0.4-1-2.5-0.3-3.3l2.4-0.4
				c6.9-1.2,7.2-2.6,7.2-16.3V191.2z M302.4,208.6c0,3.7,0.1,3.9,6.8,3.7c13.3-0.5,20.5-4.4,20.5-16.7c0-12.8-9.5-17.6-19.5-17.6
				c-2.9,0-4.8,0.3-6,0.8c-1.3,0.4-1.8,1-1.8,3.4V208.6z M302.4,238.9c0,4.7,0.3,11.4,2.7,14.2c2.5,3,6.4,3.7,10.3,3.7
				c11.6,0,20.5-5.2,20.5-18.3c0-10.3-5.2-22.3-26-22.3c-7.1,0-7.6,0.8-7.6,3.4V238.9z"/>
			<path class="st1" d="M376.1,183.3c9.5-7.4,21.7-11.1,35.3-11.1c7.1,0,17,1.4,23.1,3.1c1.6,0.4,2.5,0.7,3.7,0.5
				c0.1,3,0.8,11.2,1.8,19.2c-0.7,0.9-2.6,1-3.5,0.3c-2-8.9-7.8-19.1-26.8-19.1c-20,0-37,12.7-37,39.7c0,27.4,17.4,42.6,38.8,42.6
				c16.8,0,24.3-11,27.3-18.7c0.9-0.7,2.9-0.4,3.4,0.5c-0.9,6.8-4.3,15.4-6.3,17.9c-1.6,0.3-3.1,0.8-4.6,1.3c-2.9,1-12.3,3-20.6,3
				c-11.8,0-23-2.4-32.5-8.8c-10.4-7.2-18.5-19.1-18.5-35.9C359.7,203.4,366.2,191,376.1,183.3z"/>
			<path class="st1" d="M461.5,191.2c0-9.7-0.5-12.1-6.4-12.7l-4.2-0.4c-1-0.8-0.9-2.7,0.1-3.3c7.1-0.7,15.9-1,28.1-1
				c8.2,0,16.1,0.7,21.9,3.7c5.6,2.7,9.9,8,9.9,16.3c0,9.4-5.5,14.2-13.3,17.9c0,1.3,1,1.7,2.5,2c7.1,1.3,17.5,7.8,17.5,21.8
				c0,15.1-11.2,25.3-34.7,25.3c-3.8,0-10.2-0.4-15.7-0.4c-5.7,0-10.2,0.3-15,0.4c-0.8-0.4-1-2.5-0.3-3.3l2.4-0.4
				c6.9-1.2,7.2-2.6,7.2-16.3V191.2z M472.3,208.6c0,3.7,0.1,3.9,6.8,3.7c13.3-0.5,20.5-4.4,20.5-16.7c0-12.8-9.5-17.6-19.5-17.6
				c-2.9,0-4.8,0.3-6,0.8c-1.3,0.4-1.8,1-1.8,3.4V208.6z M472.3,238.9c0,4.7,0.3,11.4,2.7,14.2c2.5,3,6.4,3.7,10.3,3.7
				c11.6,0,20.5-5.2,20.5-18.3c0-10.3-5.2-22.3-26-22.3c-7,0-7.6,0.8-7.6,3.4V238.9z"/>
		</g>
		<g>
			<path class="st1" d="M323.4,300.5c0-4.3-1.9-6.5-5.8-6.5c-2.4,0-4.3,1.1-5.2,2.2c-0.8,0.9-0.9,1.6-0.9,3.8v9.6
				c0,4.5,0.1,5.2,2.4,5.5l1.3,0.2c0.4,0.3,0.3,1.4-0.1,1.6c-1.9-0.1-3.7-0.2-5.9-0.2c-2.3,0-4,0.1-5.7,0.2
				c-0.4-0.2-0.6-1.3-0.1-1.6l1.1-0.2c2.3-0.4,2.4-0.9,2.4-5.5v-9.1c0-4.2-1.9-6.5-5.8-6.5c-2.6,0-4.3,1.1-5.3,2.3
				c-0.6,0.8-0.9,1.6-0.9,3.6v9.7c0,4.5,0.1,5.1,2.4,5.5l1.1,0.2c0.4,0.3,0.3,1.4-0.1,1.6c-1.7-0.1-3.5-0.2-5.7-0.2
				c-2.3,0-4.1,0.1-6.1,0.2c-0.4-0.2-0.6-1.3-0.1-1.6l1.5-0.2c2.3-0.3,2.4-0.9,2.4-5.5v-11c0-2.5,0-2.8-1.7-3.9l-0.6-0.4
				c-0.3-0.2-0.3-0.9,0.1-1.1c1.4-0.5,5-2.1,6.3-3.1c0.3,0,0.6,0.1,0.7,0.4c-0.1,1.4-0.1,2.4-0.1,2.9c0,0.4,0.3,0.7,0.7,0.7
				c2.4-1.7,5.3-3.2,8.4-3.2c3.1,0,4.9,1.1,6.7,3.7c0.6,0.1,1-0.1,1.6-0.5c2.5-1.8,5.6-3.2,8.5-3.2c5,0,7.5,3.5,7.5,7.8v10.8
				c0,4.5,0.1,5.2,2.4,5.5l1.5,0.2c0.4,0.3,0.3,1.4-0.1,1.6c-2.1-0.1-3.9-0.2-6.1-0.2c-2.3,0-4,0.1-5.7,0.2
				c-0.4-0.2-0.6-1.3-0.1-1.6l1.1-0.2c2.3-0.4,2.4-0.9,2.4-5.5V300.5z"/>
			<path class="st1" d="M348.5,300.6c-1.6,0-1.7,0.1-1.7,1.7c0,6.3,3.7,11.8,10.4,11.8c2.1,0,3.8-0.6,5.8-3.1
				c0.6-0.2,1.1,0.2,1.1,0.8c-2.1,4.3-6.6,5.8-9.9,5.8c-4.1,0-7.3-1.8-9.1-4.1c-1.9-2.5-2.6-5.4-2.6-8.2c0-7.7,5.1-14.2,12.6-14.2
				c5.4,0,8.9,3.7,8.9,7.5c0,0.9-0.1,1.4-0.3,1.6c-0.2,0.4-1.1,0.4-3.7,0.4H348.5z M352.4,298.7c4.6,0,6-0.3,6.5-0.6
				c0.2-0.1,0.4-0.4,0.4-1.2c0-1.8-1.2-4-4.8-4c-3.7,0-6.9,3.4-7,5.5c0,0.1,0,0.3,0.4,0.3H352.4z"/>
			<path class="st1" d="M398.8,307.5c0,5,0.1,7.3,1.8,7.3c0.7,0,1.8-0.3,2.7-0.6c0.4,0.1,0.5,1.7-0.1,2c-2.6,0.4-6.5,1.3-8.3,2
				c-0.4,0-0.7-0.2-0.7-0.5v-1.1c0-0.9,0-1.7-0.1-1.9h-0.2c-2.8,1.9-4.9,2.9-7.9,2.9c-7,0-11.6-5.5-11.6-12.1
				c0-8.8,6.7-14.5,15.2-14.5c2.1,0,3.5,0.3,4.2,0.6c0.3,0,0.4-0.4,0.4-0.9v-9.5c0-3.7-0.1-4.1-1.9-5.2l-0.6-0.4
				c-0.3-0.2-0.3-1.1,0-1.3c1.6-0.5,4.5-1.4,6.8-2.6c0.3,0,0.5,0.1,0.6,0.4c-0.1,1.9-0.2,5-0.2,7.8V307.5z M394.1,298.1
				c0-1.3-0.2-1.8-0.7-2.4c-0.9-1.3-2.8-2.6-5.3-2.6c-5.7,0-8.7,5-8.7,10.4c0,5.7,3.2,11.1,9.4,11.1c1.7,0,3.8-0.8,4.8-1.8
				c0.4-0.4,0.4-1.3,0.4-2.3V298.1z"/>
			<path class="st1" d="M417.2,298.6c0-2.5,0-2.8-1.7-3.9l-0.6-0.4c-0.3-0.2-0.3-0.9,0.1-1.1c1.4-0.5,5-2.1,6.5-3.1
				c0.3,0,0.6,0.1,0.6,0.4c-0.1,2.2-0.3,5.2-0.3,7.8v11.3c0,4.5,0.1,5.2,2.4,5.5l1.3,0.2c0.4,0.3,0.3,1.4-0.1,1.6
				c-1.9-0.1-3.7-0.2-5.9-0.2c-2.3,0-4.1,0.1-5.9,0.2c-0.4-0.2-0.6-1.3-0.1-1.6l1.3-0.2c2.3-0.3,2.4-0.9,2.4-5.5V298.6z
				 M422.4,280.7c0,2.3-1.6,3.3-3.3,3.3c-1.9,0-3.2-1.4-3.2-3.1c0-2.1,1.5-3.4,3.4-3.4C421.1,277.4,422.4,279,422.4,280.7z"/>
			<path class="st1" d="M457.1,292.1c0.5,0.4,0.9,1.4,0.9,2.5c0,1.1-0.6,2.3-1.4,2.3c-0.3,0-0.6-0.1-0.9-0.4
				c-1.4-1.7-3.7-3.3-6.3-3.3c-4.4,0-8.7,3.5-8.7,10.1c0,4.9,3.4,10.7,10.1,10.7c3.6,0,5.5-1.6,7-3.8c0.5-0.1,1.1,0.3,1.1,0.9
				c-2.1,4.6-6.8,6.4-10.5,6.4c-3.3,0-6.4-1.1-8.6-3.2c-2.2-2.1-3.6-5.2-3.6-9.3c0-6.8,4.8-14,15.2-14
				C453,291,455.5,291.3,457.1,292.1z"/>
			<path class="st1" d="M481,303.6c0.9-0.3,1.1-0.9,1.1-1.8l0.1-2.9c0.1-2.3-0.7-5.5-4.6-5.5c-1.8,0-3.9,0.9-4,2.8
				c-0.1,1-0.1,1.8-0.6,2.1c-0.9,0.8-2.6,1.2-3.6,1.2c-0.6,0-0.9-0.3-0.9-0.9c0-3.3,7.1-7.7,11.7-7.7c4.5,0,6.7,2.6,6.5,7.4
				l-0.4,10.9c-0.1,2.9,0.4,5.5,2.9,5.5c0.6,0,1.2-0.2,1.6-0.4c0.3-0.2,0.6-0.4,0.8-0.4c0.3,0,0.4,0.4,0.4,0.8
				c0,0.3-2.2,2.8-5.3,2.8c-1.5,0-3-0.6-4.1-1.9c-0.2-0.4-0.6-0.9-1-0.9c-0.4,0-1.2,0.6-2.5,1.3c-1.4,0.8-2.8,1.6-4.5,1.6
				c-1.8,0-3.3-0.5-4.4-1.4c-1.2-1.1-1.9-2.6-1.9-4.4c0-2.5,1.2-3.9,5.2-5.3L481,303.6z M477.1,314.7c1.3,0,3.2-0.9,3.8-1.6
				c0.8-0.8,0.8-1.6,0.8-3l0.1-3.7c0-0.7-0.2-0.8-0.6-0.8c-0.4,0-1.4,0.3-2.6,0.6c-3.7,1.3-5.5,2.2-5.5,4.6
				C473.2,312,473.9,314.7,477.1,314.7z"/>
			<path class="st1" d="M508.6,309.6c0,4.5,0.1,5.2,2.4,5.5l1.5,0.2c0.4,0.3,0.3,1.4-0.1,1.6c-2.1-0.1-3.9-0.2-6.1-0.2
				c-2.3,0-4.1,0.1-6,0.2c-0.4-0.2-0.6-1.3-0.1-1.6l1.4-0.2c2.3-0.3,2.4-0.9,2.4-5.5v-28.4c0-3.7-0.1-4.1-1.9-5.2l-0.6-0.4
				c-0.3-0.2-0.3-1.1,0-1.3c1.6-0.5,4.5-1.4,6.8-2.6c0.2,0,0.5,0.1,0.6,0.4c-0.1,1.9-0.2,5-0.2,7.8V309.6z"/>
		</g>
	</g>
	<g>
		<path class="st2" d="M171,219.3c-0.2-1.1,8.7-6.1,18.7-11c2.6-1.6,7.2-3.8,12-5.9l12.7-5.5c5.1-2,10.1-3.7,15.2-5.1
			c5-1.4,10.1-2.5,15.4-2.7c2.6-0.1,5.4,0.1,8.2,0.9c1.4,0.4,2.8,1.1,4.1,2.1c1.3,1,2.4,2.3,3.2,3.8c1.5,2.9,1.7,6,1.5,8.7
			c-0.2,2.7-0.8,5.3-1.5,7.7c-2.9,8.7-6.7,16.4-10.7,23.9c-4.1,7.4-8.5,14.5-13.2,21.2c-9.4,13.4-19.6,25.7-30.8,37.3
			c-5.6,5.8-11.5,11.4-18.1,16.6c-1.7,1.3-3.4,2.6-5.2,3.8c-0.9,0.6-1.9,1.2-3,1.7c-0.6,0.3-1.2,0.5-1.9,0.8
			c-0.7,0.2-1.5,0.5-2.9,0.5c-0.7,0-1.7-0.2-2.8-0.9c-0.2-0.2,0.2,0.2-0.5-0.4l0,0l-0.1-0.1l-0.1-0.1c0,0-0.2-0.2-0.3-0.4
			c-0.2-0.3-0.4-0.6-0.6-0.9c-0.1-0.2-0.2-0.4-0.3-0.7c-0.5-1.8-0.3-2.7-0.1-3.6c0.4-1.6,0.8-2.7,1.3-3.8c1-2.1,2.1-4,3.2-5.9
			c4.6-7.3,9.5-14.3,14.5-21.5c5-7.2,10.2-14.6,15.4-22.2c9.6-15.2,20.5-32.7,31.5-52.8c2.3-3.9,2.9-6.2,3.8-7
			c7.6-14.3,12.9-25.6,17.6-36.7c4.6-11.1,8.7-22.1,12.4-36.6c0.7-1.5,1.1-2.2,1.9-5c0.8-3.1,0.2-2,1-5.2c0.2-0.7,0.4,0.7,0.5,0.1
			c0.2-0.7,0.6-7.1,1.6-10.4c0.8-3,1-3,1.1,0.1c0.7-3.2,0.8-5.4,0.3-5.3c0.4-3.5,0.8-4.1,1.1-7.9c1.9-8.2,3.7-7.9,4.6-2.1
			c1.1,14.6,1,31.3-5.3,54.2c-3.2,10.5-5.4,16-7.3,21.1c-2,5-3.8,9.5-7.3,17.4c-5.3,10.8-3.9,8.1-8.7,17.1
			c-11.4,22-23.4,40.3-36.7,58.7c-6.6,9.2-13.6,18.4-21,28.2c-3.7,4.9-7.5,9.9-11.2,15.1c-1.9,2.6-3.7,5.3-5.3,8
			c-0.8,1.3-1.5,2.8-1.7,3.7c-0.1,0.2,0,0.3-0.1-0.1c-0.1-0.1-0.1-0.5-0.6-1.1c-0.1-0.1,0,0,0,0.1l0.1,0.1l0,0
			c-0.6-0.5-0.2-0.2-0.4-0.3c-0.2-0.2-0.4-0.3-0.6-0.3c-0.7-0.2-0.6,0-0.5-0.1c0.2,0,0.4-0.1,0.7-0.2c1.7-0.7,3.6-2,5.4-3.2
			c1.8-1.3,3.6-2.7,5.3-4.1c3.5-2.8,6.8-5.8,10-8.8c6.4-6,12.5-12.3,18.5-18.9c5.9-6.6,11.7-13.7,17.4-21.5
			c5.6-7.8,11.1-16.4,16.1-26.3c3.1-5.5,5.5-10.8,7.4-16.4c0.9-2.8,1.7-5.7,1.7-8.7c0.1-3-0.7-6.1-3.5-8c-3.2-1.9-6.9-1.9-10.1-1.9
			c-3.3,0.1-6.5,0.6-9.7,1.3c-6.4,1.3-12.9,3.3-21.2,6.7C199.5,205.5,180.7,215,171,219.3z"/>
	</g>
	<path class="st0" d="M173.9,236.6c-4.9-0.3-9.8-1.4-14.6-2.8c-4.8-1.4-9.4-3.3-13.9-5.2c-9-3.9-17.7-8.4-26.1-11.9
		c-4.2-1.7-8.3-3.1-11.9-3.5c-1.8-0.2-3.3-0.1-4.6,0.1c-1.3,0.3-2.2,0.7-3.2,1.5c-0.9,0.7-1.6,1.5-2.1,2.5c-0.5,1-0.8,2.2-1,3.7
		c-0.3,2.9,0.2,6.7,1.5,10.5c1.2,3.8,2.9,7.8,5,11.6c2,3.9,4.4,7.6,7,11.4c5.1,7.5,11,14.6,17.3,21.6c12.5,14,26.5,27.1,40.6,40.8
		c-18.2-7.5-35.1-17.8-50.4-30.7c-7.6-6.4-14.8-13.6-21.1-21.6c-6.3-8.1-12-17-15.4-27.8c-1.6-5.4-2.7-11.4-1.9-18
		c0.5-3.3,1.5-6.8,3.4-10c1.9-3.2,4.6-6.1,7.7-8c3-2,6.7-3.3,10.2-3.6c3.5-0.4,6.9,0,9.8,0.6c6,1.4,10.8,3.9,15.2,6.4
		C143.2,214.6,156.4,227.8,173.9,236.6z"/>
	<path class="st2" d="M173.3,218.2c8.3-5.8,17.1-11,26.1-15.8c9-4.7,18.3-9.1,28.1-12.5c4.9-1.7,10-3.2,15.4-3.9
		c2.7-0.3,5.6-0.5,8.6-0.2c3,0.4,6.5,1.4,9.4,4.2c1.4,1.4,2.5,3.1,3.1,4.9c0.6,1.8,0.9,3.5,0.9,5.1c0.1,3.2-0.5,6.1-1.2,8.8
		c-0.4,1.4-0.8,2.7-1.2,4c-0.4,1.2-0.9,2.5-1.4,3.7c-1,2.4-2,4.8-3.1,7.2c-4.4,9.5-9.6,18.4-15.4,26.9c-5.8,8.5-12.2,16.6-19.1,24.2
		c-6.8,7.7-14.1,14.9-21.8,21.6c-3.9,3.3-7.9,6.5-12.1,9.4c-2.1,1.4-4.3,2.8-6.5,4.1c-1.1,0.6-2.3,1.2-3.5,1.6
		c-0.6,0.2-1.2,0.4-1.9,0.5c-0.6,0.1-1.4,0.2-1.9-0.3c0.6,0.3,1.2,0.1,1.8-0.1c0.6-0.2,1.1-0.5,1.7-0.8c1.1-0.6,2.1-1.4,3.1-2.2
		c2-1.5,3.9-3.2,5.7-4.9c3.6-3.4,7.2-7,10.5-10.7c6.8-7.4,13.2-15.1,19.4-23c12.2-15.8,23.3-32.5,31.6-50.4c1-2.2,2-4.5,2.9-6.7
		c0.5-1.1,0.9-2.3,1.3-3.4c0.4-1.1,0.7-2.2,1.1-3.3c0.6-2.2,1-4.3,1-6.1c0-1.9-0.5-3.1-1.2-3.9c-0.7-0.8-2.3-1.6-4.3-1.9
		c-2-0.3-4.2-0.3-6.5-0.2c-4.6,0.4-9.4,1.4-14.2,2.6c-9.5,2.6-19,6-28.3,9.7C191.9,210.2,182.6,214.2,173.3,218.2z"/>
	<path class="st1" d="M179.3,308.3c0.8-2.5,2.3-4.7,3.6-7c1.4-2.2,2.8-4.4,4.2-6.6l8.6-13.1c5.8-8.7,11.5-17.3,17.2-26
		c5.6-8.7,11.2-17.5,16.6-26.4c5.4-8.9,10.7-17.8,15.6-26.9c5-9.1,9.8-18.3,14.1-27.6c4.4-9.3,8.4-18.9,11.9-28.6
		c3.4-9.7,6.4-19.6,8.2-29.8c1.9-10.1,2.8-19.6,2-30c2.2,8.8,2,19.9,0.8,30.4c-1.3,10.4-3.7,20.7-6.8,30.8
		c-6.3,20.1-15.2,39.2-25.3,57.5c-10.1,18.3-21.4,36-33.5,53c-6,8.5-12.2,16.9-18.6,25.2l-9.6,12.4l-4.7,6.2
		C182,303.9,180.4,305.9,179.3,308.3z"/>
</g>
</svg>
