<svg version="1.1" id="Layer_1" xmlns="http://www.w3.org/2000/svg" x="0" y="0" viewBox="0 0 604.1 334.2" xml:space="preserve"><style>.st0{fill:#ed1a37}.st1{fill:#fff}.st2{fill:#808285}</style><path class="st0" d="M273.6 50.2c3 1 1.1 9.9-1.6 19.4-.1 5.6-4.7 17.5-5.5 23.5-6.1 18.4-11.5 34.2-18.6 50-7.2 14.1-14.9 27.2-24.9 38.7-5 5.7-10.7 11-17.4 15.2s-14.8 7-23.2 7.1c-2.1 0-4.2-.1-6.2-.4-1-.1-2-.3-3.1-.6l-1.4-.3-1.4-.4c-3.8-1.1-7.4-2.5-10.8-4-6.9-3.1-13.3-6.8-19.8-10.6-6.4-3.8-12.8-7.8-19.3-11.5-3.3-1.9-6.6-3.6-10-5.2-3.3-1.5-6.8-2.8-9.9-3.1-1.5-.1-2.8.1-3.8.4-1 .4-1.7.9-2.4 1.9-1.6 2.2-2.8 5.8-3.1 9.6-.7 7.8 1.1 16.9 4.5 25.9 1.3 3.6 2.5 5.3 2.6 6.3 2.9 6.3 6.1 11.6 9.4 16.4 3.3 4.8 6.6 9 10.1 13 7 8 14.6 15.2 25.3 23.3 1.1.9 1.6 1.4 3.7 2.9 2.3 1.7 1.5 1 3.9 2.7.5.4-.5-.2-.1.1.5.4 5.4 3.4 8 5.1 2.3 1.5 2.3 1.5-.1.1 2.5 1.5 4.2 2.5 4.1 2.4 2.7 1.5 3.2 1.9 6.2 3.4 6.6 3.4 5.6 2.8 2.1 1.2-5.7-2.7-11.9-5.7-18.7-9.4-6.8-3.8-14.4-8.2-22.8-14.3-7.7-5.7-11.6-9.3-15-12.5-3.5-3.3-6.5-6.2-11.6-12.1-3.4-4.1-4.6-5.8-5.6-7.3s-2-2.8-4.4-6.7c-6-9.5-10.4-19.4-12.2-30.2-.8-5.4-1-11 .2-16.8.7-2.9 1.7-5.8 3.5-8.6 1.7-2.9 4.9-5.8 8.6-7 3.7-1.3 7.2-1.1 10.2-.7 3.1.5 5.8 1.4 8.5 2.4 5.3 2 10.1 4.6 14.9 7.3 9.6 5.5 19 11.8 29.7 17.5 7.3 3.5 14.4 6.6 21 7.7 6.6 1.1 13.3 0 19.6-3.2 6.4-3.2 12.3-8.1 17.7-14.3 5.5-6.2 10.5-13.5 15.1-21.9 6.7-9.1 9.2-17.8 15.4-29.1 2.6-6.5 4.9-11.5 7.1-16.8 2.2-5.3 4.5-10.9 6.5-18.5 2.7-5.8 5.2-13.2 7.6-20.2 2.5-7 4.9-13.5 7.4-17.8z"/><path class="st1" d="M183.7 183.2c4.2-2.9 8.5-5.6 12.9-8.2 4.4-2.6 8.9-5 13.5-7.2 9.2-4.5 18.7-8.5 29-11.2 5.2-1.3 10.5-2.4 16.4-2.3 3 .1 6.2.4 9.6 1.9 1.7.7 3.4 1.8 4.9 3.3s2.7 3.3 3.5 5.2c1.6 3.8 1.6 7.4 1.3 10.5-.3 3.2-1.1 6-1.9 8.7-1.8 5.2-3.8 10-6.1 14.8-9.3 18.9-22.1 35.4-36.4 50.2-7.2 7.3-14.8 14.3-23 20.5-4.1 3.1-8.3 6.1-12.7 8.8-2.2 1.3-4.5 2.6-6.8 3.7-1.2.5-2.4 1-3.6 1.4-.6.2-1.3.4-1.9.4-.6.1-1.4.1-1.9-.4.6.3 1.2.1 1.8-.2.6-.2 1.1-.5 1.6-.8 1.1-.6 2.1-1.4 3-2.2 2-1.5 3.8-3.2 5.6-4.9 3.6-3.4 7.1-7 10.6-10.7 6.8-7.3 13.3-14.8 19.6-22.6 12.4-15.5 23.8-31.8 32.3-49.1 2.1-4.3 4.1-8.8 5.6-13.1.7-2.1 1.3-4.1 1.6-6 .3-1.9.1-3.5-.2-4.4s-.7-1.4-1.9-2.1c-1.2-.6-3.1-1.1-5.1-1.3-4.2-.4-8.9.1-13.6.8-9.5 1.5-19.1 4.2-28.7 7.1-9.8 2.9-19.3 6.1-29 9.4zM297.5 158.2c0-9.7-.5-12.1-6.4-12.7l-4.2-.4c-1-.8-.9-2.7.1-3.3 7.1-.7 15.9-1 28.1-1 8.2 0 16.1.7 21.9 3.7 5.6 2.7 9.9 8 9.9 16.3 0 9.4-5.5 14.2-13.3 17.9 0 1.3 1 1.7 2.5 2 7.1 1.3 17.5 7.8 17.5 21.8 0 15.1-11.2 25.3-34.7 25.3-3.8 0-10.2-.4-15.7-.4-5.7 0-10.2.3-15 .4-.8-.4-1-2.5-.3-3.3l2.4-.4c6.9-1.2 7.2-2.6 7.2-16.3v-49.6zm10.7 17.4c0 3.7.1 3.9 6.8 3.7 13.3-.5 20.5-4.4 20.5-16.7 0-12.8-9.5-17.6-19.5-17.6-2.9 0-4.8.3-6 .8-1.3.4-1.8 1-1.8 3.4v26.4zm0 30.3c0 4.7.3 11.4 2.7 14.2 2.5 3 6.4 3.7 10.3 3.7 11.6 0 20.5-5.2 20.5-18.3 0-10.3-5.2-22.3-26-22.3-7.1 0-7.6.8-7.6 3.4v19.3h.1zM381.9 150.3c9.5-7.4 21.7-11.1 35.3-11.1 7.1 0 17 1.4 23.1 3.1 1.6.4 2.5.7 3.7.5.1 3 .8 11.2 1.8 19.2-.7.9-2.6 1-3.5.3-2-8.9-7.8-19.1-26.8-19.1-20 0-37 12.7-37 39.7 0 27.4 17.4 42.6 38.8 42.6 16.8 0 24.3-11 27.3-18.7.9-.7 2.9-.4 3.4.5-.9 6.8-4.3 15.4-6.3 17.9-1.6.3-3.1.8-4.6 1.3-2.9 1-12.3 3-20.6 3-11.8 0-23-2.4-32.5-8.8-10.4-7.2-18.5-19.1-18.5-35.9 0-14.4 6.5-26.8 16.4-34.5zM467.3 158.2c0-9.7-.5-12.1-6.4-12.7l-4.2-.4c-1-.8-.9-2.7.1-3.3 7.1-.7 15.9-1 28.1-1 8.2 0 16.1.7 21.9 3.7 5.6 2.7 9.9 8 9.9 16.3 0 9.4-5.5 14.2-13.3 17.9 0 1.3 1 1.7 2.5 2 7.1 1.3 17.5 7.8 17.5 21.8 0 15.1-11.2 25.3-34.7 25.3-3.8 0-10.2-.4-15.7-.4-5.7 0-10.2.3-15 .4-.8-.4-1-2.5-.3-3.3l2.4-.4c6.9-1.2 7.2-2.6 7.2-16.3v-49.6zm10.8 17.4c0 3.7.1 3.9 6.8 3.7 13.3-.5 20.5-4.4 20.5-16.7 0-12.8-9.5-17.6-19.5-17.6-2.9 0-4.8.3-6 .8-1.3.4-1.8 1-1.8 3.4v26.4zm0 30.3c0 4.7.3 11.4 2.7 14.2 2.5 3 6.4 3.7 10.3 3.7 11.6 0 20.5-5.2 20.5-18.3 0-10.3-5.2-22.3-26-22.3-7 0-7.6.8-7.6 3.4v19.3h.1zM329.2 267.5c0-4.3-1.9-6.5-5.8-6.5-2.4 0-4.3 1.1-5.2 2.2-.8.9-.9 1.6-.9 3.8v9.6c0 4.5.1 5.2 2.4 5.5l1.3.2c.4.3.3 1.4-.1 1.6-1.9-.1-3.7-.2-5.9-.2-2.3 0-4 .1-5.7.2-.4-.2-.6-1.3-.1-1.6l1.1-.2c2.3-.4 2.4-.9 2.4-5.5v-9.1c0-4.2-1.9-6.5-5.8-6.5-2.6 0-4.3 1.1-5.3 2.3-.6.8-.9 1.6-.9 3.6v9.7c0 4.5.1 5.1 2.4 5.5l1.1.2c.4.3.3 1.4-.1 1.6-1.7-.1-3.5-.2-5.7-.2-2.3 0-4.1.1-6.1.2-.4-.2-.6-1.3-.1-1.6l1.5-.2c2.3-.3 2.4-.9 2.4-5.5v-11c0-2.5 0-2.8-1.7-3.9l-.6-.4c-.3-.2-.3-.9.1-1.1 1.4-.5 5-2.1 6.3-3.1.3 0 .6.1.7.4-.1 1.4-.1 2.4-.1 2.9 0 .4.3.7.7.7 2.4-1.7 5.3-3.2 8.4-3.2s4.9 1.1 6.7 3.7c.6.1 1-.1 1.6-.5 2.5-1.8 5.6-3.2 8.5-3.2 5 0 7.5 3.5 7.5 7.8v10.8c0 4.5.1 5.2 2.4 5.5l1.5.2c.4.3.3 1.4-.1 1.6-2.1-.1-3.9-.2-6.1-.2-2.3 0-4 .1-5.7.2-.4-.2-.6-1.3-.1-1.6l1.1-.2c2.3-.4 2.4-.9 2.4-5.5v-9h-.4zM354.3 267.6c-1.6 0-1.7.1-1.7 1.7 0 6.3 3.7 11.8 10.4 11.8 2.1 0 3.8-.6 5.8-3.1.6-.2 1.1.2 1.1.8-2.1 4.3-6.6 5.8-9.9 5.8-4.1 0-7.3-1.8-9.1-4.1-1.9-2.5-2.6-5.4-2.6-8.2 0-7.7 5.1-14.2 12.6-14.2 5.4 0 8.9 3.7 8.9 7.5 0 .9-.1 1.4-.3 1.6-.2.4-1.1.4-3.7.4h-11.5zm3.9-1.9c4.6 0 6-.3 6.5-.6.2-.1.4-.4.4-1.2 0-1.8-1.2-4-4.8-4-3.7 0-6.9 3.4-7 5.5 0 .1 0 .3.4.3h4.5zM404.6 274.5c0 5 .1 7.3 1.8 7.3.7 0 1.8-.3 2.7-.6.4.1.5 1.7-.1 2-2.6.4-6.5 1.3-8.3 2-.4 0-.7-.2-.7-.5v-1.1c0-.9 0-1.7-.1-1.9h-.2c-2.8 1.9-4.9 2.9-7.9 2.9-7 0-11.6-5.5-11.6-12.1 0-8.8 6.7-14.5 15.2-14.5 2.1 0 3.5.3 4.2.6.3 0 .4-.4.4-.9v-9.5c0-3.7-.1-4.1-1.9-5.2l-.6-.4c-.3-.2-.3-1.1 0-1.3 1.6-.5 4.5-1.4 6.8-2.6.3 0 .5.1.6.4-.1 1.9-.2 5-.2 7.8l-.1 27.6zm-4.7-9.4c0-1.3-.2-1.8-.7-2.4-.9-1.3-2.8-2.6-5.3-2.6-5.7 0-8.7 5-8.7 10.4 0 5.7 3.2 11.1 9.4 11.1 1.7 0 3.8-.8 4.8-1.8.4-.4.4-1.3.4-2.3v-12.4h.1zM423 265.6c0-2.5 0-2.8-1.7-3.9l-.6-.4c-.3-.2-.3-.9.1-1.1 1.4-.5 5-2.1 6.5-3.1.3 0 .6.1.6.4-.1 2.2-.3 5.2-.3 7.8v11.3c0 4.5.1 5.2 2.4 5.5l1.3.2c.4.3.3 1.4-.1 1.6-1.9-.1-3.7-.2-5.9-.2-2.3 0-4.1.1-5.9.2-.4-.2-.6-1.3-.1-1.6l1.3-.2c2.3-.3 2.4-.9 2.4-5.5v-11zm5.2-17.9c0 2.3-1.6 3.3-3.3 3.3-1.9 0-3.2-1.4-3.2-3.1 0-2.1 1.5-3.4 3.4-3.4 1.8-.1 3.1 1.5 3.1 3.2zM462.9 259.1c.5.4.9 1.4.9 2.5s-.6 2.3-1.4 2.3c-.3 0-.6-.1-.9-.4-1.4-1.7-3.7-3.3-6.3-3.3-4.4 0-8.7 3.5-8.7 10.1 0 4.9 3.4 10.7 10.1 10.7 3.6 0 5.5-1.6 7-3.8.5-.1 1.1.3 1.1.9-2.1 4.6-6.8 6.4-10.5 6.4-3.3 0-6.4-1.1-8.6-3.2s-3.6-5.2-3.6-9.3c0-6.8 4.8-14 15.2-14 1.6 0 4.1.3 5.7 1.1zM486.8 270.6c.9-.3 1.1-.9 1.1-1.8l.1-2.9c.1-2.3-.7-5.5-4.6-5.5-1.8 0-3.9.9-4 2.8-.1 1-.1 1.8-.6 2.1-.9.8-2.6 1.2-3.6 1.2-.6 0-.9-.3-.9-.9 0-3.3 7.1-7.7 11.7-7.7 4.5 0 6.7 2.6 6.5 7.4l-.4 10.9c-.1 2.9.4 5.5 2.9 5.5.6 0 1.2-.2 1.6-.4.3-.2.6-.4.8-.4.3 0 .4.4.4.8 0 .3-2.2 2.8-5.3 2.8-1.5 0-3-.6-4.1-1.9-.2-.4-.6-.9-1-.9s-1.2.6-2.5 1.3c-1.4.8-2.8 1.6-4.5 1.6-1.8 0-3.3-.5-4.4-1.4-1.2-1.1-1.9-2.6-1.9-4.4 0-2.5 1.2-3.9 5.2-5.3l7.5-2.9zm-3.9 11.1c1.3 0 3.2-.9 3.8-1.6.8-.8.8-1.6.8-3l.1-3.7c0-.7-.2-.8-.6-.8s-1.4.3-2.6.6c-3.7 1.3-5.5 2.2-5.5 4.6.1 1.2.8 3.9 4 3.9zM514.4 276.6c0 4.5.1 5.2 2.4 5.5l1.5.2c.4.3.3 1.4-.1 1.6-2.1-.1-3.9-.2-6.1-.2-2.3 0-4.1.1-6 .2-.4-.2-.6-1.3-.1-1.6l1.4-.2c2.3-.3 2.4-.9 2.4-5.5v-28.4c0-3.7-.1-4.1-1.9-5.2l-.6-.4c-.3-.2-.3-1.1 0-1.3 1.6-.5 4.5-1.4 6.8-2.6.2 0 .5.1.6.4-.1 1.9-.2 5-.2 7.8l-.1 29.7z"/><g><path class="st2" d="M176.8 186.3c-.2-1.1 8.7-6.1 18.7-11 2.6-1.6 7.2-3.8 12-5.9l12.7-5.5c5.1-2 10.1-3.7 15.2-5.1 5-1.4 10.1-2.5 15.4-2.7 2.6-.1 5.4.1 8.2.9 1.4.4 2.8 1.1 4.1 2.1 1.3 1 2.4 2.3 3.2 3.8 1.5 2.9 1.7 6 1.5 8.7s-.8 5.3-1.5 7.7c-2.9 8.7-6.7 16.4-10.7 23.9-4.1 7.4-8.5 14.5-13.2 21.2-9.4 13.4-19.6 25.7-30.8 37.3-5.6 5.8-11.5 11.4-18.1 16.6-1.7 1.3-3.4 2.6-5.2 3.8-.9.6-1.9 1.2-3 1.7-.6.3-1.2.5-1.9.8-.7.2-1.5.5-2.9.5-.7 0-1.7-.2-2.8-.9-.2-.2.2.2-.5-.4l-.1-.1-.1-.1s-.2-.2-.3-.4l-.6-.9c-.1-.2-.2-.4-.3-.7-.5-1.8-.3-2.7-.1-3.6.4-1.6.8-2.7 1.3-3.8 1-2.1 2.1-4 3.2-5.9 4.6-7.3 9.5-14.3 14.5-21.5s10.2-14.6 15.4-22.2c9.6-15.2 20.5-32.7 31.5-52.8 2.3-3.9 2.9-6.2 3.8-7 7.6-14.3 12.9-25.6 17.6-36.7 4.6-11.1 8.7-22.1 12.4-36.6.7-1.5 1.1-2.2 1.9-5 .8-3.1.2-2 1-5.2.2-.7.4.7.5.1.2-.7.6-7.1 1.6-10.4.8-3 1-3 1.1.1.7-3.2.8-5.4.3-5.3.4-3.5.8-4.1 1.1-7.9 1.9-8.2 3.7-7.9 4.6-2.1 1.1 14.6 1 31.3-5.3 54.2-3.2 10.5-5.4 16-7.3 21.1-2 5-3.8 9.5-7.3 17.4-5.3 10.8-3.9 8.1-8.7 17.1-11.4 22-23.4 40.3-36.7 58.7-6.6 9.2-13.6 18.4-21 28.2-3.7 4.9-7.5 9.9-11.2 15.1-1.9 2.6-3.7 5.3-5.3 8-.8 1.3-1.5 2.8-1.7 3.7-.1.2 0 .3-.1-.1-.1-.1-.1-.5-.6-1.1-.1-.1 0 0 0 .1l.1.1c-.6-.5-.2-.2-.4-.3-.2-.2-.4-.3-.6-.3-.7-.2-.6 0-.5-.1.2 0 .4-.1.7-.2 1.7-.7 3.6-2 5.4-3.2 1.8-1.3 3.6-2.7 5.3-4.1 3.5-2.8 6.8-5.8 10-8.8 6.4-6 12.5-12.3 18.5-18.9 5.9-6.6 11.7-13.7 17.4-21.5 5.6-7.8 11.1-16.4 16.1-26.3 3.1-5.5 5.5-10.8 7.4-16.4.9-2.8 1.7-5.7 1.7-8.7.1-3-.7-6.1-3.5-8-3.2-1.9-6.9-1.9-10.1-1.9-3.3.1-6.5.6-9.7 1.3-6.4 1.3-12.9 3.3-21.2 6.7-13.6 4.9-32.4 14.4-42.1 18.7z"/></g><path class="st0" d="M179.7 203.6c-4.9-.3-9.8-1.4-14.6-2.8-4.8-1.4-9.4-3.3-13.9-5.2-9-3.9-17.7-8.4-26.1-11.9-4.2-1.7-8.3-3.1-11.9-3.5-1.8-.2-3.3-.1-4.6.1-1.3.3-2.2.7-3.2 1.5-.9.7-1.6 1.5-2.1 2.5s-.8 2.2-1 3.7c-.3 2.9.2 6.7 1.5 10.5 1.2 3.8 2.9 7.8 5 11.6 2 3.9 4.4 7.6 7 11.4 5.1 7.5 11 14.6 17.3 21.6 12.5 14 26.5 27.1 40.6 40.8-18.2-7.5-35.1-17.8-50.4-30.7-7.6-6.4-14.8-13.6-21.1-21.6-6.3-8.1-12-17-15.4-27.8-1.6-5.4-2.7-11.4-1.9-18 .5-3.3 1.5-6.8 3.4-10s4.6-6.1 7.7-8c3-2 6.7-3.3 10.2-3.6 3.5-.4 6.9 0 9.8.6 6 1.4 10.8 3.9 15.2 6.4 17.8 10.4 31 23.6 48.5 32.4z"/><path class="st2" d="M179.1 185.2c8.3-5.8 17.1-11 26.1-15.8 9-4.7 18.3-9.1 28.1-12.5 4.9-1.7 10-3.2 15.4-3.9 2.7-.3 5.6-.5 8.6-.2 3 .4 6.5 1.4 9.4 4.2 1.4 1.4 2.5 3.1 3.1 4.9.6 1.8.9 3.5.9 5.1.1 3.2-.5 6.1-1.2 8.8-.4 1.4-.8 2.7-1.2 4-.4 1.2-.9 2.5-1.4 3.7-1 2.4-2 4.8-3.1 7.2-4.4 9.5-9.6 18.4-15.4 26.9-5.8 8.5-12.2 16.6-19.1 24.2-6.8 7.7-14.1 14.9-21.8 21.6-3.9 3.3-7.9 6.5-12.1 9.4-2.1 1.4-4.3 2.8-6.5 4.1-1.1.6-2.3 1.2-3.5 1.6-.6.2-1.2.4-1.9.5-.6.1-1.4.2-1.9-.3.6.3 1.2.1 1.8-.1s1.1-.5 1.7-.8c1.1-.6 2.1-1.4 3.1-2.2 2-1.5 3.9-3.2 5.7-4.9 3.6-3.4 7.2-7 10.5-10.7 6.8-7.4 13.2-15.1 19.4-23 12.2-15.8 23.3-32.5 31.6-50.4 1-2.2 2-4.5 2.9-6.7.5-1.1.9-2.3 1.3-3.4s.7-2.2 1.1-3.3c.6-2.2 1-4.3 1-6.1 0-1.9-.5-3.1-1.2-3.9-.7-.8-2.3-1.6-4.3-1.9-2-.3-4.2-.3-6.5-.2-4.6.4-9.4 1.4-14.2 2.6-9.5 2.6-19 6-28.3 9.7-9.5 3.8-18.8 7.8-28.1 11.8z"/><path class="st1" d="M185.1 275.3c.8-2.5 2.3-4.7 3.6-7l4.2-6.6 8.6-13.1c5.8-8.7 11.5-17.3 17.2-26 5.6-8.7 11.2-17.5 16.6-26.4 5.4-8.9 10.7-17.8 15.6-26.9 5-9.1 9.8-18.3 14.1-27.6 4.4-9.3 8.4-18.9 11.9-28.6 3.4-9.7 6.4-19.6 8.2-29.8 1.9-10.1 2.8-19.6 2-30 2.2 8.8 2 19.9.8 30.4-1.3 10.4-3.7 20.7-6.8 30.8-6.3 20.1-15.2 39.2-25.3 57.5s-21.4 36-33.5 53c-6 8.5-12.2 16.9-18.6 25.2l-9.6 12.4-4.7 6.2c-1.6 2.1-3.2 4.1-4.3 6.5z"/></svg>