<svg version="1.1" id="Layer_1" xmlns="http://www.w3.org/2000/svg" x="0" y="0" viewBox="0 0 595.3 595.3" xml:space="preserve"><style>.st1{fill:#fff}</style><path fill="#c30000" d="M38.3 85.4h516.2v425.9H38.3z"/><path class="st1" d="M135.1 328.6v-42.7c0-5.4.1-10.1 1.1-14.1 10-3.2 23.6-5.1 35.3-5.1 6.6 0 14.9.7 21 1.5v-33.9h15.3v94.3c0 5.1-.1 9.8-1.1 14.3-9.5 3.2-24 5.1-35.2 5.1-11.8 0-24.7-1.8-35-4.9-1-4.7-1.4-9.5-1.4-14.5zm15.9-46.7c-.4 2.1-.6 5.4-.6 9.7v31.5c0 5.1.2 8.3.6 9.7 5.6 1.5 13.8 2.2 20.5 2.2 7.5 0 15.6-.9 20.4-2.3.4-1.4.6-4.6.6-9.6v-41.7c-6-1-14.4-1.6-21.2-1.6-6.5 0-14.3.9-20.3 2.1zM243 267.5v79.6h-15.5v-79.6H243zM317.6 359.6c.4-1.8.6-4.2.6-6.9v-8.2c-6.2.7-14 1.2-20 1.2-11.6 0-24.7-1.7-34.3-4.9-.8-4.7-1.2-9.4-1.2-14.2V286c0-5 .4-9.7 1.2-14.1 9.5-3.2 22.7-5.1 34.3-5.1 11.5 0 24.2 1.9 34.3 5.1 1 4.6 1.1 9.1 1.1 14.1v75.4c-4.4 12.9-17.8 15-34.4 15-7.2 0-17.3-1.2-25.4-2.8v-12.1c8.1 1.6 20.2 2.7 30 2.3 5.3-.5 11.2-1.8 13.8-4.2zm.6-28v-39.9c0-4.6-.1-7.6-.7-9.7-5.4-1.2-12.7-2.2-19.3-2.2-6.5 0-13.9.9-19.3 2.2-.5 2.1-.8 5.4-.8 9.7v29.7c0 4.4.3 7.6.8 9.7 5.1 1.5 12.6 2.2 19.2 2.2 6.4-.1 14-.6 20.1-1.7zM368.7 267.5v79.6h-15.5v-79.6h15.5zM456.6 272c-10.1-3.5-20.4-5.2-32.1-5.2-10 0-25.4 1.6-34.3 4.2v14.3h7.6c1.4-1.2 2.5-2.8 3.3-4.5 2.9-.7 9.1-1.4 20.7-1.4 6.6 0 14.2 1.1 19.9 2.3.4 3.7.7 7.4.7 10.8v6.4H409c-6.2 0-14.2.9-20.9 3.5-1 4.2-1.3 9-1.4 12.4v13.9c0 5 .4 9.8 1.4 14.4 10.2 3.2 23.3 4.9 35.1 4.9 11.2 0 23.8-1.7 33.3-4.9 1-4.4 1.1-9.1 1.1-14.2V289c.1-4.3 0-9.7-1-17zm-44.7 38.2h30.6v9.9c0 4 .1 9.6-.5 12.8-4.8 1.4-11.1 2.1-18.5 2.1h-1.1c-6.4 0-14.5-.7-19.8-2.1-.5-3-.8-7.3-.8-9.9v-1c0-2.3.1-7.5 1-10.7 2.3-.9 5.3-1.1 9.1-1.1zm-23.7-7.9c-1 4.2-1.4 12.4-1.4 12.4v13.9M242.7 235.5V252h-15.5v-16.5h15.5zM368.7 235.5V252h-15.5v-16.5h15.5z"/></svg>