<?xml version="1.0" encoding="utf-8"?>
<!-- Generator: Adobe Illustrator 22.1.0, SVG Export Plug-In . SVG Version: 6.00 Build 0)  -->
<svg version="1.1" id="Layer_1" xmlns="http://www.w3.org/2000/svg" xmlns:xlink="http://www.w3.org/1999/xlink" x="0px" y="0px"
	 viewBox="0 0 639.3 182.6" style="enable-background:new 0 0 639.3 182.6;" xml:space="preserve">
<style type="text/css">
	.st0{fill:#E74F3F;}
</style>
<g>
	<g>
		<path class="st0" d="M152,130.8V51.6h22.3v79.2H152z"/>
		<path class="st0" d="M248.5,94.9c-0.6-9.5-0.6-13.1-0.7-16.2V51.6h22.5v79.2h-19l-33-42.6l0.3,17.3v25.3H196V51.6h19L248.5,94.9z"
			/>
		<path class="st0" d="M292.1,130.8V51.6h22.3v79.2H292.1z"/>
		<path class="st0" d="M352.9,70h-23.1V51.6h68.6V70h-23.2v60.8h-22.3V70z"/>
		<path class="st0" d="M477.2,130.8h-63.4V51.6h61.8v18.8h-39.7v11.3h37.4v18.2h-37.4v12h41.3L477.2,130.8L477.2,130.8z"/>
		<path class="st0" d="M565.6,120.5c-9,8.8-19.8,12.3-31.8,12.3c-31.1,0-43.2-19.6-43.3-41.1c-0.2-20.3,13.5-41.9,43.3-41.9
			c11.4,0,21.7,4,30.7,12.7l-13.8,13.6c-5.7-5.4-11.5-6.9-16.9-6.9c-15.3,0-21.3,12.4-21.2,22.7c0.1,10.3,5.5,22,21.2,22
			c5.3,0,13-2.3,18.7-8L565.6,120.5z"/>
	</g>
	<g>
		<polygon class="st0" points="73.8,82.2 73.8,130.8 96,130.8 96,99.6 134.6,99.6 134.6,82.2 		"/>
		<rect x="73.8" y="51.6" class="st0" width="60.8" height="18.8"/>
	</g>
</g>
</svg>
