<svg version="1.1" id="Layer_1" xmlns="http://www.w3.org/2000/svg" x="0" y="0" viewBox="0 0 1248 370.8" xml:space="preserve"><style>.st0{fill:#349c4a}</style><path class="st0" d="M779.7 148.3h37.4v136.4h-37.4V148.3zM342.4 148.3V222c0 18.1-8.3 28.7-24.9 28.7-16.6 0-24.9-10.6-24.9-28.7v-73.7h-37.8v83.1c0 35.1 26.1 55.9 63.1 55.9s63.1-20.9 63.1-55.9v-83.1h-38.6zM605.1 148.3V222c0 18.1-8.3 28.7-24.9 28.7-16.6 0-24.9-10.6-24.9-28.7v-73.7h-37.8v83.1c0 35.1 26.1 55.9 63.1 55.9s63.1-20.8 63.1-55.9v-83.1h-38.6z"/><circle class="st0" cx="797.8" cy="106.2" r="23.8"/><path class="st0" d="M666.3 148.3v136.4h37.4V181.9h52.2v-33.6h-89.6zM1062.8 242.1c-6.8 7.6-16.3 12.5-27.2 12.5h-.4c-19.7 0-31.7-9.8-36.3-24.9H1104V216c0-39.3-28.7-70.7-70.3-70.7-39.3 0-71.1 31.7-71.1 71.1s29.5 71.1 71.8 71.1h.8c21.9 0 39.3-8.3 51.4-20.8l-23.8-24.6zm-28.7-63.9c15.9 0 27.6 7.2 32.5 21.5h-66.1c5.6-12.8 17.7-21.5 33.6-21.5zM931.3 242.1c-6.4 6-14.7 9.8-24.2 9.8h-.8c-19.3-.4-34-15.9-34-35.5 0-19.3 14.7-35.1 34-35.5h.8c10.2 0 18.9 4.5 25.3 11.3l25.7-25.7c-12.5-13.2-30.2-21.2-51.4-21.2h-.4c-38.9.4-69.9 31.7-69.9 70.7s31 70.7 69.9 70.7h.4c20 0 37.4-7.6 49.9-19.7l-25.3-24.9zM441.1 148.3v-51h-37.4V225.1c0 44.6 14.4 59.3 57.4 59.3h32.1v-34.8h-26.8c-23.1 0-25.7-3.4-25.7-24.6v-43h52.5v-33.6c0-.1-52.1-.1-52.1-.1zM181.4 139.3c0-12.9 7.9-20.4 18.5-20.4 6.8 0 12.1 3.8 14.7 7.9l22.7-22.7c-11.7-16.3-27.2-21.5-42.3-21.5-27.6 0-50.3 24.2-51 56.3v145.9h37.4v-104h48.4v-32.5h-48.4v-9z"/></svg>