<?xml version="1.0" encoding="utf-8"?>
<!-- Generator: Adobe Illustrator 22.1.0, SVG Export Plug-In . SVG Version: 6.00 Build 0)  -->
<svg version="1.1" id="Layer_1" xmlns="http://www.w3.org/2000/svg" xmlns:xlink="http://www.w3.org/1999/xlink" x="0px" y="0px"
	 viewBox="-84 466.5 1021 255" enable-background="new -84 466.5 1021 255" xml:space="preserve">
<path fill="#FFFFFF" d="M596.9,623.2h-12.2v-58.2h12.2V623.2z M492.3,586.2l28.2,37h10.9V565h-12.6v35.9L491.5,565h-11.8v58.2h12.6
	V586.2z M87.3,599.9h23.6v23.4h12.8V565h-12.8v23H87.3v-23H74.5v58.2h12.8V599.9z M771.3,610.2h-13.5v13.3h13.5V610.2z M713.2,624.2
	c11.3,0,17.9-4,23.8-10.4l-8.2-8.2c-4.6,4.1-8.6,6.8-15.3,6.8c-9.9,0-16.9-8.3-16.9-18.3v-0.1c0-9.9,7-18.1,16.9-18.1
	c5.8,0,10.4,2.5,14.9,6.6l8.2-9.4c-5.4-5.3-12-9-22.9-9c-17.9,0-30.3,13.5-30.3,30.1v0.1C683.3,611,696,624.2,713.2,624.2z
	 M628.7,586.2l28.2,37h10.9V565h-12.6v35.9L627.8,565H616v58.2h12.6V586.2z M814.5,524.8v140.7H27.8V524.8H814.5L814.5,524.8z
	 M801.7,537.4H40.5v115.4h761.3V537.4z M243.6,624c15.7,0,25.6-8.6,25.6-26.3v-32.8h-12.9v33.4c0,9.3-4.8,14-12.6,14
	s-12.6-4.9-12.6-14.4v-33h-12.8v33.2C218.4,615.3,227.9,624,243.6,624z M140.1,594.2v-0.1c0-16.6,13.1-30.1,31-30.1
	c18,0,30.8,13.4,30.9,30v0.1c0,16.6-13.1,30.1-31,30.1C153,624.1,140.1,610.8,140.1,594.2z M153.5,594c0,10,7.3,18.3,17.6,18.3
	c10.3,0,17.5-8.2,17.5-18.1v-0.1c0-10-7.3-18.3-17.6-18.3C160.6,575.8,153.5,584,153.5,594L153.5,594z M310.1,612.7
	c-6.6,0-12.2-2.8-17.4-7l-7.6,9.1c7,6.2,15.9,9.3,24.7,9.3c12.6,0,21.3-6.5,21.3-18v-0.1c0.2-10.2-6.5-14.4-18.3-17.5
	c-10.1-2.6-12.6-3.8-12.6-7.7v-0.1c0-2.8,2.6-5,7.5-5c4.9,0,9.9,2.1,15.1,5.7l6.6-9.7c-5.9-4.8-13.1-7.4-21.6-7.4
	c-11.9,0-20.4,7-20.4,17.5v0.1c0,11.5,7.6,14.8,19.3,17.8c9.7,2.5,11.7,4.1,11.7,7.4v0.1C318.5,610.6,315.3,612.7,310.1,612.7z
	 M401.2,594.2v-0.1c0-16.6,13.1-30.1,31-30.1s30.9,13.4,30.9,30v0.1c0,16.6-13.1,30.1-31,30.1S401.2,610.8,401.2,594.2z M414.6,594
	c0,10,7.3,18.3,17.6,18.3c10.3,0,17.5-8.2,17.5-18.1v-0.1c0-10-7.3-18.3-17.6-18.3S414.6,584,414.6,594L414.6,594z M359.8,576.8
	v46.4h12.8v-46.4h17.7V565H342v11.8h0.1H359.8z"/>
</svg>
