<?xml version="1.0" encoding="utf-8"?>
<!-- Generator: Adobe Illustrator 22.1.0, SVG Export Plug-In . SVG Version: 6.00 Build 0)  -->
<svg version="1.1" id="Layer_1" xmlns="http://www.w3.org/2000/svg" xmlns:xlink="http://www.w3.org/1999/xlink" x="0px" y="0px"
	 viewBox="0 0 459.3 143.4" style="enable-background:new 0 0 459.3 143.4;" xml:space="preserve">
<style type="text/css">
	.st0{fill:#FFFFFF;}
</style>
<g>
	<path class="st0" d="M89.3,100.8c-1.1,1.1-2.4,1.6-3.9,1.6H58.4c-1.5,0-2.8-0.5-3.9-1.6c-1.1-1.1-1.6-2.4-1.6-3.9V46.3
		c0-1.6,0.5-3,1.6-4.1c1.1-1.1,2.4-1.7,4.1-1.7c1.6,0,3,0.6,4.1,1.7c1.1,1.1,1.7,2.5,1.7,4.1v45.1h20.9c1.5,0,2.8,0.5,3.9,1.6
		c1.1,1.1,1.6,2.3,1.6,3.9C90.9,98.4,90.3,99.8,89.3,100.8z"/>
	<path class="st0" d="M128.8,71.8c-2.7,8.2-5.5,16.7-8.5,25.4c-0.8,2.2-1.8,3.8-3.1,4.7c-1.3,0.9-2.7,1.3-4.1,1.3
		c-1.6,0-3-0.4-4.2-1.3c-1.2-0.9-2.2-2.4-3-4.7c-3-8.6-5.7-17-8.3-25.1c-2.6-8.1-5-16.2-7.3-24.1c-0.3-1.1-0.4-2.1-0.1-3
		c0.3-0.9,0.7-1.7,1.3-2.3s1.3-1.1,2.1-1.5c0.8-0.4,1.7-0.5,2.5-0.5c1.1,0,2.2,0.3,3.2,1c1,0.7,1.7,1.8,2.2,3.2
		c1.8,6.2,3.7,12.6,5.6,19.2c2,6.6,4.1,13.3,6.4,20c2.3-6.8,4.5-13.5,6.6-20.1c2-6.7,4-13.1,5.7-19.4c0.4-1.4,1-2.4,2-3.1
		c0.9-0.6,1.9-1,3.1-1c0.8,0,1.6,0.2,2.4,0.5c0.8,0.3,1.5,0.8,2,1.4c0.6,0.6,0.9,1.3,1.2,2.2c0.2,0.9,0.2,1.8-0.2,2.8
		C133.9,55.4,131.5,63.5,128.8,71.8z"/>
	<path class="st0" d="M178.8,92.1c-1.1,2.5-2.7,4.6-4.7,6.2c-2,1.7-4.4,2.9-7.1,3.7c-2.7,0.8-5.7,1.2-9,1.2c-3,0-5.7-0.2-8.3-0.5
		c-2.6-0.3-5.1-1-7.5-1.8c-1.3-0.5-2.3-1.2-2.9-2.2c-0.6-1-0.9-2-0.9-3.1c0-1.5,0.4-2.7,1.3-3.8c0.9-1.1,2.1-1.6,3.6-1.6
		c1,0,1.9,0.2,2.8,0.6c0.9,0.4,2.2,0.8,3.8,1.2c0.9,0.2,1.9,0.4,3.1,0.6c1.1,0.2,2.5,0.3,4,0.3c4.2,0,7.3-0.7,9.2-2.2
		c1.9-1.5,2.9-3.4,2.9-6c0-1.8-0.6-3.3-1.7-4.3c-1.1-1-3.3-2-6.5-2.8c-1.1-0.3-2.3-0.6-3.6-0.9c-1.3-0.3-2.6-0.6-4-1
		c-1.3-0.3-2.7-0.7-3.9-1.1c-1.3-0.4-2.4-0.9-3.4-1.4c-2.1-1.2-3.9-2.9-5.2-4.9c-1.4-2.1-2.1-4.9-2.1-8.4c0-3.1,0.6-5.9,1.7-8.3
		c1.1-2.4,2.6-4.4,4.5-6c1.9-1.6,4.1-2.9,6.7-3.7c2.5-0.8,5.2-1.3,8.1-1.3c2.5,0,4.9,0.1,7.1,0.4c2.2,0.3,4.4,0.8,6.5,1.5
		c1.4,0.4,2.4,1.1,3.1,2.1c0.6,1,1,2,1,3.1c0,1.4-0.5,2.7-1.4,3.8c-0.9,1.1-2.2,1.7-3.9,1.7c-0.8,0-1.7-0.2-2.5-0.5
		c-0.8-0.3-1.9-0.6-3.1-0.9c-0.7-0.2-1.6-0.3-2.5-0.5c-0.9-0.1-2-0.2-3.3-0.2c-3.3,0-5.8,0.6-7.6,1.9c-1.8,1.3-2.7,3.1-2.7,5.4
		c0,2.1,0.7,3.7,2,4.6c1.3,1,3.4,1.8,6.3,2.5c1.3,0.3,2.6,0.7,4,1c1.4,0.3,2.8,0.6,4.1,1c1.3,0.4,2.6,0.8,3.8,1.2
		c1.2,0.4,2.3,1,3.2,1.5c2.3,1.5,4.1,3.3,5.2,5.5c1.1,2.2,1.6,4.8,1.6,7.8C180.5,86.7,179.9,89.6,178.8,92.1z"/>
</g>
<g>
	<path class="st0" d="M195,100.4v2.5h-4.4V57h4.8v12.7c2.5-2.1,6.2-3,11.5-3c12.8,0,16.6,5.3,16.8,18.6
		c-0.2,13.3-4.1,18.5-16.8,18.5C201.3,103.8,197.5,102.8,195,100.4z M195,86.1c0.2,8.9,1.4,13.9,12,14.1c10.6-0.2,11.8-5.3,12-14.3
		c0-9.8-1-15.6-12.1-15.6c-10.4,0-11.9,5.1-11.9,14.1V86.1z"/>
	<path class="st0" d="M232.3,70c2.6-2.7,7-4,15.5-2.1v4.1c-11.4-2.6-15.5,1.4-15.5,8.6v22.2h-4.7V67.7h4.7V70z"/>
	<path class="st0" d="M284,85.3c-0.2,13.3-5,18.5-17.4,18.5c-12.5,0-17.2-5.1-17.4-18.5c0.2-13.4,4.7-18.5,17.4-18.5
		C279.2,66.7,283.8,72,284,85.3z M254,86.1c0.2,8.9,2.1,13.9,12.6,14.1c10.5-0.2,12.4-5.3,12.6-14.3c0-9.8-1.7-15.6-12.6-15.6
		c-10.3,0-12.3,5.2-12.5,14.1V86.1z"/>
	<path class="st0" d="M302.8,80.7l16.5,22.2h-6l-14.1-19l-6.9,6.2v12.8h-4.7V57h4.7v27.2l18.5-16.5h6.4L302.8,80.7z"/>
	<path class="st0" d="M323.1,86.4c0.2,8.7,1.9,13.6,12.6,13.8c7.6-0.1,10.8-2.3,11.9-7l4.3,1.1c-2.2,7.1-6.7,9.5-16.2,9.5
		c-13.2,0-17.3-5.1-17.5-18.5c0.2-13.4,4-18.5,17.1-18.5c13.2,0,16.9,5.3,17.1,18.6v1.1H323.1z M323.1,82.8h24.6
		c-0.4-7.8-2.3-12.3-12.3-12.5C325.3,70.5,323.5,74.9,323.1,82.8z"/>
	<path class="st0" d="M360.9,70c2.6-2.7,7-4,15.5-2.1v4.1c-11.4-2.6-15.5,1.4-15.5,8.6v22.2h-4.7V67.7h4.7V70z"/>
	<path class="st0" d="M394.2,86.1c-11.1,0-15.2-3-15.2-9.8v-0.1c0-6.8,4-9.6,13.9-9.6c7.7,0,11.7,2,13.4,6l-4,1.4
		c-1.7-2.8-3.1-3.7-9.4-3.7c-7.3,0-9,1.2-9,5.7c0,4.2,1.9,5.8,10.4,5.8c9.8,0,14.1,2.3,14.1,11.3c0,8.1-6.2,10.5-16,10.5
		c-7.8,0-12.3-1.9-13.7-6l4-1.4c1.8,2.8,3.5,3.5,9.7,3.5c7.3,0,11.4-1.5,11.4-6.7C403.6,87.1,401.4,86.1,394.2,86.1z"/>
</g>
</svg>
