<?xml version="1.0" encoding="utf-8"?>
<!-- Generator: Adobe Illustrator 22.1.0, SVG Export Plug-In . SVG Version: 6.00 Build 0)  -->
<svg version="1.1" id="Layer_1" xmlns="http://www.w3.org/2000/svg" xmlns:xlink="http://www.w3.org/1999/xlink" x="0px" y="0px"
	 viewBox="0 0 990.9 310" enable-background="new 0 0 990.9 310" xml:space="preserve">
<g transform="translate(-28.4 -46.6)">
	<g>
		<defs>
			<rect id="SVGID_1_" x="125.2" y="106.6" width="793.7" height="190.3"/>
		</defs>
		<clipPath id="SVGID_2_">
			<use xlink:href="#SVGID_1_"  overflow="visible"/>
		</clipPath>
		<path clip-path="url(#SVGID_2_)" fill="#00B4EC" d="M224.1,226.4l21,21l21-21l-21-21L224.1,226.4z M199.4,251.2l21,21l21-21
			l-21-21L199.4,251.2z M195.7,254.9l-21,21l21,21l21-21L195.7,254.9z M171,230.2l-21,21l21,21l21-21L171,230.2z M146.3,205.4
			l-21,21l21,21l21-21C167.3,226.4,146.3,205.4,146.3,205.4z M167.3,177l-21-21l-21,21l21,21C146.3,198,167.3,177,167.3,177z
			 M192,152.3l-21-21l-21,21l21,21L192,152.3z M195.7,148.6l21-21l-21-21l-21,21L195.7,148.6z M220.4,173.3l21-21l-21-21l-21,21
			L220.4,173.3z M245.1,198l21-21l-21-21l-21,21L245.1,198z M372,220.6c0-17.4-14.1-25.2-31.5-25.2h-12.6
			c-10.4,0-18.9-2.2-18.9-12.6c0-10.4,8.4-12.6,18.9-12.6h12.6c9.5,0,17.4,1.8,18.7,10.1v-0.1c0.1,1.4,1.3,2.5,2.7,2.5h7.6
			c1.4,0,2.4-1.1,2.4-2.4c-1.3-15.7-14.8-22.7-31.3-22.7H328c-17.4,0-31.5,7.8-31.5,25.2S310.6,208,328,208h12.6
			c10.4,0,18.9,2.2,18.9,12.6c0,10.4-8.5,12.6-18.9,12.6H328c-9.5,0-17.4-1.8-18.7-10.1v0.1c-0.1-1.4-1.3-2.5-2.7-2.5H299
			c-1.4,0-2.4,1.1-2.4,2.4c1.3,15.7,14.8,22.7,31.3,22.7h12.6C357.9,245.8,372,238,372,220.6 M455.2,220.6
			c0,10.4-8.4,12.6-18.9,12.6h-12.6c-10.4,0-18.9-2.2-18.9-12.6v-37.7c0-10.4,8.5-12.6,18.9-12.6h12.6c10.4,0,18.9,2.2,18.9,12.6
			V220.6z M467.8,220.6v-37.7c0-17.4-14.1-25.2-31.5-25.2h-12.6c-17.4,0-31.5,7.8-31.5,25.2v37.7c0,17.4,14.1,25.2,31.5,25.2h12.6
			C453.7,245.8,467.8,238,467.8,220.6"/>
	</g>
	<g>
		<defs>
			<rect id="SVGID_3_" x="125.2" y="106.6" width="793.7" height="190.3"/>
		</defs>
		<clipPath id="SVGID_4_">
			<use xlink:href="#SVGID_3_"  overflow="visible"/>
		</clipPath>
		<path clip-path="url(#SVGID_4_)" fill="#FFFFFF" d="M195.7,205.4l-21,21l21,21l21-21L195.7,205.4z M192,201.7l-21-21l-21,21l21,21
			L192,201.7z M195.7,198l21-21l-21-21l-21,21L195.7,198z M220.4,222.7l21-21l-21-21l-21,21L220.4,222.7z M550.4,157.7H522
			c-17.4,0-31.5,7.8-31.5,25.2V242c0,1.4,1.1,2.5,2.5,2.5h7.6c1.4,0,2.5-1.1,2.5-2.5v-34h22.6c1.4,0,2.5-1.1,2.5-2.5V198
			c0-1.4-1.1-2.5-2.5-2.5h-22.6v-12.6c0-10.4,8.5-12.6,18.9-12.6h19.3C542.8,164.8,546,160.6,550.4,157.7 M623.5,220.6
			c0,10.4-8.5,12.6-18.9,12.6H592c-10.4,0-18.9-2.2-18.9-12.6v-37.7c0-10.4,8.4-12.6,18.9-12.6h12.6c10.4,0,18.9,2.2,18.9,12.6
			V220.6z M636,220.6v-37.7c0-17.4-14.1-25.2-31.4-25.2H592c-17.4,0-31.5,7.8-31.5,25.2v37.7c0,17.4,14.1,25.2,31.5,25.2h12.6
			C622,245.8,636,238,636,220.6 M732.2,242l-17.8-30.8c-2.6-4.4-6.2-8.1-10.5-10.9c3.3-2.9,6-6.4,7.9-10.4l13.2-28.4
			c0.6-1.4,0-2.5-1.3-2.5h-8.8c-1.4,0-3,1.1-3.7,2.5l-10.8,23.1c-3,6.4-9.5,10.9-17.1,10.9h-12.6v-34c0-1.4-1.1-2.5-2.5-2.5h-7.5
			c-1.4,0-2.5,1.1-2.5,2.5V242c0,1.4,1.1,2.5,2.5,2.5h7.6c1.4,0,2.5-1.1,2.5-2.5v-34h16.4c7,0,13.1,3.8,16.3,9.4l14.2,24.5
			c0.8,1.4,2.6,2.5,4,2.5h9.5C732.6,244.5,733,243.4,732.2,242 M823.2,220.6v-59.1c0-1.4-1.1-2.5-2.5-2.5h-7.5
			c-1.4,0-2.5,1.1-2.5,2.5v59.1c0,10.4-8.5,12.6-18.9,12.6h-12.6c-10.4,0-18.9-2.2-18.9-12.6v-59.1c0-1.4-1.1-2.5-2.5-2.5h-7.5
			c-1.4,0-2.5,1.1-2.5,2.5v59.1c0,17.4,14.1,25.2,31.5,25.2h12.6C809.1,245.8,823.2,238,823.2,220.6 M887.5,195.4h-12.6
			c-10.4,0-18.9-2.2-18.9-12.6c0-10.4,8.5-12.6,18.9-12.6h12.6c9.5,0,17.4,1.8,18.7,10.1v-0.1c0.1,1.4,1.3,2.5,2.7,2.5h7.6
			c1.4,0,2.4-1.1,2.4-2.4c-1.3-15.7-14.8-22.7-31.3-22.7h-12.7c-17.4,0-31.5,7.8-31.5,25.2s14.1,25.2,31.5,25.2h12.6
			c10.4,0,18.9,2.2,18.9,12.6c0,10.4-8.4,12.6-18.9,12.6h-12.6c-9.5,0-17.4-1.8-18.7-10.1v0.1c-0.1-1.4-1.3-2.5-2.7-2.5h-7.6
			c-1.4,0-2.4,1.1-2.4,2.4c1.3,15.7,14.8,22.7,31.3,22.7h12.6c17.4,0,31.5-7.8,31.5-25.2S904.9,195.4,887.5,195.4"/>
	</g>
</g>
</svg>
