<svg version="1.1" id="Layer_1" xmlns="http://www.w3.org/2000/svg" x="0" y="0" viewBox="0 0 742.7 284.3" xml:space="preserve"><style>.st4{fill:#fff}</style><path class="st4" d="M117.4 135.5V189c0 13.9 10 14.1 29 13.1v30.1c-46.5 5.1-62.2-8.5-62.2-43.2v-53.5H61.9v-31.9h22.4v-26l33.2-10v36h29v31.9h-29.1zM289.4 103.7v128.5h-33.2V217c-9.3 11.6-23.1 18.8-41.9 18.8-34.2 0-62.5-29.6-62.5-67.8 0-38.3 28.3-67.8 62.5-67.8 18.8 0 32.6 7.2 41.9 18.8v-15.2h33.2zm-33.2 64.2c0-21.6-15.2-36.2-35.7-36.2-20.3 0-35.5 14.6-35.5 36.2s15.2 36.2 35.5 36.2c20.6.1 35.7-14.6 35.7-36.2zM302.2 67.9c0-11.1 9.3-20.6 20.3-20.6 11.3 0 20.6 9.5 20.6 20.6 0 11.1-9.3 20.3-20.6 20.3-11.1.1-20.3-9.2-20.3-20.3zm3.8 35.8h33.2v128.5H306V103.7zM454.9 194.7c0 27.8-24.2 41.1-51.7 41.1-25.7 0-44.7-10.8-54-30.6L378 189c3.6 10.5 12.3 16.7 25.2 16.7 10.5 0 17.7-3.6 17.7-11.1 0-18.8-66.3-8.5-66.3-53.7 0-26.2 22.4-40.9 48.8-40.9 20.8 0 38.8 9.5 48.8 27.2l-28.3 15.4c-3.9-8.2-11.1-13.1-20.6-13.1-8.2 0-14.9 3.6-14.9 10.5.2 19.2 66.5 7.4 66.5 54.7zM513.5 135.5V189c0 13.9 10 14.1 29 13.1v30.1c-46.5 5.1-62.2-8.5-62.2-43.2v-53.5h-22.4v-31.9h22.4v-26l33.2-10v36h29v31.9h-29zM618.9 205.7c12.9 0 23.1-5.4 28.8-12.8l26.7 15.4c-12.1 17.5-31.4 27.5-56 27.5-43.2 0-70.4-29.6-70.4-67.8 0-38.3 27.5-67.8 67.8-67.8 38 0 65 30.1 65 67.8 0 4.9-.5 9.3-1.3 13.6h-96.9c4.6 16.9 18.8 24.1 36.3 24.1zm28.7-49.9c-4.1-18.5-18-26-31.9-26-17.7 0-29.8 9.5-33.7 26h65.6z"/></svg>