<?xml version="1.0" encoding="utf-8"?>
<!-- Generator: Adobe Illustrator 22.1.0, SVG Export Plug-In . SVG Version: 6.00 Build 0)  -->
<svg version="1.1" id="Layer_1" xmlns="http://www.w3.org/2000/svg" xmlns:xlink="http://www.w3.org/1999/xlink" x="0px" y="0px"
	 viewBox="0 0 1295 450.1" enable-background="new 0 0 1295 450.1" xml:space="preserve">
<path fill="#F04E30" d="M371.2,328.9h52.7V119.8h-52.7V328.9z M1101.3,171.1v-51.3H943.2v51.3h52.7v157.8h52.7V171.1L1101.3,171.1z
	 M246,224.6l-52.7-104.8H134l112.2,212l111.8-212h-59.3L246,224.6z M868.5,119.8v209.1h52.7V119.8H868.5z M571.8,224.4L453.2,117
	v211.9H506v-92.6l118.6,103.9V119.8h-52.7L571.8,224.4z M752.6,280.1c-30.4,0-55-25-55-55.9s24.6-55.9,55-55.9
	c16.9,0,32.1,7.8,42.1,20l38.7-35.5C813.7,130.8,785,117,753,117c-59.7,0-108.1,48.1-108.1,107.4S693.3,331.8,753,331.7
	c39.5,0,74.1-21.1,92.9-52.5l-45.4-27.6C791.1,268.6,773.2,280.1,752.6,280.1z M803.9,201.4c-0.5,0.1-0.8,0.6-0.6,1
	c2.8,6.7,4.4,14,4.4,21.8c0,3.9-0.4,7.6-1.2,11.3c-0.1,0.5,0.4,1,0.9,0.9c4.9-0.7,8.1-1.4,10.1-2.1c18.3-6.7,19.1-25.7,18.6-33
	c-0.1-1.6-1.5-2.8-3.2-2.7L803.9,201.4z M766.2,205.7c0,3.8,3,6.9,6.8,6.9s6.8-3.1,6.8-6.9s-3-6.9-6.8-6.9
	C769.2,198.7,766.2,201.8,766.2,205.7z"/>
</svg>
