<svg xmlns="http://www.w3.org/2000/svg" viewBox="0 0 1295 450.1"><path fill="#F04E30" d="M371.2 328.9h52.7V119.8h-52.7v209.1zm730.1-157.8v-51.3H943.2v51.3h52.7v157.8h52.7V171.1h52.7zM246 224.6l-52.7-104.8H134l112.2 212 111.8-212h-59.3L246 224.6zm622.5-104.8v209.1h52.7V119.8h-52.7zM571.8 224.4L453.2 117v211.9H506v-92.6l118.6 103.9V119.8h-52.7l-.1 104.6zm180.8 55.7c-30.4 0-55-25-55-55.9s24.6-55.9 55-55.9c16.9 0 32.1 7.8 42.1 20l38.7-35.5C813.7 130.8 785 117 753 117c-59.7 0-108.1 48.1-108.1 107.4S693.3 331.8 753 331.7c39.5 0 74.1-21.1 92.9-52.5l-45.4-27.6c-9.4 17-27.3 28.5-47.9 28.5zm51.3-78.7c-.5.1-.8.6-.6 1 2.8 6.7 4.4 14 4.4 21.8 0 3.9-.4 7.6-1.2 11.3-.1.5.4 1 .9.9 4.9-.7 8.1-1.4 10.1-2.1 18.3-6.7 19.1-25.7 18.6-33-.1-1.6-1.5-2.8-3.2-2.7l-29 2.8zm-37.7 4.3c0 3.8 3 6.9 6.8 6.9s6.8-3.1 6.8-6.9-3-6.9-6.8-6.9c-3.8-.1-6.8 3-6.8 6.9z"/></svg>