<?xml version="1.0" standalone="no"?>
<!DOCTYPE svg PUBLIC "-//W3C//DTD SVG 20010904//EN"
 "http://www.w3.org/TR/2001/REC-SVG-20010904/DTD/svg10.dtd">
<svg version="1.0" xmlns="http://www.w3.org/2000/svg"
 width="300.000000pt" height="300.000000pt" viewBox="0 0 300.000000 300.000000"
 preserveAspectRatio="xMidYMid meet">
<metadata>
Created by potrace 1.11, written by Peter Selinger 2001-2013
</metadata>
<g transform="translate(0.000000,300.000000) scale(0.100000,-0.100000)"
fill="#000000" stroke="none">
<path d="M1161 2635 l-57 -54 -29 20 c-58 39 -99 51 -173 51 -64 1 -82 -4
-140 -33 -57 -29 -68 -40 -80 -74 -8 -22 -19 -52 -24 -67 -8 -21 -40 -42 -151
-100 -166 -85 -232 -143 -285 -251 -59 -120 -73 -185 -73 -344 0 -79 2 -146 4
-150 3 -5 8 -24 11 -43 11 -72 66 -219 130 -350 l66 -135 -160 -5 c-135 -4
-162 -8 -177 -23 -16 -16 -18 -47 -21 -345 -2 -180 -1 -341 3 -357 12 -66 -91
-62 1500 -60 792 1 1445 3 1451 4 6 0 19 16 28 33 16 30 17 67 14 370 -3 308
-5 339 -21 355 -17 17 -59 18 -707 18 -380 0 -690 3 -690 7 0 21 96 30 335 34
639 10 730 13 786 27 78 20 132 40 147 55 7 6 17 12 22 12 15 0 49 65 54 103
5 45 -9 55 -76 52 -45 -2 -46 -2 -53 31 -7 42 -17 43 -46 3 l-22 -32 -96 7
c-53 3 -99 6 -103 6 -5 0 -8 4 -8 8 0 4 24 16 53 27 73 26 220 100 237 120 19
23 1 37 -52 37 -55 0 -103 -13 -221 -59 -109 -42 -206 -69 -265 -76 -41 -4
-45 -3 -56 24 l-12 29 -24 -25 c-24 -25 -28 -25 -115 -10 -11 2 -26 4 -32 4
-7 1 -13 7 -13 14 0 7 49 28 121 50 121 38 259 98 332 146 32 20 42 23 58 13
26 -17 29 -15 29 13 0 18 14 36 53 66 28 22 77 65 108 95 36 34 62 52 72 48
11 -4 17 3 22 26 4 17 25 50 46 73 39 41 40 43 34 99 -7 67 -12 95 -19 107 -3
5 -8 25 -12 45 -8 51 -57 167 -92 218 -40 58 -115 126 -160 145 -84 35 -127
42 -254 41 -211 -1 -315 -31 -883 -255 -49 -19 -115 -44 -145 -54 l-55 -19 51
47 c87 80 93 112 38 194 -80 119 -116 127 -203 44z m823 -1144 c4 -5 -3 -7
-14 -4 -23 6 -26 13 -6 13 8 0 17 -4 20 -9z"/>
</g>
</svg>
