<?xml version="1.0" encoding="utf-8"?>
<!-- Generator: Adobe Illustrator 22.1.0, SVG Export Plug-In . SVG Version: 6.00 Build 0)  -->
<svg version="1.1" id="Layer_1" xmlns="http://www.w3.org/2000/svg" xmlns:xlink="http://www.w3.org/1999/xlink" x="0px" y="0px"
	 viewBox="0 0 352 276" style="enable-background:new 0 0 352 276;" xml:space="preserve">
<style type="text/css">
	.st0{fill:#EEEEEE;}
</style>
<path class="st0" d="M242.7,11.4l100.3,105c6,5.8,9,13.7,9,22.4c0,8.7-3,16.5-9,22.4L242.7,266.6c-11.9,12.5-31.3,12.5-43.2,0
	c-11.9-12.5-11.9-32.7,0-45.2l48.2-50.4h-217C13.7,171,0,156.7,0,139c0-17.7,13.7-32,30.6-32h217l-48.2-50.4
	c-11.9-12.5-11.9-32.7,0-45.2C211.4-1.1,230.7-1.1,242.7,11.4z"/>
</svg>
