<svg class="landing__nav__container__link__icon" xmlns="http://www.w3.org/2000/svg" width="300" height="187.965" viewBox="0 0 79.375 49.732"><path d="M37.254 49.506c-.568-.113-1.255-.303-1.528-.421l-.496-.216.575-1.537c.317-.845.612-1.572.656-1.615.045-.043.509.022 1.032.145 1.243.293 2.644.288 3.798-.013.511-.133.948-.222.97-.198.023.024.304.686.625 1.472.32.786.618 1.51.661 1.61.162.378-2.676 1.02-4.388.993a12.944 12.944 0 0 1-1.905-.22zm-7.013-3.75c-1.379-1.344-2.507-3.002-3.08-4.525-.219-.58-.377-1.073-.351-1.096.073-.066 3.088-.87 3.264-.87.088 0 .277.292.42.65.423 1.055 1.245 2.223 2.276 3.23l.965.942-.695.883a76.444 76.444 0 0 1-1.145 1.42l-.45.538-1.204-1.172zm15.764-.498l-1.11-1.31.497-.516c.273-.284.562-.516.642-.516.08 0 .714.553 1.409 1.229l1.263 1.229-.64.596c-.352.329-.71.597-.796.597-.086 0-.655-.59-1.265-1.31zm-35.977-1.734c-.35-.182-.66-.352-.69-.38-.032-.027.323-.761.788-1.632l.844-1.583.76.385.759.385-.795 1.585c-.438.871-.849 1.581-.913 1.578-.065-.004-.404-.156-.753-.338zM5.262 40.51c-1.842-1.465-3.55-3.437-4.347-5.017-.341-.677-.341-.677.02-.815.2-.076.965-.372 1.703-.657.914-.352 1.361-.458 1.404-.332.292.878 2.048 2.89 3.49 4l.522.402-1.045 1.46c-.575.804-1.06 1.461-1.08 1.461-.02 0-.32-.226-.667-.502zm69.184-2.418c-1.24-.822-1.445-1.018-1.349-1.287.257-.719.118-2.843-.258-3.941-.204-.597-.346-1.103-.317-1.126.303-.237 3.209-1.205 3.307-1.102.07.075.322.744.558 1.486.77 2.423.68 5.2-.21 6.537-.268.402-.268.402-1.73-.567zM28.84 36.09c-.742-.433-1.42-.812-1.508-.843-.22-.079.596-1.214 1.226-1.706.286-.223.984-.682 1.552-1.019a35.432 35.432 0 0 0 2.114-1.39c.595-.427 1.143-.754 1.217-.727.172.063 2.066 2.534 2.066 2.696 0 .177-1.631 1.358-3.095 2.24-.699.421-1.453.94-1.676 1.154-.223.214-.437.387-.476.385-.039-.002-.678-.357-1.42-.79zM1.38 30.503C.725 30.42.157 30.32.116 30.28c-.151-.152.316-1.893.766-2.856.714-1.524 2.776-4.352 3.175-4.352.063 0 .635.573 1.27 1.273l1.154 1.272-.651.778c-.92 1.098-1.728 2.49-2.012 3.464-.276.948-.189.925-2.44.644zm35.912-1.275l-1.312-1.324.736-.71c.85-.819 2.485-2.954 2.931-3.828l.306-.6 1.31.566c.72.31 1.471.628 1.67.705.361.142.361.142-.024.898-.542 1.065-2.147 3.26-3.316 4.536l-.99 1.08-1.311-1.323zm14.738.442c-.91-.183-1.682-.414-1.715-.514-.063-.188.87-5.146.992-5.267.037-.038.82.06 1.738.218 1.339.23 1.671.34 1.671.55 0 .26-.95 5.306-1.004 5.332-.015.007-.772-.136-1.682-.319zm18.848-2.192c-.112-.373-.203-1.491-.205-2.5-.002-1.693.03-1.89.445-2.7.246-.48.75-1.219 1.12-1.641l.673-.769 1.37 1.152 1.37 1.152-.692.887c-.835 1.07-.972 1.686-.667 3.007.168.727.182 1.017.051 1.066-.726.268-3.041 1.02-3.14 1.02-.068 0-.214-.303-.325-.674zM8.126 21.953c-.584-.795-1.038-1.465-1.009-1.488 1.133-.892 4.199-2.541 5.943-3.199l.969-.364.51 1.673c.28.92.472 1.71.427 1.756-.046.045-.641.31-1.324.59-1.123.46-2.61 1.269-3.955 2.151-.5.328-.5.328-1.561-1.119zm45.082-1.535c-.698-.132-1.29-.259-1.315-.28-.309-.27 1.722-4.595 2.109-4.49.354.095 2.935 1.639 2.936 1.756 0 .069-.32.674-.714 1.346-.393.67-.714 1.382-.714 1.58 0 .438-.383.452-2.302.088zm-12.845-.705c-.14-.292-.498-.697-.798-.9-.568-.387-2.27-.98-2.812-.98-.223 0-.292-.08-.238-.277.042-.153.202-.97.356-1.816.32-1.77.146-1.7 2.471-.978 2.241.696 3.916 2.151 4.515 3.924.316.936.304.947-1.344 1.205-.666.105-1.366.226-1.554.27-.27.064-.398-.032-.596-.448zm36.003-1.681l-1.45-.887.376-.807c.538-1.154.504-2.003-.108-2.7-.32-.365-.443-.628-.357-.768.425-.698 1.872-2.656 1.962-2.656.256 0 1.786 1.81 2.067 2.445.424.96.553 2.403.307 3.448-.234.995-1.032 2.844-1.22 2.825-.07-.007-.78-.412-1.577-.9zm-5.563-6.49c-.66-.235-.66-.235-.353-1.297.17-.585.387-1.37.484-1.747.113-.44.247-.656.376-.607.11.043.494.165.852.273.358.107.652.27.652.36 0 .415-1.039 3.276-1.185 3.265-.09-.007-.462-.118-.826-.247z" fill="#27251d"/><g stroke="#27251d" stroke-width="18.052" fill="none"><path d="M30.029 8.776L19.452 24.155M32.43 21.754L17.05 11.177" stroke-width="4.81158008"/></g><g stroke="#27251d" stroke-width="21.264" fill="none"><path d="M69.585 5.637l-15.15 5.566M64.793 15.994L59.227.845" stroke-width="4.900926719999999"/></g><g stroke="#27251d" stroke-width="21.77" fill="none"><path d="M56.806 33.178l-13.87 7.49M53.616 43.859l-7.491-13.87" stroke-width="4.900862399999999"/></g><g fill="#27251d"><path d="M17.793 38.98a5.12 5.12 0 1 0 0 10.24 5.12 5.12 0 0 0 0-10.24zm0 1.37a3.75 3.75 0 1 1 0 7.5 3.75 3.75 0 0 1 0-7.5z"/><path d="M17.793 41.66a2.44 2.44 0 1 0 0 4.879 2.44 2.44 0 0 0 0-4.878z"/></g><g fill="#27251d"><path d="M67.773 37.507a5.12 5.12 0 1 0 0 10.239 5.12 5.12 0 0 0 0-10.24zm0 1.37a3.75 3.75 0 1 1 0 7.5 3.75 3.75 0 0 1 0-7.5z"/><path d="M67.773 40.187a2.44 2.44 0 1 0 0 4.879 2.44 2.44 0 0 0 0-4.879z"/></g></svg>