<svg viewBox="0 0 473.5 498.2" xmlns="http://www.w3.org/2000/svg"><path d="M473.5 436.4c0 34.2-27.7 61.9-61.9 61.9H61.9C27.7 498.2 0 470.5 0 436.4V86.6c0-34.2 27.7-61.9 61.9-61.9h349.7c34.2 0 61.9 27.7 61.9 61.9v349.8z" fill="#2a679e"/><path d="M473.5 411.6c0 34.2-27.7 61.9-61.9 61.9H61.9C27.7 473.5 0 445.8 0 411.6V61.9C0 27.7 27.7 0 61.9 0h349.7c34.2 0 61.9 27.7 61.9 61.9v349.7z" fill="#64a9dc"/><path d="M472.6 422.3c.1-.8.3-1.6.4-2.4 0-.2 0-.3.1-.5.1-.7.2-1.4.2-2.2 0-.4.1-.7.1-1.1 0-.5.1-1.1.1-1.6 0-1 .1-1.9.1-2.9V201.8c-.7-.6-1.3-1.3-2-1.9-2.1-2.1-4.1-4.2-6.3-6.2-2.1-2-4.1-4.3-6.3-6.2-1.9-2.2-4.2-4.1-6.2-6.3-2-2.1-4.2-4.2-6.2-6.3-2.1-2.1-4.1-4.2-6.3-6.2-2.1-2-4.1-4.3-6.3-6.2-1.9-2.2-4.2-4.1-6.2-6.3-2-2.1-4.2-4.2-6.2-6.3-2.1-2.1-4.1-4.2-6.3-6.2-2.1-2-4.1-4.3-6.3-6.2-1.9-2.2-4.2-4.1-6.2-6.3-2-2.1-4.2-4.2-6.2-6.3-4.1-4.1-8.1-8.3-12.3-12.3-3.8-3.6-9.3-4-14-2.4-.8.3-1.5.6-2.3.9-1 .4-2.1.8-3.1 1.2-4.9 1.9-9.9 3.8-14.8 5.7-8.1 3.1-16.2 6.2-24.2 9.3-10.4 4-20.7 8-31.1 12-11.8 4.6-23.6 9.1-35.4 13.7-12.4 4.8-24.8 9.6-37.2 14.3-12.1 4.7-24.3 9.4-36.4 14-11 4.2-22 8.5-33 12.7-9.1 3.5-18.1 7-27.2 10.5-6.2 2.4-12.5 4.8-18.7 7.2l-7.8 3c-2.9 1.1-5.8 2.6-8.4 4.4s-5.6 4.5-5.8 7.9c-.3 3.6 2.9 6 5.2 8.3 2.1 2.1 4.1 4.2 6.3 6.2 2.1 2 4.1 4.3 6.3 6.2 1.9 2.2 4.2 4.1 6.2 6.3 2 2.1 4.2 4.2 6.2 6.3 2.1 2.1 4.1 4.2 6.3 6.2 2.1 2 4.1 4.3 6.3 6.2 1.9 2.2 4.2 4.1 6.2 6.3 2 2.1 4.2 4.2 6.2 6.3 2.1 2.1 4.1 4.2 6.3 6.2 2.1 2 4.1 4.3 6.3 6.2 1.9 2.2 4.2 4.1 6.2 6.3 2 2.1 4.2 4.2 6.2 6.3 2.1 2.1 4.1 4.2 6.3 6.2 2.1 2 4.1 4.3 6.3 6.2 1.9 2.2 4.2 4.1 6.2 6.3l3 3c.4.4.5.9.7 1.5.5 1.4.9 2.8 1.4 4.2.8 2.3 1.2 4.6 2.1 6.9.7 1.8 2 2.9 3.3 4.2 1.6 1.7 3.4 3.3 5 5 3.2 3.4 6.8 6.6 10 10s6.8 6.6 10 10 6.8 6.6 10 10 6.8 6.6 10 10 6.8 6.6 10 10 6.8 6.6 10 10 6.8 6.6 10 10 6.8 6.6 10 10 6.8 6.6 10 10 6.8 6.6 10 10 6.8 6.6 10 10c3.1 3.3 6.5 6.3 9.6 9.6h92.8c30.4.1 55.7-22 60.8-51.1z" fill="#3c7ec8"/><path d="M368.2 110.9L98.9 214.8c-18.4 7.4-18.3 17.6-3.3 22.2l67.2 21 25.7 78.8c3.1 8.6 1.6 12 10.6 12 7 0 10.1-3.2 14-7 2.5-2.4 17.2-16.7 33.6-32.7l69.9 51.6c12.9 7.1 22.1 3.4 25.3-11.9l45.9-216.1c4.6-18.8-7.3-27.3-19.6-21.8zM173.3 253.1l151.4-95.5c7.6-4.6 14.5-2.1 8.8 2.9l-129.7 117-5 53.8-25.5-78.2z" fill="#fff"/></svg>