<svg class="landing__nav__container__link__icon" xmlns="http://www.w3.org/2000/svg" width="300" height="148.054" viewBox="0 0 79.375 39.173"><g fill="#27251d"><path d="M32.636 19.344a17.048 17.048 0 0 0-12.983 16.593v3.236h40.069v-3.236c0-8.047-5.508-14.76-12.975-16.591a11.262 10.84 0 0 1-7.06 2.397 11.262 10.84 0 0 1-7.05-2.4zM33.98 21.1a9.116 8.774 0 0 0 5.707 1.942 9.116 8.774 0 0 0 5.714-1.94A13.798 13.798 0 0 1 55.903 34.53v2.618H23.472v-2.618c0-6.516 4.461-11.95 10.508-13.431z"/><path d="M39.688 2.137a11.32 10.895 0 0 0-11.32 10.895 11.32 10.895 0 0 0 11.32 10.895 11.32 10.895 0 0 0 11.319-10.895 11.32 10.895 0 0 0-11.32-10.895zm0 2.146a9.09 8.75 0 0 1 9.09 8.75 9.09 8.75 0 0 1-9.09 8.749 9.09 8.75 0 0 1-9.091-8.75 9.09 8.75 0 0 1 9.09-8.75z"/><path d="M54.468 24.554a15.91 15.91 0 0 1 3.936 10.517v3.023H47.996v.171h30.471v-2.46c0-6.12-4.188-11.225-9.867-12.618a8.565 8.244 0 0 1-5.369 1.823 8.565 8.244 0 0 1-5.362-1.825c-1.21.296-2.353.762-3.401 1.37zM31.38 38.094H20.97V35.07a15.91 15.91 0 0 1 3.937-10.517 12.913 12.913 0 0 0-3.395-1.367 8.565 8.244 0 0 1-5.369 1.823 8.565 8.244 0 0 1-5.362-1.825 12.965 12.965 0 0 0-9.873 12.62v2.46h30.471z" stroke="#27251d" stroke-width="1.815" stroke-linejoin="round" stroke-dashoffset="100"/><path d="M16.144 6.85A10.303 9.916 0 0 0 5.84 16.766a10.303 9.916 0 0 0 10.303 9.917 10.303 9.916 0 0 0 10.302-9.917A10.303 9.916 0 0 0 16.144 6.85zm0 3.4a6.77 6.517 0 0 1 6.77 6.516 6.77 6.517 0 0 1-6.77 6.517 6.77 6.517 0 0 1-6.77-6.517 6.77 6.517 0 0 1 6.77-6.516z"/><g transform="translate(-402.39 -238.486) scale(1.00532)" stroke="none" stroke-width="0"><rect ry="0" y="247.939" x="430.886" height="1.265" width="1.265"/><rect width="1.265" height="1.265" x="432.15" y="247.939" ry="0"/><rect ry="0" y="247.939" x="433.415" height="1.265" width="1.265"/><rect ry="0" y="247.939" x="435.944" height="1.265" width="1.265"/><rect width="1.265" height="1.265" x="437.209" y="247.939" ry="0"/><rect width="1.265" height="1.265" x="441.002" y="247.939" ry="0"/><rect ry="0" y="247.939" x="442.267" height="1.265" width="1.265"/><rect width="1.265" height="1.265" x="443.531" y="247.939" ry="0"/><rect ry="0" y="247.939" x="444.796" height="1.265" width="1.265"/><rect ry="0" y="247.939" x="447.324" height="1.265" width="1.265"/><rect ry="0" y="249.203" x="430.886" height="1.265" width="1.265"/><rect width="1.265" height="1.265" x="432.15" y="249.203" ry="0"/><rect width="1.265" height="1.265" x="434.679" y="249.203" ry="0"/><rect ry="0" y="249.203" x="435.944" height="1.265" width="1.265"/><rect width="1.265" height="1.265" x="442.266" y="249.203" ry="0"/><rect ry="0" y="249.203" x="443.531" height="1.265" width="1.265"/><rect ry="0" y="249.203" x="446.06" height="1.265" width="1.265"/><rect width="1.265" height="1.265" x="447.324" y="249.203" ry="0"/><rect width="1.265" height="1.265" x="443.531" y="249.203" ry="0"/><rect width="1.265" height="1.265" x="446.06" y="249.203" ry="0"/><rect ry="0" y="249.203" x="447.324" height="1.265" width="1.265"/><rect ry="0" y="250.468" x="443.531" height="1.265" width="1.265"/><rect width="1.265" height="1.265" x="444.796" y="250.468" ry="0"/><rect ry="0" y="250.468" x="446.06" height="1.265" width="1.265"/><rect width="1.265" height="1.265" x="432.15" y="250.468" ry="0"/><rect ry="0" y="250.468" x="433.415" height="1.265" width="1.265"/><rect width="1.265" height="1.265" x="434.679" y="250.468" ry="0"/><rect width="1.265" height="1.265" x="432.15" y="246.674" ry="0"/><rect ry="0" y="246.674" x="433.415" height="1.265" width="1.265"/><rect width="1.265" height="1.265" x="434.679" y="246.674" ry="0"/><rect ry="0" y="246.674" x="435.944" height="1.265" width="1.265"/><rect width="1.265" height="1.265" x="437.208" y="246.674" ry="0"/><rect ry="0" y="246.674" x="438.473" height="1.265" width="1.265"/><rect ry="0" y="246.674" x="430.886" height="1.265" width="1.265"/><rect width="1.265" height="1.265" x="429.621" y="246.674" ry="0"/><rect ry="0" y="246.674" x="442.267" height="1.265" width="1.265"/><rect width="1.265" height="1.265" x="443.531" y="246.674" ry="0"/><rect ry="0" y="246.674" x="444.796" height="1.265" width="1.265"/><rect width="1.265" height="1.265" x="447.324" y="246.674" ry="0"/><rect ry="0" y="246.674" x="446.06" height="1.265" width="1.265"/><rect width="1.265" height="1.265" x="448.589" y="246.674" ry="0"/><rect width="1.265" height="1.265" x="441.002" y="246.674" ry="0"/><rect ry="0" y="246.674" x="439.737" height="1.265" width="1.265"/></g><path d="M63.232 6.85a10.303 9.916 0 0 0-10.303 9.916 10.303 9.916 0 0 0 10.303 9.917 10.303 9.916 0 0 0 10.302-9.917A10.303 9.916 0 0 0 63.232 6.85zm0 3.4a6.77 6.517 0 0 1 6.77 6.516 6.77 6.517 0 0 1-6.77 6.517 6.77 6.517 0 0 1-6.77-6.517 6.77 6.517 0 0 1 6.77-6.516z"/><path d="M33.016 19.878a16.129 16.129 0 0 0-12.283 15.7v3.06h37.909v-3.06A16.128 16.128 0 0 0 46.366 19.88a10.655 10.256 0 0 1-6.679 2.269 10.655 10.256 0 0 1-6.67-2.27zm1.272 1.662a8.624 8.3 0 0 0 5.4 1.837 8.624 8.3 0 0 0 5.405-1.836 13.054 13.054 0 0 1 9.936 12.705v2.478H24.346v-2.478c0-6.164 4.221-11.306 9.942-12.706z"/></g></svg>