<svg class="landing__nav__container__link__icon"  xmlns="http://www.w3.org/2000/svg" width="300" height="300" viewBox="0 0 79.375 79.375"><g fill="#27251d" stroke="#27251d" stroke-width="2.774" stroke-linecap="round" stroke-linejoin="round"><path d="M39.687.169A39.519 39.519 0 0 0 .17 39.687a39.519 39.519 0 0 0 39.518 39.52 39.519 39.519 0 0 0 39.52-39.52A39.519 39.519 0 0 0 39.686.17zm0 7.142a32.377 32.377 0 0 1 32.377 32.376 32.377 32.377 0 0 1-32.377 32.377A32.377 32.377 0 0 1 7.311 39.687 32.377 32.377 0 0 1 39.687 7.311z" stroke-width=".33794616"/><g transform="translate(-170.917 -396.775) scale(1.70635)" stroke-width=".274"><ellipse cx="123.424" cy="244.186" rx="5.074" ry="4.885"/><rect width="10.154" height="21.411" x="118.347" y="250.609" ry="1.304"/></g></g></svg>