<?xml version="1.0" standalone="no"?>
<!DOCTYPE svg PUBLIC "-//W3C//DTD SVG 20010904//EN"
 "http://www.w3.org/TR/2001/REC-SVG-20010904/DTD/svg10.dtd">
<svg version="1.0" xmlns="http://www.w3.org/2000/svg"
 width="500.000000pt" height="500.000000pt" viewBox="0 0 500.000000 500.000000"
 preserveAspectRatio="xMidYMid meet">
<metadata>
Created by potrace 1.11, written by Peter Selinger 2001-2013
</metadata>
<g transform="translate(0.000000,500.000000) scale(0.100000,-0.100000)"
fill="#000000" stroke="none">
<path d="M1 3448 c0 -1203 3 -1547 12 -1528 7 13 129 288 273 610 l261 585
152 0 152 0 274 -614 c151 -337 275 -619 275 -627 0 -11 -30 -14 -157 -14
l-158 0 -54 135 -54 135 -281 0 -281 0 -54 -135 -55 -135 -153 0 -153 0 0
-225 0 -225 154 0 154 0 158 -270 c88 -148 162 -270 165 -270 3 0 77 121 165
270 l159 270 148 0 c111 0 147 -3 147 -12 0 -7 -108 -193 -240 -413 l-240
-400 0 -218 0 -218 -152 3 -153 3 -5 230 -5 230 -223 369 c-122 203 -225 372
-227 375 -3 2 -5 -302 -5 -677 l0 -682 2500 0 2500 0 0 2500 0 2500 -2500 0
-2500 0 1 -1552z m974 1367 c320 -88 517 -374 477 -693 -44 -350 -341 -579
-727 -559 -195 10 -340 71 -465 197 -122 121 -180 264 -180 440 0 317 221 571
548 630 70 13 278 4 347 -15z m1695 11 c145 -31 240 -86 312 -181 98 -129 106
-356 17 -497 -100 -156 -257 -218 -558 -218 l-161 0 -2 -172 -3 -173 -152 -3
-153 -3 0 631 0 630 318 0 c232 0 334 -4 382 -14z m1310 -276 c0 -154 3 -280
8 -280 4 0 124 126 267 280 l260 280 162 0 c89 0 164 -4 167 -9 3 -4 -109
-133 -249 -286 l-254 -278 265 -330 c146 -181 268 -336 271 -343 4 -12 -25
-14 -170 -14 l-176 0 -187 228 c-103 125 -191 231 -196 237 -5 6 -39 -22 -88
-70 l-80 -80 0 -157 0 -158 -150 0 -150 0 0 630 0 630 150 0 150 0 0 -280z
m-950 -1545 l0 -125 -200 0 -200 0 0 -505 0 -506 -152 3 -153 3 -3 503 -2 502
-195 0 -195 0 0 125 0 125 550 0 550 0 0 -125z m950 -165 c0 -154 3 -280 8
-280 4 0 124 126 267 280 l260 280 162 0 c89 0 164 -4 167 -9 3 -4 -109 -133
-249 -286 l-254 -278 265 -330 c146 -181 268 -336 271 -343 4 -12 -25 -14
-170 -14 l-176 0 -187 228 c-103 125 -191 231 -196 237 -5 6 -39 -22 -88 -70
l-80 -80 0 -157 0 -158 -150 0 -150 0 0 630 0 630 150 0 150 0 0 -280z m-950
-1545 l0 -125 -200 0 -200 0 0 -505 0 -506 -152 3 -153 3 -3 503 -2 502 -195
0 -195 0 0 125 0 125 550 0 550 0 0 -125z m1350 101 c145 -31 240 -86 312
-181 98 -129 106 -356 17 -497 -100 -156 -257 -218 -558 -218 l-161 0 -2 -173
-3 -172 -152 -3 -153 -3 0 631 0 630 318 0 c232 0 334 -4 382 -14z"/>
<path d="M660 4555 c-74 -21 -130 -56 -179 -111 -60 -69 -85 -140 -85 -249 0
-121 27 -189 103 -266 77 -77 144 -103 271 -103 87 -1 101 2 162 31 152 72
227 214 207 394 -19 175 -163 305 -347 315 -50 3 -96 -1 -132 -11z"/>
<path d="M2280 4385 l0 -205 130 0 c205 0 274 24 318 110 44 87 18 208 -56
257 -48 32 -117 43 -262 43 l-130 0 0 -205z"/>
<path d="M3990 955 l0 -205 130 0 c205 0 274 24 318 110 44 87 18 208 -56 257
-48 32 -117 43 -262 43 l-130 0 0 -205z"/>
<path d="M610 2593 c-45 -109 -85 -204 -87 -210 -4 -10 35 -13 175 -13 l180 0
-85 203 c-47 111 -88 206 -92 210 -5 4 -45 -81 -91 -190z"/>
</g>
</svg>
