<?xml version="1.0" encoding="UTF-8"?>
<svg width="685" height="496" version="1.1" viewBox="0 0 193.32222 139.98223" xmlns="http://www.w3.org/2000/svg" xmlns:cc="http://creativecommons.org/ns#" xmlns:dc="http://purl.org/dc/elements/1.1/" xmlns:rdf="http://www.w3.org/1999/02/22-rdf-syntax-ns#" xmlns:xlink="http://www.w3.org/1999/xlink">
<defs>
<linearGradient id="a">
<stop stop-color="#eab90c" offset="0"/>
<stop stop-color="#ff0af9" stop-opacity="0" offset="1"/>
</linearGradient>
<linearGradient id="f">
<stop stop-color="#9c0895" offset="0"/>
<stop stop-color="#ff0af9" stop-opacity="0" offset="1"/>
</linearGradient>
<linearGradient id="g">
<stop stop-color="#50017a" offset="0"/>
<stop stop-color="#f032ec" offset="1"/>
</linearGradient>
<linearGradient id="q">
<stop stop-color="#ffd7a3" offset="0"/>
<stop stop-color="#b62455" offset="1"/>
</linearGradient>
<linearGradient id="b">
<stop stop-color="#161e4e" offset="0"/>
<stop stop-color="#5775b2" offset="1"/>
</linearGradient>
<linearGradient id="d">
<stop stop-color="#0b013d" offset="0"/>
<stop stop-color="#57ceb2" offset="1"/>
</linearGradient>
<radialGradient id="p" cx="-650.77" cy="-41.209" r="36.51" gradientTransform="matrix(1.1618 .18603 -.024339 .152 951.37 -756.81)" gradientUnits="userSpaceOnUse">
<stop stop-color="#8e0303" offset="0"/>
<stop stop-color="#ff2a2a" offset="1"/>
</radialGradient>
<linearGradient id="e" x1="-659.26" x2="-611.02" y1="-384.24" y2="-393.4" gradientTransform="translate(593.88 -512.39)" gradientUnits="userSpaceOnUse" xlink:href="#b"/>
<filter id="c" x="-.018185" y="-.035282" width="1.0364" height="1.0706" color-interpolation-filters="sRGB">
<feGaussianBlur stdDeviation="0.59721805"/>
</filter>
<linearGradient id="ab" x1="-659.26" x2="-611.02" y1="-384.24" y2="-393.4" gradientTransform="translate(593.88 -513.98)" gradientUnits="userSpaceOnUse" xlink:href="#b"/>
<linearGradient id="aa" x1="-326.37" x2="-309.6" y1="-756.99" y2="-765.41" gradientTransform="translate(835.97 46.826)" gradientUnits="userSpaceOnUse" xlink:href="#g"/>
<radialGradient id="o" cx="-707.73" cy="-369.64" r="16.414" gradientTransform="matrix(.14537 .75388 -1.9461 .37526 -1327.1 307.41)" gradientUnits="userSpaceOnUse" xlink:href="#d"/>
<filter id="ac" x="-.0082648" y="-.021896" width="1.0165" height="1.0438" color-interpolation-filters="sRGB">
<feGaussianBlur stdDeviation="0.11305112"/>
</filter>
<linearGradient id="z" x1="-320.87" x2="-317.69" y1="-755.93" y2="-758.45" gradientTransform="translate(835.97 46.826)" gradientUnits="userSpaceOnUse">
<stop stop-color="#eab90c" offset="0"/>
<stop stop-color="#6d006a" offset="1"/>
</linearGradient>
<linearGradient id="y" x1="-315.35" x2="-326.77" y1="-761.9" y2="-756.56" gradientTransform="translate(835.97 46.826)" gradientUnits="userSpaceOnUse" xlink:href="#a"/>
<radialGradient id="n" cx="-318.66" cy="-762.86" r="7.5282" gradientTransform="matrix(1.2219 1.8845 -.28756 .12192 687.67 -20.282)" gradientUnits="userSpaceOnUse" xlink:href="#a"/>
<radialGradient id="m" cx="-319.05" cy="-744.19" r="7.5282" gradientTransform="matrix(1.9985 3.6514 -.47573 .056928 795.39 495.01)" gradientUnits="userSpaceOnUse">
<stop stop-color="#9b0196" offset="0"/>
<stop stop-color="#ff0af9" stop-opacity="0" offset="1"/>
</radialGradient>
<radialGradient id="l" cx="-318.92" cy="-779.02" r="7.5282" gradientTransform="matrix(1.4592 1.7607 -.49778 .239 600.32 31.034)" gradientUnits="userSpaceOnUse" xlink:href="#f"/>
<radialGradient id="k" cx="-678.39" cy="-399.24" r="5.9546" gradientTransform="matrix(2.2762 1.7227 -.32923 .43502 1602.6 426.72)" gradientUnits="userSpaceOnUse" xlink:href="#a"/>
<radialGradient id="j" cx="-678.02" cy="-418.08" r="5.9546" gradientTransform="matrix(2.427 1.5028 -.16708 .26982 1770.4 210.9)" gradientUnits="userSpaceOnUse" xlink:href="#f"/>
<radialGradient id="i" cx="-678.59" cy="-411.93" r="5.9546" gradientTransform="matrix(1.5438 .87435 -.11762 .20768 1191 -241.87)" gradientUnits="userSpaceOnUse" xlink:href="#a"/>
<radialGradient id="h" cx="-679.69" cy="-398.37" r="5.9546" gradientTransform="matrix(1.7893 1.316 -.11452 .1557 1360.9 37.806)" gradientUnits="userSpaceOnUse" xlink:href="#a"/>
<linearGradient id="x" x1="636.01" x2="636.75" y1="-3301.8" y2="-3045.8" gradientTransform="matrix(.26458 -.070895 0 .26458 -205.55 5.6445)" gradientUnits="userSpaceOnUse">
<stop stop-color="#800080" offset="0"/>
<stop offset="1"/>
</linearGradient>
<linearGradient id="w" x1="636.01" x2="636.75" y1="-3301.8" y2="-3045.8" gradientTransform="matrix(.26458 -.070895 0 .26458 -205.55 5.6445)" gradientUnits="userSpaceOnUse">
<stop stop-color="#570118" offset="0"/>
<stop stop-color="#570166" offset="1"/>
</linearGradient>
<linearGradient id="v" x1="-688.33" x2="-616.68" y1="-362.66" y2="-402.5" gradientTransform="matrix(.9694 .24548 -.24548 .9694 728.15 -358.11)" gradientUnits="userSpaceOnUse" xlink:href="#d"/>
<linearGradient id="u" x1="-679.1" x2="-675" y1="-398.74" y2="-406.88" gradientTransform="matrix(.9694 .24548 -.24548 .9694 750.3 -359.98)" gradientUnits="userSpaceOnUse" xlink:href="#g"/>
<linearGradient id="t" x1="-2662.2" x2="-2605.7" y1="-1406.1" y2="-1360.9" gradientTransform="matrix(.25649 .064951 -.064951 .25649 728.15 -358.11)" gradientUnits="userSpaceOnUse" xlink:href="#b"/>
<linearGradient id="s" x1="-698.76" x2="-693.49" y1="-361.87" y2="-348.97" gradientUnits="userSpaceOnUse" xlink:href="#q"/>
<linearGradient id="r" x1="-676.85" x2="-677.94" y1="-406.13" y2="-400.17" gradientTransform="matrix(.9694 .24548 -.24548 .9694 750.3 -359.98)" gradientUnits="userSpaceOnUse">
<stop stop-color="#eab90c" offset="0"/>
<stop stop-color="#ff0af9" stop-opacity=".18182" offset="1"/>
</linearGradient>
</defs>
<metadata>
<rdf:RDF>
<cc:Work rdf:about="">
<dc:format>image/svg+xml</dc:format>
<dc:type rdf:resource="http://purl.org/dc/dcmitype/StillImage"/>
<dc:title/>
</cc:Work>
</rdf:RDF>
</metadata>
<g transform="translate(0 -157.02)">
<flowRoot fill="#000000" font-family="'Squada One'" font-size="40px" letter-spacing="0px" word-spacing="0px" style="line-height:1.25" xml:space="preserve"><flowRegion font-family="'Squada One'"><rect x="-3261.2" y="-2291.4" width="1221.9" height="407.29"/></flowRegion><flowPara/></flowRoot>
<g transform="translate(132.05 1123.1)">
<path d="m-126.37-891.24c-2.771 0.74248-5.0018 3.5714-5.0018 6.3424v40.2c0 2.771 4.3475 7.541 7.1184 6.7985l34.785-9.3207-2.1167 13.709c-0.42649 2.7622 4.2756 7.4001 6.9577 6.6814l98.471-26.385c2.6821-0.71867 6.9582-7.7281 6.9582-10.41l-2.1167-12.575 34.785-9.3207c2.771-0.74247 7.1184-7.8423 7.1184-10.613v-40.2c0-2.771-2.2308-4.404-5.0018-3.6616z" fill="url(#w)"/>
<path d="m-126.37-891.24c-2.771 0.74248-5.0018 3.5714-5.0018 6.3424v40.2c0 2.771 2.2308 4.404 5.0018 3.6615l34.785-9.3207v16.846c0 2.6821 2.159 4.2631 4.841 3.5444l102.7-27.52c2.6821-0.71866 4.8416-3.4568 4.8416-6.1388v-16.846l34.785-9.3207c2.771-0.74248 5.0018-3.571 5.0018-6.342v-40.2c0-2.771-2.2308-4.404-5.0018-3.6616l-78.022 20.906z" fill="url(#x)"/>
<g transform="matrix(1 -.26795 0 1 0 0)" fill="#fff" stroke-width=".70605">
<path d="m-110.65-920.1q7.5877 0 7.5877 8.0772v32.125h-8.5668v-13.278h-6.1803v13.278h-8.5668v-32.125q0-8.0772 7.5877-8.0772h8.1384zm-7.1594 20.315h6.1803v-13.278q0-0.48953-0.36714-0.85667-0.30596-0.36715-0.79549-0.36715h-3.855q-0.48953 0-0.85668 0.36715-0.30595 0.36714-0.30595 0.85667v13.278z"/>
<path d="m-98.997-912.21v-7.2818h21.417v7.2818h-6.4251v32.309h-8.5668v-32.309h-6.4251z"/>
<path d="m-49.007-919.49-6.731 18.174 8.016 21.417h-8.7503l-5.8743-15.665h-2.7536v15.665h-8.5668v-39.591h8.5668v16.583h2.0805l6.1803-16.583h7.8325z"/>
<path d="m-23.511-901.07v6.5474h-20.866v-6.5474h20.866z"/>
<path d="m5.8098-919.49-8.5056 25.15v14.441h-8.5668v-14.441l-8.5056-25.15h8.0772l4.7117 16.522 4.7117-16.522h8.0772z"/>
<path d="m7.2507-912.21v-7.2818h21.417v7.2818h-6.4251v32.309h-8.5668v-32.309h-6.4251z"/>
<path d="m48.001-919.49q7.5877 0 7.5877 8.0772v7.8937q0 8.0772-7.5877 8.0772h-6.9146v15.543h-8.5668v-39.591h15.481zm-0.97906 16.95v-9.8518q0-0.48953-0.36715-0.85668-0.30596-0.36715-0.79548-0.36715h-4.7729v12.299h4.7729q0.48953 0 0.79548-0.36715 0.36715-0.36714 0.36715-0.85667z"/>
</g>
<g transform="matrix(1 -.26795 0 1 0 0)" fill="#fff" stroke-width=".70605">
<path d="m-86.586-871.88v-3.0226h8.89v3.0226h-2.667v13.411h-3.556v-13.411h-2.667z"/>
<path d="m-70.204-874.9h3.556v13.335q0 3.3528-3.1496 3.3528h-3.1496q-3.1496 0-3.1496-3.3528v-13.335h3.556v13.64q0 0.2032 0.127 0.3556 0.1524 0.1524 0.3556 0.1524h1.3716q0.2032 0 0.3302-0.1524 0.1524-0.1524 0.1524-0.3556v-13.64z"/>
<path d="m-60.659-865.2v6.731h-3.556v-16.434h6.3246q3.1496 0 3.1496 3.3528v1.905q0 2.032-1.4478 2.5908 1.27 0.4572 1.27 2.0828v6.5024h-3.556v-6.223q0-0.508-0.4826-0.508h-1.7018zm0-7.2898v4.8006h1.8796q0.2032 0 0.3302-0.1524 0.1524-0.1524 0.1524-0.3556v-3.7846q0-0.2032-0.1524-0.3556-0.127-0.1524-0.3302-0.1524h-1.8796z"/>
<path d="m-42.221-874.9-2.794 7.5438 3.3274 8.89h-3.6322l-2.4384-6.5024h-1.143v6.5024h-3.556v-16.434h3.556v6.8834h0.8636l2.5654-6.8834h3.2512z"/>
<path d="m-34.584-874.9h3.556v13.335q0 3.3528-3.1496 3.3528h-3.1496q-3.1496 0-3.1496-3.3528v-13.335h3.556v13.64q0 0.2032 0.127 0.3556 0.1524 0.1524 0.3556 0.1524h1.3716q0.2032 0 0.3302-0.1524 0.1524-0.1524 0.1524-0.3556v-13.64z"/>
<path d="m-20.005-864.1v2.7178h5.4864v2.921h-8.7376v-5.9182q0-3.3528 3.1496-3.3528h2.032q0.2032 0 0.3302-0.1524 0.1524-0.1524 0.1524-0.3556v-3.6322q0-0.2032-0.1524-0.3556-0.127-0.1524-0.3302-0.1524h-1.4986q-0.2032 0-0.3556 0.1524-0.127 0.1524-0.127 0.3556v1.2954h-3.3782v-1.2192q0-3.3528 3.1496-3.3528h2.8194q3.1496 0 3.1496 3.3528v3.8354q0 3.3528-3.1496 3.3528h-2.0574q-0.2032 0-0.3556 0.1524-0.127 0.1524-0.127 0.3556z"/>
<path d="m-2.3564-871.8v10.236q0 3.3528-3.1496 3.3528h-3.0226q-3.1496 0-3.1496-3.3528v-10.236q0-3.3528 3.1496-3.3528h3.0226q3.1496 0 3.1496 3.3528zm-3.4544 10.643v-11.074q0-0.2032-0.1524-0.3556-0.127-0.1524-0.3302-0.1524h-1.4478q-0.2032 0-0.3556 0.1524-0.127 0.1524-0.127 0.3556v11.074q0 0.2032 0.127 0.3556 0.1524 0.1524 0.3556 0.1524h1.4478q0.2032 0 0.3302-0.1524 0.1524-0.1524 0.1524-0.3556z"/>
<path d="m3.5904-874.87v16.434h-3.4544v-16.434h3.4544z"/>
<path d="m14.608-866.87q1.1938 0.8382 1.1938 2.8702v2.4384q0 3.3528-3.1496 3.3528h-2.9972q-3.1496 0-3.1496-3.3528v-2.4384q0-2.032 1.1938-2.8702-1.0414-0.762-1.0414-2.7432v-2.1844q0-3.3528 3.1496-3.3528h2.6924q3.1496 0 3.1496 3.3528v2.1844q0 1.9812-1.0414 2.7432zm-4.7752-4.9276v3.0988q0 0.2032 0.127 0.3556 0.1524 0.1524 0.3556 0.1524h1.7018q0.2032 0 0.3302-0.1524 0.1524-0.1524 0.1524-0.3556v-3.0988q0-0.2032-0.1524-0.3556-0.127-0.1524-0.3302-0.1524h-1.7018q-0.2032 0-0.3556 0.1524-0.127 0.1524-0.127 0.3556zm2.8194 10.312v-3.3782q0-0.2032-0.1524-0.3556-0.127-0.1524-0.3302-0.1524h-2.0066q-0.2032 0-0.3556 0.1524-0.127 0.1524-0.127 0.3556v3.3782q0 0.2032 0.127 0.3556 0.1524 0.1524 0.3556 0.1524h2.0066q0.2032 0 0.3302-0.1524 0.1524-0.1524 0.1524-0.3556z"/>
</g>
<g transform="matrix(.96593 -.25882 .25882 .96593 20.834 -24.103)">
<path d="m219.9-888.44c0.66297 0.62793 2.8619 2.29 3.5248 2.9179 0.0401 0.0379 0.0834 0.0799 0.12974 0.12559 0.45594-1.4647 1.1816-3.6098 1.3996-4.4745-0.2431 0.9639-0.68547 3.6276-0.98694 5.0895-0.0318 0.15409-0.0647 0.30795-0.0987 0.46155-0.1268-0.10672-0.25279-0.21441-0.37794-0.32306-0.19497-0.16926-0.36089-0.31739-0.48574-0.43563-0.66297-0.62793-2.4419-2.7334-3.1049-3.3614z"/>
<g transform="matrix(-.47873 -.50061 .50061 -.47873 -64.025 -1206.2)">
<path d="m-619.69-39.746c1.0133 0.84329 4.3352 3.0343 5.3485 3.8776 0.0613 0.05098 0.12765 0.1075 0.1987 0.16904 0.52174-2.1523 1.3693-5.3099 1.6038-6.5759-0.26132 1.4112-0.65292 5.2897-0.9524 7.4237-0.0316 0.22488-0.0648 0.44952-0.0997 0.67391-0.19253-0.14198-0.38396-0.28543-0.57428-0.43034-0.29657-0.2258-0.54933-0.42386-0.74015-0.58266-1.0133-0.84329-3.7712-3.712-4.7845-4.5553z"/>
<path d="m-616.57-37.615 2.6766 2.4704 1.1598-4.2897z" fill="#fff" fill-rule="evenodd" stroke="#000" stroke-width=".3048px"/>
</g>
<g transform="matrix(-.47873 -.50061 .50061 -.47873 -56.546 -1203.3)">
<path d="m-619.69-39.746c1.0133 0.84329 4.3352 3.0343 5.3485 3.8776 0.0613 0.05098 0.12765 0.1075 0.1987 0.16904 0.52174-2.1523 1.3693-5.3099 1.6038-6.5759-0.26132 1.4112-0.65292 5.2897-0.9524 7.4237-0.0316 0.22488-0.0648 0.44952-0.0997 0.67391-0.19253-0.14198-0.38396-0.28543-0.57428-0.43034-0.29657-0.2258-0.54933-0.42386-0.74015-0.58266-1.0133-0.84329-3.7712-3.712-4.7845-4.5553z"/>
<path d="m-616.57-37.615 2.6766 2.4704 1.1598-4.2897z" fill="#fff" fill-rule="evenodd" stroke="#000" stroke-width=".3048px"/>
</g>
<g transform="matrix(-.47873 -.50061 .50061 -.47873 -48.479 -1200.4)">
<path d="m-619.69-39.746c1.0133 0.84329 4.3352 3.0343 5.3485 3.8776 0.0613 0.05098 0.12765 0.1075 0.1987 0.16904 0.52174-2.1523 1.3693-5.3099 1.6038-6.5759-0.26132 1.4112-0.65292 5.2897-0.9524 7.4237-0.0316 0.22488-0.0648 0.44952-0.0997 0.67391-0.19253-0.14198-0.38396-0.28543-0.57428-0.43034-0.29657-0.2258-0.54933-0.42386-0.74015-0.58266-1.0133-0.84329-3.7712-3.712-4.7845-4.5553z"/>
<path d="m-616.57-37.615 2.6766 2.4704 1.1598-4.2897z" fill="#fff" fill-rule="evenodd" stroke="#000" stroke-width=".3048px"/>
</g>
<g transform="matrix(-.47873 -.50061 .50061 -.47873 -83.213 -1208.6)">
<path d="m-619.69-39.746c1.0133 0.84329 4.3352 3.0343 5.3485 3.8776 0.0613 0.05098 0.12765 0.1075 0.1987 0.16904 0.52174-2.1523 1.3693-5.3099 1.6038-6.5759-0.26132 1.4112-0.65292 5.2897-0.9524 7.4237-0.0316 0.22488-0.0648 0.44952-0.0997 0.67391-0.19253-0.14198-0.38396-0.28543-0.57428-0.43034-0.29657-0.2258-0.54933-0.42386-0.74015-0.58266-1.0133-0.84329-3.7712-3.712-4.7845-4.5553z"/>
<path d="m-616.57-37.615 2.6766 2.4704 1.1598-4.2897z" fill="#fff" fill-rule="evenodd" stroke="#000" stroke-width=".3048px"/>
</g>
<path d="m228.69-892.99c0.66973 0.63432 2.891 2.3133 3.5608 2.9476 0.0394 0.0373 0.0819 0.0784 0.12728 0.12314 0.38501-1.2753 0.98476-3.0894 1.1567-3.8302-0.19546 0.84195-0.50566 3.172-0.73473 4.4499-0.0287 0.16029-0.0591 0.32029-0.0911 0.47996-0.13146-0.11054-0.26204-0.22211-0.39174-0.33471-0.19695-0.17098-0.36457-0.32062-0.49069-0.44007-0.66972-0.63433-2.4668-2.7613-3.1365-3.3956z"/>
<path d="m230.74-890.88c0.2469 0.27249 1.6502 1.4136 1.6502 1.4136l0.65136-2.0098z" fill="#fff" fill-rule="evenodd" stroke="#000" stroke-width=".19936px"/>
<path d="m221.97-886.82 1.7405 1.8266 0.99222-2.9137z" fill="#fff" fill-rule="evenodd" stroke="#000" stroke-width=".21113px"/>
<path d="m204.26-885.71c0.50085 0.47437 2.162 1.73 2.6629 2.2044 0.0302 0.0286 0.063 0.0603 0.0979 0.0948 0.3441-1.1066 0.89174-2.7272 1.0563-3.3805-0.18342 0.72824-0.51698 2.7407-0.74439 3.8451-0.024 0.11646-0.0488 0.23274-0.0745 0.34883-0.0958-0.0806-0.19103-0.16203-0.28561-0.24414-0.14729-0.12786-0.27264-0.23977-0.36696-0.3291-0.50085-0.47437-1.8448-2.065-2.3456-2.5394z"/>
<path d="m224.97-872.16c2.6604 0.58602 3.2934 0.19811 5.0011-0.11931 0.75319-0.14001 1.9555-1.2768 1.0684-1.3381-0.4248-0.0293-4.1873-1.2531-9.3006-3.0937-4.4843-1.6142-10.914-4.756-16.137-6.9194-0.5418-0.22437-1.0825-0.44726-1.6192-0.66783-7.2344-0.8593-13.762-1.6608-20.702-3.4988 1.4453 1.2978 32.808 14.904 41.689 15.637z" fill="#660505" fill-rule="evenodd" stroke="#000" stroke-width=".18327px"/>
<path d="m205.58-877.87c11.569 1.4184 26.352-0.81795 24.384-2.2031-3.865-2.7206-11.816 1.7433-19.322-1.4147-0.49662-0.43337-4.9931-2.124-6.6562-2.8129-6.8772-0.684-14.26-2.1982-20.986-3.6048-0.0555 0.22749 18.249 9.3607 22.58 10.036z" fill="url(#p)" fill-rule="evenodd" stroke="#000" stroke-width=".18309"/>
<path d="m205.55-884.57 1.6243 1.5539 0.64988-1.9406z" fill="#fff" fill-rule="evenodd" stroke="#000" stroke-width=".21113px"/>
<g transform="matrix(-.47873 -.50061 .50061 -.47873 -54.192 -1198.8)">
<path d="m-619.69-39.746c1.0133 0.84329 4.3352 3.0343 5.3485 3.8776 0.0613 0.05098 0.12765 0.1075 0.1987 0.16904 0.52174-2.1523 1.3693-5.3099 1.6038-6.5759-0.26132 1.4112-0.65292 5.2897-0.9524 7.4237-0.0316 0.22488-0.0648 0.44952-0.0997 0.67391-0.19253-0.14198-0.38396-0.28543-0.57428-0.43034-0.29657-0.2258-0.54933-0.42386-0.74015-0.58266-1.0133-0.84329-3.7712-3.712-4.7845-4.5553z"/>
<path d="m-616.57-37.615 2.6766 2.4704 1.1598-4.2897z" fill="#fff" fill-rule="evenodd" stroke="#000" stroke-width=".3048px"/>
</g>
<g transform="matrix(-.47873 -.50061 .50061 -.47873 -63.55 -1201.1)">
<path d="m-619.69-39.746c1.0133 0.84329 4.3352 3.0343 5.3485 3.8776 0.0613 0.05098 0.12765 0.1075 0.1987 0.16904 0.52174-2.1523 1.3693-5.3099 1.6038-6.5759-0.26132 1.4112-0.65292 5.2897-0.9524 7.4237-0.0316 0.22488-0.0648 0.44952-0.0997 0.67391-0.19253-0.14198-0.38396-0.28543-0.57428-0.43034-0.29657-0.2258-0.54933-0.42386-0.74015-0.58266-1.0133-0.84329-3.7712-3.712-4.7845-4.5553z"/>
<path d="m-616.57-37.615 2.6766 2.4704 1.1598-4.2897z" fill="#fff" fill-rule="evenodd" stroke="#000" stroke-width=".3048px"/>
</g>
<g transform="matrix(-.47873 -.50061 .50061 -.47873 -75.011 -1205.6)">
<path d="m-619.69-39.746c1.0133 0.84329 4.3352 3.0343 5.3485 3.8776 0.0613 0.05098 0.12765 0.1075 0.1987 0.16904 0.52174-2.1523 1.3693-5.3099 1.6038-6.5759-0.26132 1.4112-0.65292 5.2897-0.9524 7.4237-0.0316 0.22488-0.0648 0.44952-0.0997 0.67391-0.19253-0.14198-0.38396-0.28543-0.57428-0.43034-0.29657-0.2258-0.54933-0.42386-0.74015-0.58266-1.0133-0.84329-3.7712-3.712-4.7845-4.5553z"/>
<path d="m-616.57-37.615 2.6766 2.4704 1.1598-4.2897z" fill="#fff" fill-rule="evenodd" stroke="#000" stroke-width=".3048px"/>
</g>
<path d="m224.88-913.56c-9.2996-2.3196-22.38 2.1153-31.393 1.271-1.9452-6.4178-4.3793-10.201-7.4172-10.972-2.956-0.75164-5.3035-0.82049-6.7817 0.38297-1.0544 0.85825-2.229 2.4512-3.0095 3.5334-1.3163 1.825-13.396-1.3819-18.252 14.326-3.1287 10.122 0.81933 12.793 1.1729 28.913-9.4e-4 3e-3 -9.8e-4 4e-3 1e-3 8e-3 1e-3 0.0526 0.15237 0.42415 0.15237 0.42415h29.749l4.3311-1.4267 24.007 6.7042c13.241 3.0931 13.782-2.1083 13.975-2.6453-4.7487 3.6758-31.28-4.8637-48.138-14.759 30.575 6.9625 39.273 1.876 45.743-1.1848 1.9142-0.8005 3.7746-1.9422 5.6393-3.1047 0.49564-0.29951 0.9922-0.60593 1.49-0.92658 0.28963-13.562-4.4835-18.851-11.27-20.544z" fill="url(#v)" fill-rule="evenodd"/>
<path transform="matrix(.9694 .24548 -.24548 .9694 26.656 -7.1866)" d="m-64.927-892.12c7.0677 5.7675 31.105 8.261 43.356 7.3718 3.286-0.23847 6.3664-1.0701 6.9056-3.5195-11.173 5.8249-39.69-0.66272-50.262-3.8523z" fill="url(#e)" fill-rule="evenodd" filter="url(#c)"/>
<path transform="matrix(.9694 .24548 -.24548 .9694 26.656 -7.1866)" d="m-66.567-912.92c-0.31345-1.6654-1.8618-4.2194-1.225-4.7484 0.43886-0.17452 6.709 0.0452 7.0778-0.88201 0.25843-0.64954-5.2286-2.5138-5.4568-2.6823-1.4491-1.6409-6.2244 4.7399-6.0855 6.0308 0 0-12.375 5.6033-10.476 8.3403-10.694 2.7588-16.2 8.2442 0.28098 1.7239 2.1422 2.5927 7.7259 2.4333 8.1927 1.415z" fill="url(#e)" fill-rule="evenodd" filter="url(#c)"/>
<path transform="matrix(.9694 .24548 -.24548 .9694 26.656 -7.1866)" d="m-14.7-911.55c-11.809-18.076-28.847-7.5368-40.385-8.3334 10.102-1.4213 34.21-16.449 40.385 8.3334z" fill="url(#ab)" fill-rule="evenodd" filter="url(#c)"/>
<path d="m228-874.65c0.33649 0.10298 0.70487 0.25892 1.3021 0.5036 0.20866 0.0855 0.43467 0.17671 0.64419 0.25343 0.19466 0.0713 0.38937 0.13541 0.55876 0.17385 0.19628 0.0345 0.34831 0.0838 0.46088 0.14157 0.11112 0.057 0.17676 0.11855 0.21155 0.17421 0.0331 0.053 0.0394 0.10197 0.0334 0.14767-6e-3 0.047-0.0272 0.10276-0.0688 0.16531-0.0419 0.063-0.10303 0.13026-0.18438 0.19734-0.0813 0.067-0.17975 0.13138-0.29248 0.18869-0.22983 0.11683-0.50644 0.19814-0.79634 0.21896-0.89621 0.0777-1.6172 0.14234-2.4078 0.14386-0.96221 2e-3 -1.7801-0.0967-2.5737-0.26543-1.9353-0.39154-3.7382-0.81807-5.3398-1.2287-5.1018-1.3081-11.611-3.2195-20.173-6.6241-7.6513-3.0425-14.063-6.1538-16.663-7.4851 2.6188 1.3409 8.8852 4.6398 16.485 7.915 8.3086 3.5809 15.156 5.8228 20.12 7.0957 1.6148 0.41404 3.4339 0.8415 5.3892 1.2316 0.86301 0.16411 1.7626 0.22696 2.7828 0.16095 0.82657-0.0535 1.5815-0.17755 2.4579-0.31932 0.37182-0.0611 0.71445-0.19934 0.99132-0.38028 0.13667-0.0893 0.25842-0.18978 0.35961-0.29751 0.10069-0.10718 0.18304-0.22373 0.23815-0.34549 0.0553-0.12221 0.0845-0.2529 0.0728-0.38338-0.0119-0.13357-0.0657-0.25481-0.15714-0.35608-0.0907-0.10041-0.21438-0.17697-0.36251-0.23376-0.15089-0.0578-0.33379-0.0978-0.54798-0.11987-0.15561-6e-3 -0.34451-0.0377-0.54497-0.0829-0.21426-0.0483-0.44481-0.11249-0.66169-0.17673-0.56012-0.16589-1.0414-0.32364-1.3339-0.41317z"/>
<path d="m180.91-914.88c0.35355-0.23636 5.6826-3.3141 5.6826-3.3141" fill="none" stroke="#000" stroke-width=".39898"/>
<path d="m184.61-912.93c-1.3272-3.1578 0.0863-4.6986 1.4274-1.5774" fill="none" stroke="#000" stroke-width=".39898"/>
<path d="m171.66-906.54s-13.345 1.4059-13.926 1.4666" fill="none" stroke="#000" stroke-linecap="round" stroke-width=".84984"/>
<path d="m168.69-910.54c1.5143-0.28132 2.861-1.4244 4.3987-2.1261 0.7596-0.34661 1.5617-0.58923 2.4828-0.62836 0.92892-0.30838 2.1293-0.41081 3.69-0.091-1.4185-0.69566-2.6584-1.0352-3.8269-1.1035-1.0977 0.19217-1.9818 0.62122-2.7381 1.1172-1.5434 1.0122-2.5721 2.2938-4.0064 2.8317z"/>
<rect transform="matrix(.87599 -.48233 .38436 .92318 0 0)" x="509.89" y="-718.41" width="14.528" height="9.3556" ry="2.8141" fill="url(#aa)" stroke="#000" stroke-linecap="round" stroke-linejoin="round" stroke-width=".52833"/>
<path d="m188.04-921.54c-1.0492 0.1844-2.0156 0.6464-2.7504 1.3855-0.48796 0.91608-0.61238 1.9181-0.39436 2.8948 0.0844-0.99969 0.52206-1.793 1.1252-2.3549 0.371-0.75719 1.0521-1.449 2.0196-1.9254z"/>
<path d="m185.67-890.23c-1.4952-0.45064-2.7874-0.6964-3.7987-0.72404-0.96987-0.0265-1.852 0.13891-2.3447 0.74448-0.1068 0.13126-0.19242 0.28047-0.25404 0.44579-0.0944 0.64027 0.1899 1.2973 0.65779 1.9548 0.60513 0.85032 1.6459 1.8673 3.1514 3.0463-1.3938-1.3371-2.252-2.4579-2.6515-3.3376-0.32295-0.71122-0.29875-1.1693-0.15701-1.3968 5.5e-4 -0.0668 0.0106-0.1314 0.0337-0.19577 0.11737-0.32768 0.59689-0.66305 1.5873-0.79383 0.94922-0.12534 2.2324-0.0454 3.7757 0.25664z"/>
<path d="m222.75-879.94c-5.3987 0.75381-11.511 0.35889-16.843-0.851-3.7632-0.74773-7.1667-1.902-9.6925-3.3585 2.4679 1.5635 5.8463 2.8418 9.6154 3.7154 5.3972 1.0996 11.538 1.3684 16.921 0.49415z"/>
<path d="m227.08-897.52c-1.0203-0.37809-1.9751-0.58615-2.956-0.96747-0.41618-0.16179-0.78575-0.3387-1.0961-0.54464-0.4875 0.0762-1.007 0.0928-1.5255-0.0747 0.16956 0.53842 0.50941 1.0332 0.97615 1.4908 0.47666 0.10135 0.96882 0.14216 1.4459 0.15547 0.97204 0.0271 2.2318-0.0692 3.1556-0.0595z"/>
<path d="m225.5-913.91c-2.5431-0.64296-3.2301-0.77032-4.7326-0.87695-4.6132-0.32745-8.8373-0.0636-18.599 1.1615-8.0011 1.0041-10.796 1.1618-13.538 0.76367-1.6082-0.23358-2.4636-0.62903-3.8109-1.7621-0.0554-0.0466-0.0765-8e-3 -0.0469 0.0862 0.0808 0.25635 0.91622 0.9538 1.5986 1.3346 0.35039 0.19555 1.2884 0.5107 2.239 0.75245 2.8989 0.73718 5.8187 0.818 14.535 0.40333 11.933-0.56772 15.998-0.36498 20.903 1.0426 2.9804 0.85521 4.3718 1.5751 6.615 3.4218 2.0373 1.6772 3.1418 3.118 4.0528 5.2864 0.92271 2.1962 1.4841 5.5351 1.3609 8.0955l-0.0538 1.1159-0.93569 0.49555c-1.9124 1.0128-8.167 3.8583-10.56 4.8046-9.2204 3.646-18.314 4.1258-32.083 1.6927-2.5779-0.45553-8.8631-1.7107-9.4978-1.8968-0.65051-0.19072 0.0312 0.23283 2.497 1.5517 8.4958 4.5439 15.123 7.4746 23.021 10.181 7.2974 2.5002 15.855 4.6769 18.255 4.6431 1.4566-0.0205 3.4587-0.32532 3.9833-0.60658l0.52132-0.27953-0.1848 0.38679c-0.99141 2.0766-3.5796 2.8031-8.1697 2.2931-2.2974-0.25525-8.1547-1.7722-13.627-3.5294-8.1196-2.607-9.2466-2.9417-12.033-3.5712-2.8923-0.65361-4.0491-0.78375-5.5075-0.62049-1.2137 0.13586-2.1916 0.86396-2.5994 1.873h2.0266c0.05-0.03 0.10178-0.0424 0.16503-0.0775 0.66639-0.36991 1.5185-0.46061 3.2272-0.34323 1.5365 0.10554 6.3692 1.294 17.167 4.2219 5.0299 1.3639 7.2953 1.9269 8.6105 2.1401 4.6684 0.75662 7.5713 0.56565 9.3662-0.61625 0.95147-0.62654 1.4495-1.3326 1.7347-2.4588 0.24875-0.9823 0.30428-0.93679-1.8482-1.5204-1.6606-0.45022-1.6681-0.31339-0.0134 0.24176 1.8062 0.60595 1.922 0.7362 1.079 1.2143-0.499 0.28305-2.6464 0.49905-4.1938 0.42184-1.4538-0.0726-11.946-2.7679-15.571-4.0002-7.1117-2.4172-15.908-5.8864-22.149-8.7352-2.6763-1.2217-5.1739-2.4408-5.096-2.4872 0.0343-0.0204 1.6975 0.3193 3.6961 0.7548 16.665 3.6312 25.405 3.9363 34.614 1.2078 4.8595-1.4399 7.5452-2.746 12.266-5.9649l1.9673-1.3415 0.15897-1.5608c0.67589-6.6304 0.1093-10.492-2.0404-13.904-0.96114-1.5257-1.8493-2.4099-3.3755-3.3604-1.7357-1.0808-2.2566-1.2813-5.3929-2.074zm-40.582-10.13c-1.5905-0.40482-2.7718-0.39801-4.5875 0.0278-1.7556 0.41166-2.3687 0.9529-3.0598 2.7003-0.40843 1.0328-0.66352 1.1228-6.4643 2.278-2.6351 0.52472-3.9456 0.96755-5.3588 1.8112-2.5392 1.5158-4.9901 4.3941-6.6102 7.7626-0.74955 1.5584-2.0889 6.8478-2.2108 8.7302-0.24855 3.8405 0.0173 6.95 0.98512 11.52 1.1059 5.2218 1.3105 7.0242 1.3219 13.268l0.42589 4e-3c0.0906-6.262-0.14309-8.8963-1.0593-13.07-0.96461-4.3939-1.195-8.6916-0.67669-12.626 0.25144-1.9089 1.3418-5.6401 2.0897-7.1502 1.8464-3.7282 4.6947-6.6615 7.535-7.7596 1.1298-0.43679 2.4066-0.72444 4.761-1.0725 2.403-0.35528 4.2849-0.80349 5.0359-1.1997 0.92207-0.48648 1.2982-1.0326 1.6429-2.3734 0.28436-1.1107 0.29969-1.1375 0.87394-1.5203 0.66358-0.44244 2.439-0.90343 3.6782-0.95479 1.289-0.0534 3.0629 0.44686 4.15 1.1703 1.7662 1.1752 3.2868 3.1304 4.492 5.7618 0.31576 0.68942 0.60987 1.4253 0.88108 2.2056 0.16628 0.47851 0.33458 0.85079 0.37435 0.8273 0.0395-0.0235-0.0959-0.53882-0.30064-1.1449-1.1182-3.3096-2.6092-5.8017-4.4015-7.3563-1.1887-1.0311-1.9908-1.4507-3.5174-1.8394z" fill="#020000" stroke-width=".13342"/>
<path d="m194.75-922.1c-0.47321-0.11055-0.99469-0.0462-1.4822 0.22221l-6.3623 3.5032c-1.1145 0.61363-1.6177 2.0532-1.1287 3.2277l0.70921 1.7038c0.72311 0.88998 4.9108 1.2017 5.2456 1.075l4.4706-2.4613c1.1145-0.61364 1.6177-2.0532 1.1286-3.2277l-1.1691-2.8079c-0.27507-0.66064-0.8034-1.0927-1.4118-1.2349z" fill="url(#u)" stroke="#000" stroke-linecap="round" stroke-linejoin="round" stroke-width=".42986"/>
<path d="m203.15-912.05c-8.7161 0.41468-11.636 0.33365-14.535-0.40335-0.95053-0.24173-1.8884-0.5568-2.2388-0.75238-0.68232-0.3808-1.5178-1.0783-1.5986-1.3347-0.0297-0.0942-8e-3 -0.13291 0.0468-0.0864 1.3473 1.1329 2.2028 1.5284 3.8109 1.762 2.7414 0.39817 5.5365 0.2405 13.538-0.7636-0.11741 0.60745 1.5954 1.5698 0.97675 1.5783z" fill="#020000" stroke-width=".13342"/>
<path d="m141.78-888a8.4087 5.2024 54.884 0 0 -2.7608 0.3137 8.4087 5.2024 54.884 0 0 -0.94323 0.77559 8.9553 5.6715 74.38 0 0 -4.9541 -2.2557 8.9553 5.6715 74.38 0 0 -3.3512 3.2934 5.6525 8.6035 22.189 0 0 -1.5507 -0.83995 5.6525 8.6035 22.189 0 0 -8.2814 6.6778 5.6525 8.6035 22.189 0 0 2.7066 9.5627 5.6525 8.6035 22.189 0 0 8.0357 -6.0337 8.9553 5.6715 74.38 0 0 6.6073 4.7394 8.9553 5.6715 74.38 0 0 3.5629 -3.9759 8.4087 5.2024 54.884 0 0 7.1712 2.2259 8.4087 5.2024 54.884 0 0 1.7134 -2.2507 8.1502 4.629 40.448 0 0 8.6691 1.6116 8.1502 4.629 40.448 0 0 -2.764 -8.7174 8.1502 4.629 40.448 0 0 -9.1842 -2.3101 8.4087 5.2024 54.884 0 0 -4.6767 -2.8165z" fill="url(#t)"/>
<path d="m128.22-886.72a5.6525 8.6035 22.189 0 0 -8.2814 6.6778 5.6525 8.6035 22.189 0 0 2.7066 9.5627 5.6525 8.6035 22.189 0 0 8.0357 -6.0337 8.9553 5.6715 74.38 0 1 -1.0708 -2.9477 8.9553 5.6715 74.38 0 1 0.16063 -6.4191 5.6525 8.6035 22.189 0 0 -1.5507 -0.83995z" fill="none" stroke="#000" stroke-linecap="round" stroke-linejoin="round" stroke-width=".5451"/>
<path d="m150.5-885.75a8.1502 4.629 40.448 0 0 -4.0346 0.55888 8.4087 5.2024 54.884 0 1 1.6714 2.119 8.4087 5.2024 54.884 0 1 1.6062 7.2983 8.1502 4.629 40.448 0 0 8.6691 1.6116 8.1502 4.629 40.448 0 0 -2.764 -8.7174 8.1502 4.629 40.448 0 0 -5.1482 -2.8704z" fill="none" stroke="#000" stroke-linecap="round" stroke-linejoin="round" stroke-width=".5451"/>
<path d="m141.78-888a8.4087 5.2024 54.884 0 0 -2.7608 0.3137 8.4087 5.2024 54.884 0 0 -0.94323 0.77559 8.9553 5.6715 74.38 0 1 2.7246 5.4311 8.9553 5.6715 74.38 0 1 0.0505 5.737 8.4087 5.2024 54.884 0 0 7.1712 2.2259 8.4087 5.2024 54.884 0 0 0.10724 -9.549 8.4087 5.2024 54.884 0 0 -6.3495 -4.9343z" fill="none" stroke="#000" stroke-linecap="round" stroke-linejoin="round" stroke-width=".5451"/>
<ellipse transform="matrix(.98401 -.17813 .23286 .97251 0 0)" cx="337.04" cy="-843.62" rx="5.6863" ry="8.9459" fill="none" stroke="#000" stroke-linecap="round" stroke-linejoin="round" stroke-width=".54553"/>
<g transform="matrix(.9694 .24548 -.24548 .9694 728.15 -358.11)" fill="url(#s)" stroke="#000" stroke-linecap="round" stroke-linejoin="round">
<path d="m-713.03-356.73c-2.2881-0.0321-4.1897 1.6384-4.2474 3.731-0.0125 0.50784 0.0867 1.0118 0.29174 1.4819v2e-4c1.0401 4.0746 2.7683 5.3091 3.4939 7.7769 0.89615-2.5502 2.9545-4.0774 4.0106-7.455 0.0503-0.59105 0.47144-1.0995 0.48933-1.688 0.0577-2.0925-1.7502-3.8148-4.0381-3.8469z" stroke-width=".64641"/>
<path d="m-684.73-364.41c-1.8983 1.2647-2.4506 3.6781-1.2335 5.3905 0.2966 0.41471 0.68255 0.76333 1.135 1.0251l1.2e-4 1.6e-4c3.3162 2.6843 5.7634 2.5409 7.8504 4.1128-0.80506-2.5526-0.3196-4.7797-1.4933-8.0867-0.31583-0.50285-0.27726-1.1486-0.61816-1.6311-1.217-1.7123-3.7423-2.0753-5.6406-0.81072z" stroke-width=".64641"/>
<path d="m-694.36-363.32c-1.5627 1.6687-1.5665 4.1574-8e-3 5.5587 0.37914 0.33896 0.83039 0.59294 1.327 0.74675l1.4e-4 1.4e-4c3.8087 1.8776 6.0852 1.2286 8.4563 2.2952-1.3436-2.3175-1.2979-4.6546-3.1654-7.6274-0.41722-0.42092-0.52214-1.062-0.9592-1.4574-1.558-1.4013-4.0878-1.1846-5.6505 0.48397z" stroke-width=".64641"/>
<path d="m-702.9-361.66c-2.1021 0.71779-3.2072 3.0536-2.4683 5.2171 0.18073 0.52454 0.4619 1.0085 0.82703 1.423l7e-5 2.1e-4c2.4913 3.8346 4.6493 4.5669 6.2455 6.858-0.14609-2.9076 1.0439-5.1821 0.73089-8.9901-0.17759-0.62226 0.0147-1.2815-0.19154-1.8905-0.73879-2.1634-3.0416-3.3354-5.1436-2.6177z" stroke-width=".66559"/>
</g>
<g transform="matrix(.9694 .24548 -.24548 .9694 728.15 -358.11)">
<path d="m-709.51-352.33c-0.15811-1.918-1.4868-3.2612-3.1339-3.6721-0.29251-0.0367-0.58619-0.043-0.87514-0.019-1.9765 0.16444-3.5943 1.7004-3.4645 4.5104 0.0711-2.8556 1.8667-3.9548 3.4833-3.907 0.24751 7e-3 0.49422 0.0408 0.73498 0.0988 1.3904 0.13082 2.8678 1.1021 3.2553 2.9888z"/>
<path transform="matrix(.45225 .22305 -.22305 .45225 -382.97 -207.04)" d="m-661.47-16.355c-3.6606-2.6485-7.4185-1.489-9.4718 0.70751-0.26558 0.21351-0.51641 0.44624-0.74951 0.69592-1.1603 1.2428-1.8867 2.9133-1.785 4.7138 0.10196 1.8045 1.0433 3.7798 3.2869 5.5241-2.3541-1.5563-3.5928-3.4685-3.9339-5.4484-0.34163-1.9825 0.22928-3.9882 1.4249-5.6162 0.23898-0.3254 0.50279-0.63547 0.78899-0.92682 2.9112-2.3347 7.0924-2.6599 10.439 0.35009z"/>
<path transform="matrix(.50231 -.044271 .044271 .50231 -348.79 -390.93)" d="m-675.67-3.2742c-2.6007-3.015-6.0812-2.8385-8.409-1.3881-0.39675 0.17846-0.77836 0.3955-1.1368 0.64751-2.591 1.8215-4.1465 5.6856-0.71635 9.8749-3.6685-3.8912-2.8904-8.2071 0.0163-10.758 0.38307-0.33612 0.8007-0.63763 1.2456-0.89837 3.0802-1.3632 6.7408-0.74948 9.0003 2.5216z"/>
<path d="m-698.12-358.36c-1.2252-2.3018-3.092-2.6657-4.3592-2.1625-0.13568 0.029-0.26974 0.0681-0.4011 0.11703-1.418 0.52802-2.6142 2.2981-1.6373 4.8014-1.1668-2.3578-0.36936-4.514 1.3458-5.4342 0.15293-0.0821 0.31252-0.15343 0.47762-0.2131 1.7517-0.3821 3.6044 0.53694 4.5741 2.8913z"/>
</g>
<g transform="matrix(.9694 .24548 -.24548 .9694 728.15 -358.11)" fill="url(#o)" filter="url(#ac)">
<path d="m-716.78-356.34c-0.12735-0.52578 0.0109-1.2939 0.29388-2.1292 0.28387-0.83794 0.71574-1.7485 1.1811-2.5501 0.0421-0.0725 0.0844-0.14409 0.12698-0.21463 0.36794-0.7432 0.75692-1.3857 1.082-1.7952 0.17971-0.2264 0.33464-0.37526 0.45647-0.43932 0.0589-0.031 0.11191-0.0432 0.15979-0.032 0.0503 0.0118 0.10054 0.0508 0.14251 0.12899-0.0225-0.0827-0.0595-0.14559-0.11817-0.18286-0.0602-0.0383-0.13702-0.0455-0.22342-0.0256-0.16967 0.0391-0.37379 0.18152-0.59185 0.39144-0.3986 0.38372-0.86177 1.0094-1.3029 1.7369-0.038 0.0758-0.0757 0.15253-0.11311 0.23008-0.4128 0.85611-0.78636 1.8146-1.0066 2.6914-0.2207 0.87858-0.2864 1.6739-0.0867 2.1901z"/>
<path d="m-684.06-366.62c-0.73743-0.82626-2.5335-1.5479-4.2372-1.9487-0.0772-0.0181-0.15414-0.0356-0.23087-0.0525-0.78232-0.10148-1.5293-0.13375-2.132-0.078-0.33141 0.0307-0.6198 0.0881-0.84497 0.17536-0.22665 0.0879-0.38499 0.20472-0.45566 0.34605 0.1-0.11434 0.27011-0.18808 0.48925-0.23269 0.22134-0.0451 0.49977-0.0615 0.8192-0.0524 0.58135 0.0166 1.2982 0.11814 2.0458 0.28629 0.0755 0.01 0.15146 0.0207 0.22768 0.032 1.6821 0.25013 3.4996 0.81954 4.3187 1.5245z"/>
<path d="m-691.51-365.46c-0.76039-0.894-2.2464-1.9024-3.799-2.5842-0.0586-0.0258-0.11742-0.0511-0.17625-0.0759-1.5354-0.54581-3.0849-0.76054-4.0316-0.26969 0.96671-0.39304 2.4646-0.0797 3.9258 0.54151 0.0588 0.021 0.11752 0.0425 0.17624 0.0644 1.5563 0.58224 3.0803 1.4984 3.9049 2.3239z"/>
<path d="m-697.81-360.63c-0.10483-0.41206-0.39082-1.0682-0.815-1.8228-0.42507-0.75618-0.98939-1.6123-1.6517-2.4249-0.14952-0.18346-0.30391-0.36455-0.46269-0.54167-1.1483-1.465-2.603-2.734-4.1689-2.9888 1.6086 0.1216 3.1875 1.2958 4.4836 2.7229 0.15252 0.19129 0.29991 0.38595 0.44171 0.58225 0.62728 0.86835 1.1476 1.7719 1.5224 2.5653 0.37514 0.794 0.60543 1.4795 0.65055 1.9077z"/>
</g>
<rect transform="matrix(.87599 -.48233 .38436 .92318 0 0)" x="509.89" y="-718.41" width="14.528" height="9.3556" ry="2.8141" fill="url(#z)" stroke="#000" stroke-linecap="round" stroke-linejoin="round" stroke-width=".52833"/>
<rect transform="matrix(.87599 -.48233 .38436 .92318 0 0)" x="509.89" y="-718.41" width="14.528" height="9.3556" ry="2.8141" fill="url(#y)" stroke="#000" stroke-linecap="round" stroke-linejoin="round" stroke-width=".52833"/>
<path d="m194.75-922.1c-0.47321-0.11055-0.99469-0.0462-1.4822 0.22221l-6.3623 3.5032c-1.1145 0.61363-1.6177 2.0532-1.1287 3.2277l0.70921 1.7038c0.72311 0.88998 4.9108 1.2017 5.2456 1.075l4.4706-2.4613c1.1145-0.61364 1.6177-2.0532 1.1286-3.2277l-1.1691-2.8079c-0.27507-0.66064-0.8034-1.0927-1.4118-1.2349z" fill="url(#r)" stroke="#000" stroke-linecap="round" stroke-linejoin="round" stroke-width=".42986"/>
<path d="m203.15-912.05c-8.7161 0.41468-11.66 0.39638-14.559-0.34062-0.95053-0.24174-1.7952-0.55044-2.1456-0.74603-0.68231-0.3808-1.5864-1.1474-1.6673-1.4037-0.0297-0.0942-8e-3 -0.13291 0.0468-0.0864 1.3473 1.1329 2.2028 1.5284 3.8109 1.762 2.7414 0.39817 5.5365 0.2405 13.538-0.7636-0.11741 0.60745 1.5954 1.5698 0.97675 1.5783z" fill="#020000" stroke-width=".13342"/>
<rect transform="matrix(.87599 -.48233 .38436 .92318 0 0)" x="509.89" y="-718.41" width="14.528" height="9.3556" ry="2.8141" fill="url(#n)" stroke="#000" stroke-linecap="round" stroke-linejoin="round" stroke-width=".52833"/>
<rect transform="matrix(.87599 -.48233 .38436 .92318 0 0)" x="509.89" y="-718.41" width="14.528" height="9.3556" ry="2.8141" fill="url(#m)" stroke="#000" stroke-linecap="round" stroke-linejoin="round" stroke-width=".52833"/>
<rect transform="matrix(.87599 -.48233 .38436 .92318 0 0)" x="509.89" y="-718.41" width="14.528" height="9.3556" ry="2.8141" fill="url(#l)" stroke="#000" stroke-linecap="round" stroke-linejoin="round" stroke-width=".52833"/>
<path d="m194.75-922.1c-0.47321-0.11055-0.99469-0.0462-1.4822 0.22221l-6.3623 3.5032c-1.1145 0.61363-1.6177 2.0532-1.1287 3.2277l0.70921 1.7038c0.72311 0.88998 4.9108 1.2017 5.2456 1.075l4.4706-2.4613c1.1145-0.61364 1.6177-2.0532 1.1286-3.2277l-1.1691-2.8079c-0.27507-0.66064-0.8034-1.0927-1.4118-1.2349z" fill="url(#k)" stroke="#000" stroke-linecap="round" stroke-linejoin="round" stroke-width=".42986"/>
<path d="m194.75-922.1c-0.47321-0.11055-0.99469-0.0462-1.4822 0.22221l-6.3623 3.5032c-1.1145 0.61363-1.6177 2.0532-1.1287 3.2277l0.70921 1.7038c0.72311 0.88998 4.9108 1.2017 5.2456 1.075l4.4706-2.4613c1.1145-0.61364 1.6177-2.0532 1.1286-3.2277l-1.1691-2.8079c-0.27507-0.66064-0.8034-1.0927-1.4118-1.2349z" fill="url(#j)" stroke="#000" stroke-linecap="round" stroke-linejoin="round" stroke-width=".42986"/>
<path d="m194.75-922.1c-0.47321-0.11055-0.99469-0.0462-1.4822 0.22221l-6.3623 3.5032c-1.1145 0.61363-1.6177 2.0532-1.1287 3.2277l0.70921 1.7038c0.72311 0.88998 4.9108 1.2017 5.2456 1.075l4.4706-2.4613c1.1145-0.61364 1.6177-2.0532 1.1286-3.2277l-1.1691-2.8079c-0.27507-0.66064-0.8034-1.0927-1.4118-1.2349z" fill="url(#i)" stroke="#000" stroke-linecap="round" stroke-linejoin="round" stroke-width=".42986"/>
<path d="m194.75-922.1c-0.47321-0.11055-0.99469-0.0462-1.4822 0.22221l-6.3623 3.5032c-1.1145 0.61363-1.6177 2.0532-1.1287 3.2277l0.70921 1.7038c0.72311 0.88998 4.9108 1.2017 5.2456 1.075l4.4706-2.4613c1.1145-0.61364 1.6177-2.0532 1.1286-3.2277l-1.1691-2.8079c-0.27507-0.66064-0.8034-1.0927-1.4118-1.2349z" fill="url(#h)" stroke="#000" stroke-linecap="round" stroke-linejoin="round" stroke-width=".42986"/>
</g>
</g>
</g>
</svg>
