<svg xmlns="http://www.w3.org/2000/svg" viewBox="0 0 387.4 157.5"><style>.st1{fill:#fff}</style><g id="Artwork"><path d="M320.4 98.1c0-4.1 3.4-7.5 7.5-7.5s7.5 3.4 7.5 7.5-3.4 7.5-7.5 7.5-7.5-3.4-7.5-7.5" fill="#85bc22"/><path class="st1" d="M95 77.7c0 8.7-2.3 15.3-7 20-4.7 4.7-11.2 7-19.7 7H52v-52h17.6c8.1 0 14.4 2.1 18.9 6.4 4.3 4.4 6.5 10.5 6.5 18.6m-14.2.5c0-4.8-.9-8.3-2.8-10.6-1.8-2.3-4.6-3.4-8.4-3.4h-4v29.1h3.1c4.2 0 7.2-1.2 9.2-3.7 1.9-2.6 2.9-6.3 2.9-11.4M140.5 52.6h13.1v52.2h-13.1zM196.4 85.3c0 6.3-1.7 11.3-5 14.8s-8 5.3-14 5.3c-5.7 0-10.3-1.8-13.7-5.4-3.4-3.6-5.1-8.5-5.1-14.7 0-6.3 1.7-11.2 5-14.7s8-5.2 14-5.2c3.7 0 7 .8 9.9 2.4 2.9 1.6 5 3.9 6.6 7 1.5 2.9 2.3 6.4 2.3 10.5m-24.5 0c0 3.3.4 5.9 1.3 7.6.9 1.7 2.3 2.6 4.4 2.6 2 0 3.5-.9 4.3-2.6.8-1.7 1.3-4.3 1.3-7.6s-.4-5.8-1.3-7.5c-.8-1.7-2.3-2.5-4.3-2.5s-3.4.8-4.3 2.5c-1 1.7-1.4 4.2-1.4 7.5M201.6 66h13.1v38.8h-13.1zM201.6 52.6h13.1v8.7h-13.1zM241.1 94.9c1.8 0 3.9-.4 6.3-1.3v9.8c-1.8.8-3.4 1.3-5 1.7-1.6.3-3.5.5-5.6.5-4.4 0-7.5-1.1-9.5-3.3-1.9-2.2-2.9-5.6-2.9-10.1V76h-4.6V66h4.6v-9.9l13.2-2.3V66h8.3v10h-8.3v15.1c0 2.5 1.1 3.8 3.5 3.8M271.3 94.9c1.8 0 3.9-.4 6.3-1.3v9.8c-1.8.8-3.4 1.3-5 1.7-1.6.3-3.5.5-5.6.5-4.4 0-7.5-1.1-9.5-3.3-1.9-2.2-2.9-5.6-2.9-10.1V76H250V66h4.6V56l13.2-2.1V66h8.3v10h-8.3v15.1c0 2.5 1.2 3.8 3.5 3.8M312.5 69.9c-3.1-3-7.5-4.6-13.2-4.6-6 0-10.6 1.7-13.8 5.3-3.2 3.5-4.8 8.5-4.8 15.1 0 6.3 1.7 11.2 5.2 14.7 3.5 3.4 8.4 5.1 14.7 5.1 3 0 5.6-.2 7.8-.6 2.2-.4 4.3-1.1 6.3-2.2l-2-8.7c-1.5.6-2.9 1.1-4.2 1.4-1.9.4-4 .7-6.3.7-2.5 0-4.5-.6-6-1.8-1.5-1.2-2.2-2.9-2.3-5.1h23.3V83c0-5.7-1.6-10.1-4.7-13.1m-18.4 10.7c.2-2.1.8-3.7 1.8-4.7s2.3-1.5 3.9-1.5c1.7 0 3 .6 4 1.7s1.5 2.6 1.6 4.5h-11.3zM130.8 69.9c-3.1-3-7.5-4.6-13.2-4.6-6 0-10.6 1.7-13.8 5.3-3.2 3.5-4.8 8.5-4.8 15.1 0 6.3 1.7 11.2 5.2 14.7 3.5 3.4 8.4 5.1 14.7 5.1 3 0 5.6-.2 7.8-.6 2.2-.4 4.3-1.1 6.3-2.2l-2-8.7c-1.5.6-2.9 1.1-4.2 1.4-1.9.4-4 .7-6.3.7-2.5 0-4.5-.6-6-1.8-1.5-1.2-2.2-2.9-2.3-5.1h23.3V83c-.1-5.7-1.6-10.1-4.7-13.1m-18.5 10.7c.2-2.1.8-3.7 1.8-4.7s2.3-1.5 3.9-1.5c1.7 0 3 .6 4 1.7s1.5 2.6 1.6 4.5h-11.3z"/></g></svg>