<svg version="1.1" id="Layer_1" xmlns="http://www.w3.org/2000/svg" x="0" y="0" viewBox="0 0 639.3 182.6" xml:space="preserve"><style>.st0{fill:#e74f3f}</style><path class="st0" d="M152 130.8V51.6h22.3v79.2H152zM248.5 94.9c-.6-9.5-.6-13.1-.7-16.2V51.6h22.5v79.2h-19l-33-42.6.3 17.3v25.3H196V51.6h19l33.5 43.3zM292.1 130.8V51.6h22.3v79.2h-22.3zM352.9 70h-23.1V51.6h68.6V70h-23.2v60.8h-22.3V70zM477.2 130.8h-63.4V51.6h61.8v18.8h-39.7v11.3h37.4v18.2h-37.4v12h41.3v18.9zM565.6 120.5c-9 8.8-19.8 12.3-31.8 12.3-31.1 0-43.2-19.6-43.3-41.1-.2-20.3 13.5-41.9 43.3-41.9 11.4 0 21.7 4 30.7 12.7l-13.8 13.6c-5.7-5.4-11.5-6.9-16.9-6.9-15.3 0-21.3 12.4-21.2 22.7.1 10.3 5.5 22 21.2 22 5.3 0 13-2.3 18.7-8l13.1 14.6z"/><g><path class="st0" d="M73.8 82.2v48.6H96V99.6h38.6V82.2zM73.8 51.6h60.8v18.8H73.8z"/></g></svg>