<svg xmlns="http://www.w3.org/2000/svg" viewBox="-84 466.5 1021 255"><path fill="#FFF" d="M596.9 623.2h-12.2V565h12.2v58.2zm-104.6-37l28.2 37h10.9V565h-12.6v35.9L491.5 565h-11.8v58.2h12.6v-37zm-405 13.7h23.6v23.4h12.8V565h-12.8v23H87.3v-23H74.5v58.2h12.8v-23.3zm684 10.3h-13.5v13.3h13.5v-13.3zm-58.1 14c11.3 0 17.9-4 23.8-10.4l-8.2-8.2c-4.6 4.1-8.6 6.8-15.3 6.8-9.9 0-16.9-8.3-16.9-18.3v-.1c0-9.9 7-18.1 16.9-18.1 5.8 0 10.4 2.5 14.9 6.6l8.2-9.4c-5.4-5.3-12-9-22.9-9-17.9 0-30.3 13.5-30.3 30.1v.1c-.1 16.7 12.6 29.9 29.8 29.9zm-84.5-38l28.2 37h10.9V565h-12.6v35.9L627.8 565H616v58.2h12.6v-37zm185.8-61.4v140.7H27.8V524.8h786.7zm-12.8 12.6H40.5v115.4h761.3V537.4zM243.6 624c15.7 0 25.6-8.6 25.6-26.3v-32.8h-12.9v33.4c0 9.3-4.8 14-12.6 14s-12.6-4.9-12.6-14.4v-33h-12.8v33.2c.1 17.2 9.6 25.9 25.3 25.9zm-103.5-29.8v-.1c0-16.6 13.1-30.1 31-30.1 18 0 30.8 13.4 30.9 30v.1c0 16.6-13.1 30.1-31 30.1-18-.1-30.9-13.4-30.9-30zm13.4-.2c0 10 7.3 18.3 17.6 18.3s17.5-8.2 17.5-18.1v-.1c0-10-7.3-18.3-17.6-18.3-10.4 0-17.5 8.2-17.5 18.2zm156.6 18.7c-6.6 0-12.2-2.8-17.4-7l-7.6 9.1c7 6.2 15.9 9.3 24.7 9.3 12.6 0 21.3-6.5 21.3-18v-.1c.2-10.2-6.5-14.4-18.3-17.5-10.1-2.6-12.6-3.8-12.6-7.7v-.1c0-2.8 2.6-5 7.5-5s9.9 2.1 15.1 5.7l6.6-9.7c-5.9-4.8-13.1-7.4-21.6-7.4-11.9 0-20.4 7-20.4 17.5v.1c0 11.5 7.6 14.8 19.3 17.8 9.7 2.5 11.7 4.1 11.7 7.4v.1c.1 3.4-3.1 5.5-8.3 5.5zm91.1-18.5v-.1c0-16.6 13.1-30.1 31-30.1s30.9 13.4 30.9 30v.1c0 16.6-13.1 30.1-31 30.1s-30.9-13.4-30.9-30zm13.4-.2c0 10 7.3 18.3 17.6 18.3s17.5-8.2 17.5-18.1v-.1c0-10-7.3-18.3-17.6-18.3s-17.5 8.2-17.5 18.2zm-54.8-17.2v46.4h12.8v-46.4h17.7V565H342v11.8h17.8z"/></svg>