<svg version="1.1" id="Layer_1" xmlns="http://www.w3.org/2000/svg" x="0" y="0" viewBox="0 0 459.3 143.4" xml:space="preserve"><style>.st0{fill:#fff}</style><path class="st0" d="M89.3 100.8c-1.1 1.1-2.4 1.6-3.9 1.6h-27c-1.5 0-2.8-.5-3.9-1.6s-1.6-2.4-1.6-3.9V46.3c0-1.6.5-3 1.6-4.1 1.1-1.1 2.4-1.7 4.1-1.7 1.6 0 3 .6 4.1 1.7 1.1 1.1 1.7 2.5 1.7 4.1v45.1h20.9c1.5 0 2.8.5 3.9 1.6s1.6 2.3 1.6 3.9c.1 1.5-.5 2.9-1.5 3.9zM128.8 71.8c-2.7 8.2-5.5 16.7-8.5 25.4-.8 2.2-1.8 3.8-3.1 4.7-1.3.9-2.7 1.3-4.1 1.3-1.6 0-3-.4-4.2-1.3-1.2-.9-2.2-2.4-3-4.7-3-8.6-5.7-17-8.3-25.1-2.6-8.1-5-16.2-7.3-24.1-.3-1.1-.4-2.1-.1-3 .3-.9.7-1.7 1.3-2.3s1.3-1.1 2.1-1.5c.8-.4 1.7-.5 2.5-.5 1.1 0 2.2.3 3.2 1s1.7 1.8 2.2 3.2c1.8 6.2 3.7 12.6 5.6 19.2 2 6.6 4.1 13.3 6.4 20 2.3-6.8 4.5-13.5 6.6-20.1 2-6.7 4-13.1 5.7-19.4.4-1.4 1-2.4 2-3.1.9-.6 1.9-1 3.1-1 .8 0 1.6.2 2.4.5.8.3 1.5.8 2 1.4.6.6.9 1.3 1.2 2.2.2.9.2 1.8-.2 2.8-2.4 8-4.8 16.1-7.5 24.4zM178.8 92.1c-1.1 2.5-2.7 4.6-4.7 6.2-2 1.7-4.4 2.9-7.1 3.7-2.7.8-5.7 1.2-9 1.2-3 0-5.7-.2-8.3-.5-2.6-.3-5.1-1-7.5-1.8-1.3-.5-2.3-1.2-2.9-2.2-.6-1-.9-2-.9-3.1 0-1.5.4-2.7 1.3-3.8.9-1.1 2.1-1.6 3.6-1.6 1 0 1.9.2 2.8.6.9.4 2.2.8 3.8 1.2.9.2 1.9.4 3.1.6 1.1.2 2.5.3 4 .3 4.2 0 7.3-.7 9.2-2.2 1.9-1.5 2.9-3.4 2.9-6 0-1.8-.6-3.3-1.7-4.3s-3.3-2-6.5-2.8c-1.1-.3-2.3-.6-3.6-.9-1.3-.3-2.6-.6-4-1-1.3-.3-2.7-.7-3.9-1.1-1.3-.4-2.4-.9-3.4-1.4-2.1-1.2-3.9-2.9-5.2-4.9-1.4-2.1-2.1-4.9-2.1-8.4 0-3.1.6-5.9 1.7-8.3 1.1-2.4 2.6-4.4 4.5-6 1.9-1.6 4.1-2.9 6.7-3.7 2.5-.8 5.2-1.3 8.1-1.3 2.5 0 4.9.1 7.1.4 2.2.3 4.4.8 6.5 1.5 1.4.4 2.4 1.1 3.1 2.1.6 1 1 2 1 3.1 0 1.4-.5 2.7-1.4 3.8-.9 1.1-2.2 1.7-3.9 1.7-.8 0-1.7-.2-2.5-.5s-1.9-.6-3.1-.9c-.7-.2-1.6-.3-2.5-.5-.9-.1-2-.2-3.3-.2-3.3 0-5.8.6-7.6 1.9-1.8 1.3-2.7 3.1-2.7 5.4 0 2.1.7 3.7 2 4.6 1.3 1 3.4 1.8 6.3 2.5 1.3.3 2.6.7 4 1 1.4.3 2.8.6 4.1 1 1.3.4 2.6.8 3.8 1.2 1.2.4 2.3 1 3.2 1.5 2.3 1.5 4.1 3.3 5.2 5.5 1.1 2.2 1.6 4.8 1.6 7.8-.1 3.2-.7 6.1-1.8 8.6z"/><g><path class="st0" d="M195 100.4v2.5h-4.4V57h4.8v12.7c2.5-2.1 6.2-3 11.5-3 12.8 0 16.6 5.3 16.8 18.6-.2 13.3-4.1 18.5-16.8 18.5-5.6 0-9.4-1-11.9-3.4zm0-14.3c.2 8.9 1.4 13.9 12 14.1 10.6-.2 11.8-5.3 12-14.3 0-9.8-1-15.6-12.1-15.6-10.4 0-11.9 5.1-11.9 14.1v1.7zM232.3 70c2.6-2.7 7-4 15.5-2.1V72c-11.4-2.6-15.5 1.4-15.5 8.6v22.2h-4.7V67.7h4.7V70zM284 85.3c-.2 13.3-5 18.5-17.4 18.5-12.5 0-17.2-5.1-17.4-18.5.2-13.4 4.7-18.5 17.4-18.5 12.6-.1 17.2 5.2 17.4 18.5zm-30 .8c.2 8.9 2.1 13.9 12.6 14.1 10.5-.2 12.4-5.3 12.6-14.3 0-9.8-1.7-15.6-12.6-15.6-10.3 0-12.3 5.2-12.5 14.1v1.7zM302.8 80.7l16.5 22.2h-6l-14.1-19-6.9 6.2v12.8h-4.7V57h4.7v27.2l18.5-16.5h6.4l-14.4 13z"/><path class="st0" d="M323.1 86.4c.2 8.7 1.9 13.6 12.6 13.8 7.6-.1 10.8-2.3 11.9-7l4.3 1.1c-2.2 7.1-6.7 9.5-16.2 9.5-13.2 0-17.3-5.1-17.5-18.5.2-13.4 4-18.5 17.1-18.5 13.2 0 16.9 5.3 17.1 18.6v1.1h-29.3zm0-3.6h24.6c-.4-7.8-2.3-12.3-12.3-12.5-10.1.2-11.9 4.6-12.3 12.5zM360.9 70c2.6-2.7 7-4 15.5-2.1V72c-11.4-2.6-15.5 1.4-15.5 8.6v22.2h-4.7V67.7h4.7V70zM394.2 86.1c-11.1 0-15.2-3-15.2-9.8v-.1c0-6.8 4-9.6 13.9-9.6 7.7 0 11.7 2 13.4 6l-4 1.4c-1.7-2.8-3.1-3.7-9.4-3.7-7.3 0-9 1.2-9 5.7 0 4.2 1.9 5.8 10.4 5.8 9.8 0 14.1 2.3 14.1 11.3 0 8.1-6.2 10.5-16 10.5-7.8 0-12.3-1.9-13.7-6l4-1.4c1.8 2.8 3.5 3.5 9.7 3.5 7.3 0 11.4-1.5 11.4-6.7-.2-5.9-2.4-6.9-9.6-6.9z"/></g></svg>