<?xml version="1.0" encoding="UTF-8"?>
<svg enable-background="new 0 0 473.5 498.2" version="1.1" viewBox="0 0 473.5 498.2" xml:space="preserve" xmlns="http://www.w3.org/2000/svg">
<style type="text/css">
	.st0{fill:#2A679E;}
	.st1{fill:#64A9DC;}
	.st2{fill:#3C7EC8;}
	.st3{fill:#FFFFFF;}
</style>
<path class="st0" d="m473.5 436.4c0 34.2-27.7 61.9-61.9 61.9h-349.7c-34.2-0.1-61.9-27.8-61.9-61.9v-349.8c0-34.2 27.7-61.9 61.9-61.9h349.7c34.2 0 61.9 27.7 61.9 61.9v349.8z"/>
<path class="st1" d="m473.5 411.6c0 34.2-27.7 61.9-61.9 61.9h-349.7c-34.2 0-61.9-27.7-61.9-61.9v-349.7c0-34.2 27.7-61.9 61.9-61.9h349.7c34.2 0 61.9 27.7 61.9 61.9v349.7z"/>
<path class="st2" d="m472.6 422.3c0.1-0.8 0.3-1.6 0.4-2.4 0-0.2 0-0.3 0.1-0.5 0.1-0.7 0.2-1.4 0.2-2.2 0-0.4 0.1-0.7 0.1-1.1 0-0.5 0.1-1.1 0.1-1.6 0-1 0.1-1.9 0.1-2.9v-209.8c-0.7-0.6-1.3-1.3-2-1.9-2.1-2.1-4.1-4.2-6.3-6.2-2.1-2-4.1-4.3-6.3-6.2-1.9-2.2-4.2-4.1-6.2-6.3-2-2.1-4.2-4.2-6.2-6.3-2.1-2.1-4.1-4.2-6.3-6.2-2.1-2-4.1-4.3-6.3-6.2-1.9-2.2-4.2-4.1-6.2-6.3-2-2.1-4.2-4.2-6.2-6.3-2.1-2.1-4.1-4.2-6.3-6.2-2.1-2-4.1-4.3-6.3-6.2-1.9-2.2-4.2-4.1-6.2-6.3-2-2.1-4.2-4.2-6.2-6.3-4.1-4.1-8.1-8.3-12.3-12.3-3.8-3.6-9.3-4-14-2.4-0.8 0.3-1.5 0.6-2.3 0.9-1 0.4-2.1 0.8-3.1 1.2-4.9 1.9-9.9 3.8-14.8 5.7-8.1 3.1-16.2 6.2-24.2 9.3-10.4 4-20.7 8-31.1 12-11.8 4.6-23.6 9.1-35.4 13.7-12.4 4.8-24.8 9.6-37.2 14.3-12.1 4.7-24.3 9.4-36.4 14-11 4.2-22 8.5-33 12.7-9.1 3.5-18.1 7-27.2 10.5-6.2 2.4-12.5 4.8-18.7 7.2l-7.8 3c-2.9 1.1-5.8 2.6-8.4 4.4s-5.6 4.5-5.8 7.9c-0.3 3.6 2.9 6 5.2 8.3 2.1 2.1 4.1 4.2 6.3 6.2 2.1 2 4.1 4.3 6.3 6.2 1.9 2.2 4.2 4.1 6.2 6.3 2 2.1 4.2 4.2 6.2 6.3 2.1 2.1 4.1 4.2 6.3 6.2 2.1 2 4.1 4.3 6.3 6.2 1.9 2.2 4.2 4.1 6.2 6.3 2 2.1 4.2 4.2 6.2 6.3 2.1 2.1 4.1 4.2 6.3 6.2 2.1 2 4.1 4.3 6.3 6.2 1.9 2.2 4.2 4.1 6.2 6.3 2 2.1 4.2 4.2 6.2 6.3 2.1 2.1 4.1 4.2 6.3 6.2 2.1 2 4.1 4.3 6.3 6.2 1.9 2.2 4.2 4.1 6.2 6.3l3 3c0.4 0.4 0.5 0.9 0.7 1.5 0.5 1.4 0.9 2.8 1.4 4.2 0.8 2.3 1.2 4.6 2.1 6.9 0.7 1.8 2 2.9 3.3 4.2 1.6 1.7 3.4 3.3 5 5 3.2 3.4 6.8 6.6 10 10s6.8 6.6 10 10 6.8 6.6 10 10 6.8 6.6 10 10 6.8 6.6 10 10 6.8 6.6 10 10 6.8 6.6 10 10 6.8 6.6 10 10 6.8 6.6 10 10 6.8 6.6 10 10 6.8 6.6 10 10c3.1 3.3 6.5 6.3 9.6 9.6h92.8c30.4 0.1 55.7-22 60.8-51.1z"/>
<path class="st3" d="m368.2 110.9l-269.3 103.9c-18.4 7.4-18.3 17.6-3.3 22.2l67.2 21 25.7 78.8c3.1 8.6 1.6 12 10.6 12 7 0 10.1-3.2 14-7 2.5-2.4 17.2-16.7 33.6-32.7l69.9 51.6c12.9 7.1 22.1 3.4 25.3-11.9l45.9-216.1c4.6-18.8-7.3-27.3-19.6-21.8zm-194.9 142.2l151.4-95.5c7.6-4.6 14.5-2.1 8.8 2.9l-129.7 117-5 53.8-25.5-78.2z"/>
</svg>
