<?xml version="1.0" encoding="utf-8"?>
<!-- Generator: Adobe Illustrator 22.1.0, SVG Export Plug-In . SVG Version: 6.00 Build 0)  -->
<svg version="1.1" id="Layer_1" xmlns="http://www.w3.org/2000/svg" xmlns:xlink="http://www.w3.org/1999/xlink" x="0px" y="0px"
	 viewBox="0 0 202.3 141.6" style="enable-background:new 0 0 202.3 141.6;" xml:space="preserve">
<style type="text/css">
	.st0{fill:none;}
	.st1{fill:#FF0000;}
</style>
<path class="st0" d="M0.3-79.2H202c27.1,0,49.1,22,49.1,49.1v201.7c0,27.1-22,49.1-49.1,49.1H0.3c-27.1,0-49.1-22-49.1-49.1V-30.1
	C-48.9-57.2-26.9-79.2,0.3-79.2z"/>
<g transform="matrix(5.9026 0 0 5.9026 521.4 -711.32)">
	<path class="st1" d="M-71.2,120.5c0,0-10.7,0-13.4,0.7c-1.4,0.4-2.6,1.6-3,3c-0.7,2.7-0.7,8.3-0.7,8.3s0,5.6,0.7,8.2
		c0.4,1.5,1.6,2.6,3,3c2.7,0.7,13.4,0.7,13.4,0.7s10.7,0,13.4-0.7c1.5-0.4,2.6-1.5,3-3c0.7-2.7,0.7-8.2,0.7-8.2s0-5.6-0.7-8.3
		c-0.4-1.5-1.5-2.6-3-3C-60.5,120.5-71.2,120.5-71.2,120.5z M-74.6,127.4l8.9,5.1l-8.9,5.1V127.4L-74.6,127.4z"/>
</g>
</svg>
